<svg width="23" height="23" viewBox="0 0 23 23" fill="none" xmlns="http://www.w3.org/2000/svg">
<g id="basil:bag-solid">
<g id="Group 4">
<path id="Vector" fill-rule="evenodd" clip-rule="evenodd" d="M6.78384 4.96071L6.79726 6.39182L5.09131 6.54692C4.50523 6.59963 3.95374 6.84733 3.52503 7.25041C3.09631 7.65349 2.81513 8.18868 2.72643 8.7704C2.68721 9.03081 2.65136 9.29153 2.61887 9.55255C2.61162 9.6157 2.62445 9.67953 2.65555 9.73496C2.68665 9.7904 2.73443 9.83463 2.7921 9.86136L2.87005 9.89691C8.36585 12.4357 14.9177 12.3742 20.3639 9.73277L20.4412 9.69576C20.4982 9.6678 20.5449 9.62262 20.5747 9.56662C20.6046 9.51063 20.6161 9.44665 20.6076 9.38376C20.571 9.12319 20.5305 8.86317 20.4864 8.60377C20.3868 8.02381 20.0956 7.49399 19.6594 7.09902C19.2232 6.70406 18.6672 6.46675 18.0802 6.42505L16.3716 6.303L16.3582 4.87188C16.3543 4.44945 16.199 4.04244 15.9204 3.72487C15.6418 3.4073 15.2585 3.20026 14.8402 3.14142L13.6089 2.96853C12.2439 2.77758 10.8581 2.79058 9.49696 3.00711L8.26914 3.20308C7.85216 3.26973 7.47293 3.48377 7.20037 3.8063C6.92781 4.12884 6.78001 4.53845 6.78384 4.96071ZM13.3982 4.46524C12.1824 4.2953 10.9481 4.30688 9.73573 4.49961L8.50791 4.69558C8.44834 4.70506 8.39415 4.73561 8.35519 4.78166C8.31622 4.82771 8.29507 4.88621 8.29558 4.94652L8.30801 6.27182C10.4887 6.12674 12.6759 6.10622 14.8589 6.21035L14.8465 4.88506C14.8458 4.82474 14.8236 4.76665 14.7838 4.72134C14.7439 4.67603 14.6892 4.64651 14.6295 4.63814L13.3982 4.46524Z" fill="#175DA8"/>
<path id="Vector_2" d="M20.8231 11.4905C20.8208 11.458 20.8106 11.4265 20.7934 11.3987C20.7762 11.3709 20.7526 11.3478 20.7244 11.3312C20.6963 11.3146 20.6646 11.3051 20.632 11.3034C20.5994 11.3018 20.5669 11.3082 20.5372 11.3219C14.946 13.8609 8.36485 13.9226 2.72692 11.489C2.69704 11.4758 2.66442 11.4701 2.63185 11.4723C2.59928 11.4746 2.56773 11.4847 2.53993 11.5018C2.51213 11.5189 2.48891 11.5425 2.47225 11.5706C2.4556 11.5987 2.44601 11.6304 2.44432 11.663C2.36034 13.5934 2.48222 15.5273 2.80787 17.4319C2.90727 18.0121 3.19835 18.5421 3.63458 18.9373C4.0708 19.3324 4.62695 19.5699 5.21406 19.6116L7.10214 19.7451C10.1713 19.9643 13.2522 19.9353 16.3177 19.6586L18.2029 19.4898C18.7892 19.437 19.3408 19.1892 19.7695 18.7859C20.1982 18.3826 20.4793 17.8472 20.5678 17.2653C20.8583 15.3525 20.9449 13.4165 20.8231 11.4916" fill="#175DA8"/>
</g>
</g>
</svg>
