<svg width="24" height="24" viewBox="0 0 24 24" fill="none" xmlns="http://www.w3.org/2000/svg">
<g id="fluent:send-32-filled">
<path id="Vector" d="M6.0873 5.08188C5.49326 4.78486 4.83471 5.3499 5.03772 5.98245L6.46683 10.4243C6.49493 10.5116 6.5465 10.5895 6.61591 10.6495C6.68532 10.7094 6.76989 10.7492 6.86036 10.7643L12.7953 11.7539C13.0738 11.8004 13.0738 12.2004 12.7953 12.2469L6.86086 13.236C6.77029 13.251 6.68562 13.2907 6.61612 13.3507C6.54662 13.4107 6.49496 13.4886 6.46683 13.576L5.03772 18.0193C4.83421 18.6519 5.49276 19.2169 6.0873 18.9199L18.5852 12.6719C19.1383 12.3954 19.1383 11.6069 18.5852 11.3298L6.0873 5.08188Z" fill="#175DA8"/>
</g>
</svg>
