<svg width="28" height="29" viewBox="0 0 28 29" fill="none" xmlns="http://www.w3.org/2000/svg">
<g id="stash:filter-duotone">
<path id="Vector" d="M7.62067 6.04175H15.7127C16.2458 6.04175 16.709 6.04175 17.0718 6.07675C17.43 6.10941 17.871 6.18758 18.2303 6.48275C18.6935 6.86308 18.9548 7.43241 18.9583 8.02508C18.9607 8.48008 18.7577 8.87208 18.5617 9.18241C18.3657 9.49741 18.0822 9.87075 17.7508 10.3071L14.7222 14.2994C14.4282 14.6867 14.3547 14.7894 14.3033 14.8944C14.2499 15.0044 14.211 15.1209 14.1878 15.2409C14.1645 15.3576 14.161 15.4882 14.161 15.9806V20.9307C14.161 21.1734 14.161 21.4114 14.1447 21.6051C14.1272 21.7964 14.084 22.1032 13.8833 22.3786C13.6383 22.7134 13.2568 22.9304 12.8333 22.9561C12.481 22.9782 12.1952 22.8359 12.0283 22.7426C11.8384 22.6296 11.6531 22.5089 11.473 22.3809L10.3192 21.5841L10.2632 21.5456C10.0403 21.3927 9.793 21.2236 9.6075 20.9891C9.44629 20.7868 9.32621 20.555 9.254 20.3066C9.17117 20.0219 9.17234 19.7232 9.17234 19.4456V15.9806C9.17234 15.4882 9.16767 15.3576 9.1455 15.2409C9.12193 15.1208 9.08271 15.0043 9.02884 14.8944C8.97867 14.7894 8.90517 14.6867 8.61117 14.2994L5.5825 10.3071C5.25117 9.87075 4.96767 9.49741 4.77051 9.18241C4.57567 8.87208 4.37384 8.48008 4.37501 8.02508C4.37562 7.73031 4.44117 7.43929 4.56699 7.17272C4.69282 6.90615 4.87583 6.67058 5.10301 6.48275C5.46234 6.18758 5.90334 6.10941 6.26151 6.07558C6.62434 6.04175 7.08634 6.04175 7.62067 6.04175ZM6.19267 7.85591C6.1534 7.89897 6.12995 7.9541 6.12617 8.01225C6.13317 8.03442 6.16117 8.10675 6.25451 8.25375C6.40384 8.49291 6.6395 8.80441 7.00117 9.28158L10.0053 13.2412L10.0462 13.2949C10.2807 13.6029 10.4673 13.8491 10.6038 14.1291C10.7236 14.3756 10.8099 14.6342 10.8628 14.9049C10.9223 15.2094 10.9212 15.5197 10.9212 15.9129V19.3756C10.9212 19.5599 10.9223 19.6637 10.927 19.7419L10.934 19.8142C10.942 19.8452 10.9563 19.8742 10.976 19.8994L11.0238 19.9391C11.0822 19.9858 11.1638 20.0417 11.3132 20.1444L12.411 20.9028V15.9117C12.411 15.5186 12.411 15.2082 12.4705 14.9037C12.5234 14.6339 12.6097 14.3752 12.7295 14.1279C12.866 13.8479 13.0527 13.6029 13.2872 13.2937L13.328 13.2401L16.3322 9.28042C16.6938 8.80208 16.9295 8.49175 17.0788 8.25258C17.1722 8.10558 17.2002 8.03325 17.2072 8.01108C17.2034 7.95293 17.1799 7.8978 17.1407 7.85475C17.0644 7.83444 16.9862 7.82193 16.9073 7.81741C16.6367 7.79175 16.2587 7.79058 15.6707 7.79058H7.66267C7.07467 7.79058 6.69667 7.79058 6.426 7.81741C6.34716 7.82193 6.26899 7.83561 6.19267 7.85591ZM18.375 12.7501C18.375 12.518 18.4672 12.2955 18.6313 12.1314C18.7954 11.9673 19.0179 11.8751 19.25 11.8751H22.75C22.9821 11.8751 23.2046 11.9673 23.3687 12.1314C23.5328 12.2955 23.625 12.518 23.625 12.7501C23.625 12.9821 23.5328 13.2047 23.3687 13.3688C23.2046 13.5329 22.9821 13.6251 22.75 13.6251H19.25C19.0179 13.6251 18.7954 13.5329 18.6313 13.3688C18.4672 13.2047 18.375 12.9821 18.375 12.7501ZM16.625 15.6667C16.625 15.4347 16.7172 15.2121 16.8813 15.048C17.0454 14.8839 17.2679 14.7917 17.5 14.7917H22.75C22.9821 14.7917 23.2046 14.8839 23.3687 15.048C23.5328 15.2121 23.625 15.4347 23.625 15.6667C23.625 15.8988 23.5328 16.1214 23.3687 16.2855C23.2046 16.4496 22.9821 16.5417 22.75 16.5417H17.5C17.2679 16.5417 17.0454 16.4496 16.8813 16.2855C16.7172 16.1214 16.625 15.8988 16.625 15.6667ZM16.0417 18.5834C16.0417 18.3514 16.1339 18.1288 16.298 17.9647C16.462 17.8006 16.6846 17.7084 16.9167 17.7084H22.75C22.9821 17.7084 23.2046 17.8006 23.3687 17.9647C23.5328 18.1288 23.625 18.3514 23.625 18.5834C23.625 18.8155 23.5328 19.038 23.3687 19.2021C23.2046 19.3662 22.9821 19.4584 22.75 19.4584H16.9167C16.6846 19.4584 16.462 19.3662 16.298 19.2021C16.1339 19.038 16.0417 18.8155 16.0417 18.5834ZM16.0417 21.5001C16.0417 21.268 16.1339 21.0455 16.298 20.8814C16.462 20.7173 16.6846 20.6251 16.9167 20.6251H19.8333C20.0654 20.6251 20.288 20.7173 20.4521 20.8814C20.6162 21.0455 20.7083 21.268 20.7083 21.5001C20.7083 21.7321 20.6162 21.9547 20.4521 22.1188C20.288 22.2829 20.0654 22.3751 19.8333 22.3751H16.9167C16.6846 22.3751 16.462 22.2829 16.298 22.1188C16.1339 21.9547 16.0417 21.7321 16.0417 21.5001Z" fill="#175DA8"/>
</g>
</svg>
