<svg width="25" height="25" viewBox="0 0 25 25" fill="none" xmlns="http://www.w3.org/2000/svg">
<g id="ic:baseline-phone-in-talk">
<path id="Vector" d="M20.5 16C19.25 16 18.05 15.8 16.93 15.43C16.7542 15.374 16.5664 15.3667 16.3868 15.409C16.2072 15.4513 16.0424 15.5415 15.91 15.67L13.71 17.87C10.8714 16.4259 8.56406 14.1186 7.12 11.28L9.32 9.07C9.45245 8.94434 9.54632 8.78352 9.5906 8.6064C9.63488 8.42928 9.62773 8.2432 9.57 8.07C9.19132 6.91789 8.9989 5.71274 9 4.5C9 3.95 8.55 3.5 8 3.5H4.5C3.95 3.5 3.5 3.95 3.5 4.5C3.5 13.89 11.11 21.5 20.5 21.5C21.05 21.5 21.5 21.05 21.5 20.5V17C21.5 16.45 21.05 16 20.5 16ZM19.5 12.5H21.5C21.5 10.1131 20.5518 7.82387 18.864 6.13604C17.1761 4.44821 14.8869 3.5 12.5 3.5V5.5C16.37 5.5 19.5 8.63 19.5 12.5ZM15.5 12.5H17.5C17.5 9.74 15.26 7.5 12.5 7.5V9.5C14.16 9.5 15.5 10.84 15.5 12.5Z" fill="#175DA8"/>
</g>
</svg>
