<svg width="16" height="17" viewBox="0 0 16 17" fill="none" xmlns="http://www.w3.org/2000/svg">
<rect width="16" height="17" fill="#1E1E1E"/>
<path d="M-1225 -591C-1225 -592.105 -1224.1 -593 -1223 -593H8205C8206.1 -593 8207 -592.105 8207 -591V2566C8207 2567.1 8206.1 2568 8205 2568H-1223C-1224.1 2568 -1225 2567.1 -1225 2566V-591Z" fill="#888888"/>
<path d="M-1223 -592H8205V-594H-1223V-592ZM8206 -591V2566H8208V-591H8206ZM8205 2567H-1223V2569H8205V2567ZM-1224 2566V-591H-1226V2566H-1224ZM-1223 2567C-1223.55 2567 -1224 2566.55 -1224 2566H-1226C-1226 2567.66 -1224.66 2569 -1223 2569V2567ZM8206 2566C8206 2566.55 8205.55 2567 8205 2567V2569C8206.66 2569 8208 2567.66 8208 2566H8206ZM8205 -592C8205.55 -592 8206 -591.552 8206 -591H8208C8208 -592.657 8206.66 -594 8205 -594V-592ZM-1223 -594C-1224.66 -594 -1226 -592.657 -1226 -591H-1224C-1224 -591.552 -1223.55 -592 -1223 -592V-594Z" fill="white" fill-opacity="0.1"/>
<path d="M-1045 -434C-1045 -435.105 -1044.1 -436 -1043 -436H1348C1349.1 -436 1350 -435.105 1350 -434V2409C1350 2410.1 1349.1 2411 1348 2411H-1043C-1044.1 2411 -1045 2410.1 -1045 2409V-434Z" fill="#444444"/>
<path d="M-1043 -435H1348V-437H-1043V-435ZM1349 -434V2409H1351V-434H1349ZM1348 2410H-1043V2412H1348V2410ZM-1044 2409V-434H-1046V2409H-1044ZM-1043 2410C-1043.55 2410 -1044 2409.55 -1044 2409H-1046C-1046 2410.66 -1044.66 2412 -1043 2412V2410ZM1349 2409C1349 2409.55 1348.55 2410 1348 2410V2412C1349.66 2412 1351 2410.66 1351 2409H1349ZM1348 -435C1348.55 -435 1349 -434.552 1349 -434H1351C1351 -435.657 1349.66 -437 1348 -437V-435ZM-1043 -437C-1044.66 -437 -1046 -435.657 -1046 -434H-1044C-1044 -434.552 -1043.55 -435 -1043 -435V-437Z" fill="white" fill-opacity="0.1"/>
<g clip-path="url(#clip0_803_2)">
<rect width="1440" height="2637" transform="translate(-847 -367)" fill="white"/>
<g filter="url(#filter0_d_803_2)">
<rect x="-323" y="-143" width="806" height="179" rx="16" fill="white"/>
<path d="M8.00098 15.4468C11.9518 15.4468 15.1543 12.2442 15.1543 8.29346C15.1543 4.34268 11.9518 1.14014 8.00098 1.14014C4.0502 1.14014 0.847656 4.34268 0.847656 8.29346C0.847656 12.2442 4.0502 15.4468 8.00098 15.4468ZM9.07397 5.43213C9.3086 5.74401 9.47671 6.10883 9.55682 6.50513H10.8623V7.57812H9.55682C9.43314 8.18403 9.10392 8.72859 8.62487 9.11965C8.14582 9.51071 7.54638 9.72425 6.92798 9.72412H6.79207L9.4531 12.3852L8.69485 13.1434L5.13965 9.58821V8.65112H6.92798C7.2609 8.65122 7.58565 8.54808 7.85751 8.35592C8.12937 8.16375 8.33494 7.892 8.44591 7.57812H5.13965V6.50513H8.44591C8.33494 6.19125 8.12937 5.91951 7.85751 5.72734C7.58565 5.53517 7.2609 5.43203 6.92798 5.43213H5.13965V4.35913H10.8623V5.43213H9.07397Z" fill="#175DA8"/>
</g>
</g>
<defs>
<filter id="filter0_d_803_2" x="-331" y="-150" width="822" height="195" filterUnits="userSpaceOnUse" color-interpolation-filters="sRGB">
<feFlood flood-opacity="0" result="BackgroundImageFix"/>
<feColorMatrix in="SourceAlpha" type="matrix" values="0 0 0 0 0 0 0 0 0 0 0 0 0 0 0 0 0 0 127 0" result="hardAlpha"/>
<feOffset dy="1"/>
<feGaussianBlur stdDeviation="4"/>
<feColorMatrix type="matrix" values="0 0 0 0 0 0 0 0 0 0 0 0 0 0 0 0 0 0 0.15 0"/>
<feBlend mode="normal" in2="BackgroundImageFix" result="effect1_dropShadow_803_2"/>
<feBlend mode="normal" in="SourceGraphic" in2="effect1_dropShadow_803_2" result="shape"/>
</filter>
<clipPath id="clip0_803_2">
<rect width="1440" height="2637" fill="white" transform="translate(-847 -367)"/>
</clipPath>
</defs>
</svg>
