<svg width="24" height="24" viewBox="0 0 24 24" fill="none" xmlns="http://www.w3.org/2000/svg">
<g id="uim:paperclip">
<path id="Vector" d="M8.89179 21.8539C7.65549 21.8541 6.44689 21.4877 5.41887 20.801C4.39085 20.1142 3.58959 19.138 3.11645 17.9958C2.6433 16.8537 2.51953 15.5968 2.76078 14.3843C3.00204 13.1717 3.59748 12.058 4.47179 11.1839L12.4268 3.22892C13.2707 2.385 14.4153 1.91089 15.6088 1.91089C16.8023 1.91089 17.9469 2.385 18.7908 3.22892C19.6347 4.07284 20.1088 5.21743 20.1088 6.41092C20.1088 7.6044 19.6347 8.749 18.7908 9.59292L11.8958 16.4869C11.3719 16.9873 10.6753 17.2665 9.95079 17.2665C9.22631 17.2665 8.5297 16.9873 8.00579 16.4869C7.49067 15.971 7.2015 15.2716 7.20188 14.5425C7.20226 13.8134 7.49214 13.1143 8.00779 12.5989L13.1338 7.47192C13.226 7.37641 13.3364 7.30022 13.4584 7.24781C13.5804 7.19541 13.7116 7.16782 13.8444 7.16667C13.9772 7.16551 14.1089 7.19081 14.2317 7.24109C14.3546 7.29138 14.4663 7.36563 14.5602 7.45952C14.6541 7.55341 14.7283 7.66507 14.7786 7.78796C14.8289 7.91086 14.8542 8.04254 14.853 8.17532C14.8519 8.3081 14.8243 8.43932 14.7719 8.56132C14.7195 8.68332 14.6433 8.79367 14.5478 8.88592L9.42179 14.0129C9.28134 14.1535 9.20245 14.3442 9.20245 14.5429C9.20245 14.7417 9.28134 14.9323 9.42179 15.0729C9.56486 15.2087 9.75457 15.2843 9.95179 15.2843C10.149 15.2843 10.3387 15.2087 10.4818 15.0729L17.3768 8.17892C17.8447 7.70971 18.1075 7.07408 18.1075 6.41142C18.1075 5.74875 17.8447 5.11312 17.3768 4.64392C16.9005 4.18912 16.2673 3.93534 15.6088 3.93534C14.9503 3.93534 14.3171 4.18912 13.8408 4.64392L5.88579 12.5989C5.4836 12.9919 5.16337 13.4607 4.94366 13.9783C4.72396 14.4959 4.60914 15.0519 4.60587 15.6142C4.60259 16.1764 4.71092 16.7338 4.92459 17.2539C5.13825 17.774 5.453 18.2465 5.85059 18.6441C6.24818 19.0417 6.72072 19.3565 7.24083 19.5701C7.76093 19.7838 8.31827 19.8921 8.88054 19.8888C9.44282 19.8856 9.99885 19.7708 10.5164 19.551C11.034 19.3313 11.5029 19.0111 11.8958 18.6089L18.0838 12.4219C18.176 12.3264 18.2864 12.2502 18.4084 12.1978C18.5304 12.1454 18.6616 12.1178 18.7944 12.1167C18.9272 12.1155 19.0589 12.1408 19.1817 12.1911C19.3046 12.2414 19.4163 12.3156 19.5102 12.4095C19.6041 12.5034 19.6783 12.6151 19.7286 12.738C19.7789 12.8609 19.8042 12.9925 19.803 13.1253C19.8019 13.2581 19.7743 13.3893 19.7219 13.5113C19.6695 13.6333 19.5933 13.7437 19.4978 13.8359L13.3108 20.0219C12.7321 20.6048 12.0434 21.067 11.2846 21.3815C10.5259 21.696 9.71216 21.8566 8.89079 21.8539H8.89179Z" fill="white"/>
</g>
</svg>
