<svg width="195" height="188" viewBox="0 0 195 188" fill="none" xmlns="http://www.w3.org/2000/svg">
<g id="2wReT1QCc5HZvbYbV1U3khApljz 1" clip-path="url(#clip0_4839_2928)">
<path id="Vector" d="M-48 -6.20093H243.753V187.969H-48V-6.20093Z" fill="#FDFDFD"/>
<path id="Vector_2" d="M109.126 14.8828H113.684L118.385 15.4526L122.374 16.1649L128.357 17.5895L134.198 19.5839L136.478 20.4387L139.327 21.7208L141.606 22.8604L144.313 24.285L147.447 26.2794L149.441 27.704L151.436 29.271L153.145 30.8381L154.997 32.69L156.422 34.542L157.704 36.8213L158.843 39.3855L159.271 40.8101L159.413 41.9498V47.933L158.843 50.7821L157.276 55.4832L154.427 62.4637L153.003 65.7402L152.718 67.0223H153.43L153.572 67.1648V68.162L152.86 68.3044L150.866 68.4469L151.863 69.1592L152.005 69.5866L151.436 69.8715L151.293 70.1564L154.142 70.4413H155.994L156.137 70.5838V71.581L155.852 71.7234H154.712L154.57 71.4385V71.7234H153.288L153.145 70.7262H152.86V71.7234H152.433V70.7262L152.29 71.7234L151.436 72.0083L151.008 73.2905L150.723 79.701L150.581 79.8435L156.137 80.1284V81.4105L155.994 81.553H152.718L153.003 81.9804V82.6927L152.29 83.4049V83.6899L154.142 83.8323V84.972L153.857 85.1144V85.3994L154.427 85.6843L154.57 86.3966L154.427 86.8239L154.997 86.9664L155.282 88.2485L158.701 91.6675L160.268 93.6619L160.838 94.3742V95.0865L161.693 95.5138V96.796L161.55 97.0809L163.117 97.5083L163.544 97.9356L162.975 98.6479L164.399 98.9328L164.969 100.357L165.681 100.785L166.109 101.782V102.209H168.673L170.81 102.352L170.952 102.637L170.667 103.634L169.243 103.776H167.391L167.818 105.201L168.958 107.765L169.385 108.905L169.813 113.179L173.374 113.464L173.517 113.606V114.746H168.958L169.385 115.6V116.313H169.1V116.598H170.098L170.81 117.025V118.165L169.1 118.307L168.531 119.732L166.821 123.863L165.966 125.857L172.804 126L172.947 126.142V127.139L172.092 127.282H166.251L165.824 126.997V126.142L164.969 126.285L164.542 127.282L162.69 127.424L163.402 128.422L162.405 129.134L164.114 129.276V129.561H164.542V130.558L163.544 130.843L162.975 130.986V131.983L161.977 133.693L161.123 136.257L160.838 137.966V141.243L160.98 143.665L161.408 145.516L162.12 146.371L162.69 147.653L162.832 147.226V141.385L163.117 141.955L163.26 143.665V147.938L164.542 147.084L164.827 146.941L166.679 147.084L166.394 147.938L165.396 149.22L164.542 149.648H162.832L161.835 151.642L160.553 153.067L159.128 154.064L157.561 154.776L155.709 155.346L153.288 155.773L154 156.486L154.997 157.34L156.137 158.908L155.994 159.335L154.427 160.047L154 160.19H152.86L152.575 162.326L154.142 162.042L155.852 161.899H157.846L160.98 162.326L163.829 163.039L167.818 164.463L167.391 165.888L165.539 169.734L163.972 172.299L162.69 174.008L161.408 175.575L159.128 177.854V177.997L160.268 177L161.123 176.715H170.667L192.321 177.427L199.871 177.854L203.433 177.997L204.145 178.139L204.002 178.424L193.176 179.137L182.064 179.564L170.667 179.849L164.257 179.991L142.746 180.276L127.645 180.419H76.3604L50.718 180.276L42.7404 180.134H27.6399L18.5226 179.849L-1.42146 179.421L-7.68959 179.137L-16.6644 178.567L-17.0918 178.424V178.139L-16.3795 177.997L-6.54993 177.427L1.85507 177.142L10.1176 177L10.4025 177.142V173.011L11.1148 167.028L12.3969 155.489L13.5366 144.804L14.3913 137.254L14.9612 131.841H12.112L11.8271 131.698L11.9696 130.701L14.2489 121.869V121.156L12.9668 119.874L11.9696 118.307L11.5422 116.882V111.612L12.112 103.919V101.212L13.2517 99.6451L14.9612 97.2233L16.3857 95.0865L17.2405 93.2345L17.8103 93.377L19.2349 94.2317L20.9444 95.7988L22.0841 96.9384L23.7935 99.6451L24.9332 101.782L26.0729 104.489L27.0701 106.768L26.5002 104.916L26.2153 103.491L25.6455 101.497L25.2181 99.7876L25.0757 98.9328L25.503 99.0753L27.4974 101.355L28.922 104.916L30.9164 110.187L31.2013 110.329L31.4863 109.19L32.0561 108.478L32.7684 107.765L34.193 105.913L35.1902 104.204L36.1874 101.497L36.6147 99.3602L36.7572 97.9356V95.7988L36.4723 93.8044L35.6175 90.5278L34.6203 87.6787L32.1986 82.6927L30.774 79.986L29.9192 78.5614L27.9248 74.8575L26.0729 71.0111L24.5058 67.1648L23.6511 64.3156L23.2237 61.324V58.4749L23.6511 55.7682L24.3634 53.9162L25.3606 52.2067L26.5002 50.7821L27.7824 49.3576L29.6343 47.5056L32.0561 45.6537L34.9052 43.9442L37.327 42.6621L40.3186 41.5224L43.8801 40.5252L48.2963 39.6704L53.4247 39.1006L63.5392 38.2459L69.38 37.5336L72.799 36.9638L76.218 36.109L78.4973 35.2543L79.9219 34.3995L81.204 33.4023L81.7738 32.8325H82.0587V32.5476H82.3436L82.6286 31.9777L84.0531 30.4107L86.0475 27.704L87.757 25.4247L89.3241 23.5727L90.3213 22.4331L91.4609 21.1509L93.8827 19.299L96.447 17.8744L99.8659 16.5923L103.142 15.7376L106.277 15.1677L109.126 14.8828Z" fill="#E5F2FD"/>
<path id="Vector_3" d="M44.5923 44.9414H112.83L116.106 45.0839L117.388 45.3688L119.525 46.6509L120.95 47.7906L122.659 49.5001L123.941 51.352L125.223 53.7738L126.363 56.7654L126.933 59.0447L127.218 61.1816L127.36 63.0335L127.503 69.3017V158.765L132.774 158.908H146.45V162.042L146.307 165.603L145.737 168.452L144.74 170.732L143.458 172.726L142.176 174.15L140.324 176.002L136.762 177.997L135.338 178.139V178.424L102.858 178.567L63.2543 178.424L61.1174 177.569L59.4079 176.715L58.8381 176.572L58.6957 177.427L58.4107 177.997H58.1258L58.2683 176.857L58.4107 176.145L56.5588 174.435L55.2767 173.011L53.9946 171.016L52.7124 168.31L52.1426 166.173L51.7152 163.466V144.804L51.8577 144.377V118.307L52.57 117.595L54.4219 116.17L56.2739 114.888L58.2683 113.464L58.8381 113.748L60.5476 115.6L61.5448 116.74L62.9694 118.022L64.8213 119.447L67.1007 120.871L69.38 122.011L71.9442 123.008L74.0811 123.72L77.9274 124.433L79.0671 124.575H82.9135L85.7626 124.29L89.3241 123.436L92.1732 122.438L94.8799 121.156L96.8743 120.017L99.1536 118.307L100.578 117.025L102.288 115.458L103.57 113.891L104.994 111.896L106.561 109.332L107.701 106.768L108.841 103.349L109.553 99.7876L109.696 98.0781V95.0865L109.553 92.5223L108.698 88.5334L107.701 85.5418L106.419 82.6927L105.137 80.5558L103.285 78.134L102.003 76.7095L101.291 75.8547L99.7235 74.5726L98.014 73.148L95.8771 71.7234L93.1704 70.2989L89.609 69.0167L86.19 68.162L84.338 67.8771L80.6341 67.7346L77.2152 68.0195L73.3688 68.8743L70.3772 69.8715L67.3856 71.2961L64.6789 73.0056L62.3996 74.8575L60.975 76.1396L59.5504 77.7067L58.1258 79.5586L56.8437 81.553L55.2767 84.5446L54.137 87.5362L53.2823 91.0977L52.7124 94.6591L52.4275 94.5167L52.0001 92.0949L51.7152 92.5223H45.732L41.4583 92.2373L39.6063 91.9524L39.0365 91.5251L38.894 90.6703V84.8295L39.3214 78.134L39.4639 76.8519L39.6063 67.4497L39.7488 66.4525L40.0337 67.0223L40.1762 68.5894L40.3186 69.8715L40.4611 65.3129L40.746 61.7514L41.3158 60.0419L41.8857 59.3296L41.3158 59.6145L40.746 60.3268L40.6035 60.6117H40.3186L39.8912 59.757L40.1762 58.0475L40.6035 56.7654L40.4611 56.1956L39.8912 54.771L39.6063 53.4889L39.4639 51.4945V49.785L39.8912 48.5028L40.8885 47.3632L42.0281 46.366L43.1678 45.5112L44.165 45.3688L44.5923 44.9414Z" fill="#FDFDFD"/>
<path id="Vector_4" d="M80.6341 67.5918L84.3381 67.7343L86.7598 68.1616L89.609 68.8739L92.4581 69.8711L95.4497 71.2957L97.5866 72.7203L99.581 74.2873L101.006 75.5694L102.003 76.4242L103 77.5638L104.852 79.9856L106.134 81.98L107.274 84.2593L108.271 86.6811L109.126 89.6727L109.696 92.5219L109.838 95.0861V98.0777L109.553 100.642L108.841 103.776L107.559 107.48L106.419 109.902L104.14 113.321L102.288 115.6L101.148 116.74L100.008 117.737L98.2989 119.161L96.162 120.586L93.4553 122.011L90.6062 123.15L87.1872 124.147L84.7654 124.575L82.9135 124.717H79.0671L74.7934 124.005L72.3716 123.293L69.6649 122.296L67.3856 121.156L65.6761 120.159L63.6817 118.734L62.2571 117.452L61.1175 116.455L59.408 114.603L58.5532 113.606L57.9834 113.891L56.2739 115.03L53.7097 116.882L52.2851 117.879L52.0002 118.307V144.376L51.8577 145.231V163.466L52.4275 166.885L53.1398 169.022L54.7069 172.013L56.2739 174.008L57.6985 175.432L58.5532 176.145L58.1258 177.996H58.4108L58.8381 176.572L59.6929 176.714L62.3996 177.996L63.2543 178.281L105.992 178.424H135.338V178.139L137.047 177.712L140.324 175.86L143.031 173.153L144.313 171.159L145.31 169.164L145.88 167.312L146.165 165.603L146.307 162.041V158.907L143.885 158.765H133.201L133.486 157.483L134.626 154.206L136.05 151.499L137.475 149.362L139.042 147.511L142.033 144.519L144.455 142.667L146.592 141.242L148.729 139.96L150.011 139.533L150.723 141.242L152.005 145.231L152.718 148.365L153.288 151.642L153.43 153.494V154.918L156.564 154.349L157.846 154.064L157.704 152.924V150.645L158.416 149.22L159.698 148.08L160.553 147.653H160.98L161.123 148.793V150.93L160.838 152.069L161.835 150.645L162.975 148.08L163.829 147.511L164.827 146.941L166.679 147.083L166.394 147.938L165.396 149.22L164.542 149.647H162.832L161.835 151.642L160.553 153.066L159.128 154.064L157.561 154.776L155.709 155.346L153.288 155.773L154 156.485L154.997 157.34L156.137 158.907L155.994 159.335L154.427 160.047L154 160.189H152.86L152.575 162.326L154.142 162.041L155.852 161.899H157.846L160.98 162.326L163.829 163.038L167.818 164.463L167.391 165.888L165.539 169.734L163.972 172.298L162.69 174.008L161.408 175.575L159.128 177.854V177.996L160.268 176.999L161.123 176.714H170.667L192.321 177.427L199.871 177.854L203.433 177.996L204.145 178.139L204.002 178.424L193.176 179.136L182.064 179.564L170.667 179.848L164.257 179.991L142.746 180.276L127.645 180.418H76.3604L50.718 180.276L42.7404 180.133H27.6399L18.5226 179.848L-1.42146 179.421L-7.68959 179.136L-16.6644 178.566L-17.0918 178.424V178.139L-16.3795 177.996L-6.54993 177.427L1.85507 177.142L10.1176 176.999L10.4025 177.142V173.01L11.1148 167.027L12.3969 155.488L13.5366 144.804L14.3913 137.254L14.9612 131.84H12.112L11.8271 131.698L11.9696 130.701L14.2489 121.868V121.156L12.9668 119.874L11.9696 118.307L11.5422 116.882V111.611L12.112 103.918V101.212L13.2517 99.6448L14.9612 97.223L16.3857 95.0861L17.2405 93.2342L17.8103 93.3766L19.2349 94.2314L20.9444 95.7984L22.0841 96.9381L23.7935 99.6448L24.9332 101.782L26.0729 104.488L27.0701 106.768L26.5002 104.916L26.2153 103.491L25.6455 101.497L25.2181 99.7872L25.0757 98.9325L25.503 99.0749L27.4974 101.354L28.922 104.916L31.0589 110.614L32.0561 113.036V113.321L32.9108 113.606L35.1902 114.745L38.0393 116.027L40.4611 117.31L40.3186 118.734L39.7488 121.013L39.4639 121.583L33.7656 119.446L28.6371 117.452L28.3522 117.31L28.7796 123.578V126.142L28.6371 127.139L28.2097 126.712L28.0673 126.284L27.355 126.569L25.788 127.709L24.7908 128.421H24.5058L24.7908 128.991L25.788 129.418L27.2125 130.701L27.9248 131.413L29.0645 133.407L29.7768 133.977L30.0617 134.12H31.0589L32.341 133.55L33.4807 132.552L33.7656 131.983L32.7684 130.843L31.9136 129.703L31.4863 129.276L31.7712 128.706L34.0505 126.997L36.6147 125.145L38.6091 123.72L41.0309 122.011L44.7348 119.589L45.1622 119.446L45.4471 120.301L46.5868 120.729L46.3019 118.592L47.2991 118.449L52.4275 114.745L54.8493 113.036L56.8437 111.611H57.1286L56.2739 110.044L54.8493 107.053L53.7097 103.634L52.9974 100.215L52.8549 99.0749V92.9493L53.2823 90.385L54.137 87.1085L55.4191 83.9744L56.8437 81.2677L58.4108 78.9884L59.9778 77.1365L60.975 75.9968L61.9722 74.9996L63.9666 73.4326L65.961 72.008L68.5253 70.5834L70.8046 69.5862L73.7962 68.589L77.2152 67.8767L80.6341 67.5918Z" fill="#E5F2FD"/>
<path id="Vector_5" d="M80.0645 70.7261H82.6287L86.0477 71.1534L88.7544 71.8657L91.3186 72.7205L93.598 73.8601L95.5924 74.9998L97.0169 76.1395L99.0114 77.849L100.436 79.2735L102.003 81.2679L103 82.835L103.855 84.2596L104.852 86.3964L105.849 89.2456L106.562 92.3796L106.704 93.5193V98.9327L106.134 102.209L104.852 106.056L103.428 108.905L102.43 110.472L100.863 112.466L99.2963 114.176L98.0141 115.458L96.0197 117.025L93.8829 118.307L91.4611 119.589L87.8997 120.871L85.9052 121.299L83.9108 121.583H78.6399L75.3634 121.014L71.9444 119.874L69.3802 118.734L66.9584 117.31L64.6791 115.6L62.1148 113.036L60.5478 111.042L59.2657 109.047L57.9835 106.625L56.9863 103.919L56.2741 101.07L55.8467 97.6506V94.0891L56.2741 90.9551L57.1288 87.821L58.4109 84.8294L59.693 82.5501L61.1176 80.5557L62.3997 78.9886L64.1092 77.2791L66.1036 75.7121L67.5282 74.7149L69.6651 73.4328L72.3718 72.2931L75.0785 71.4384L76.6455 71.011L80.0645 70.7261Z" fill="#FBFCFD"/>
<path id="Vector_6" d="M17.2403 93.2344L17.8101 93.3768L19.2347 94.2316L20.9442 95.7986L22.0839 96.9383L23.7934 99.645L24.933 101.782L26.0727 104.489L27.0699 106.768L26.5001 104.916L26.2151 103.491L25.6453 101.497L25.2179 99.7874L25.0755 98.9327L25.5029 99.0751L27.4973 101.354L28.9218 104.916L31.0587 110.614L32.0559 113.036V113.321L32.9107 113.606L35.19 114.745L38.0391 116.028L40.4609 117.31L40.3185 118.734L39.7486 121.014L39.4637 121.583L33.7654 119.447L28.6369 117.452L28.352 117.31L28.7794 123.578V126.142L28.6369 127.139L28.2095 126.712L28.0671 126.285L27.3548 126.569L25.7878 127.709L24.7906 128.421H24.5057L24.7906 128.991L25.7878 129.419L27.2123 130.701L27.0699 131.983L26.3576 135.402L25.0755 141.955L24.5057 145.231L23.7934 148.508L21.2291 161.757L20.5168 165.745L20.2319 167.027L19.3772 171.444V172.583L22.2263 175.432L22.6537 175.575L23.0811 175.432H24.5057L25.0755 176.002L25.2179 176.287V178.139L25.0755 178.282H11.1146L10.5448 177.997L10.4023 176.287V173.011L11.1146 167.027L12.3968 155.488L13.5364 144.804L14.3912 137.254L14.961 131.84H12.1118L11.8269 131.698L11.9694 130.701L14.2487 121.868V121.156L12.9666 119.874L11.9694 118.307L11.542 116.882V111.611L12.1118 103.919V101.212L13.2515 99.645L14.961 97.2232L16.3856 95.0863L17.2403 93.2344Z" fill="#1C6AB3"/>
<path id="Vector_7" d="M71.6591 83.1201H91.4607L92.8853 83.5475L94.1674 84.4022L95.0222 85.6844L95.592 87.1089V107.053L95.1646 108.905L94.1674 110.33L92.7428 111.184L91.4607 111.612H71.0893L69.6647 111.184L68.525 110.33L67.6703 109.332L67.2429 108.335L67.1005 107.623L66.958 97.2234V88.3911L67.2429 86.3966L68.0977 84.6872L69.0949 83.8324L70.5194 83.2626L71.6591 83.1201Z" fill="#FDFDFD"/>
<path id="Vector_8" d="M43.3106 139.391L45.305 140.388L49.1514 142.953L50.576 144.092L51.8581 145.232V163.466L52.4279 166.885L53.1402 169.022L54.7072 172.014L56.2743 174.008L57.6988 175.433L58.5536 176.145L58.1262 177.57L57.8413 178.14L57.5564 178.282H35.1905L33.9084 177.57L32.1989 176.003L30.9168 174.436L29.7771 173.011L28.3526 170.874L26.6431 167.74L25.5034 164.891L25.6459 164.464L27.6403 163.609L30.347 162.754L33.9084 162.042L35.4755 161.899H38.0397L40.319 162.184L40.7464 162.327L40.319 160.902V160.332L38.8944 160.047L37.1849 159.335V158.623L38.3246 157.198L39.6067 156.201L39.7492 155.774L36.6151 155.061L34.7632 154.349L33.1961 153.494L31.7716 152.212L30.7744 150.503L30.4894 149.506L29.0649 149.791L27.9252 149.221L26.928 148.081L26.7855 147.084L27.9252 146.799L29.3498 147.369L29.9196 148.081L30.2045 148.223L30.0621 147.226V145.659H30.2045L30.6319 148.793L31.2017 150.36L32.0565 151.785V152.07H32.3414L32.0565 150.788V149.221L32.3414 147.654L34.0509 148.508L34.7632 149.221L35.4755 150.36L35.7604 151.785L35.4755 153.352V153.922L36.6151 154.349L39.6067 154.919L39.8916 155.061V153.067L40.1766 150.218L41.1738 145.517L42.171 142.24L43.3106 139.391Z" fill="#729361"/>
<path id="Vector_9" d="M149.726 139.533L150.153 139.676L151.863 144.662L152.717 148.366L153.287 151.642L153.43 153.494V154.919L156.564 154.349L157.846 154.064L157.703 152.924V150.645L158.416 149.22L159.698 148.081L160.553 147.653H160.98L161.122 148.793V150.93L160.837 152.069L161.835 150.645L162.974 148.081L163.829 147.511L164.826 146.941L166.678 147.083L166.393 147.938L165.396 149.22L164.541 149.648H162.832L161.835 151.642L160.553 153.067L159.128 154.064L157.561 154.776L155.709 155.346L153.287 155.773L154 156.486L154.997 157.34L156.136 158.907L155.994 159.335L154.427 160.047L154 160.19H152.86L152.575 162.326L154.142 162.042L155.851 161.899H157.846L160.98 162.326L163.829 163.039L167.818 164.463L167.391 165.888L165.539 169.734L163.972 172.298L162.689 174.008L161.407 175.575L159.128 177.854L158.416 178.282H138.614L138.329 178.139L137.189 178.282L136.335 178.139L136.762 177.854L140.324 175.86L143.03 173.153L144.312 171.159L145.31 169.164L145.879 167.312L146.164 165.603L146.307 162.042V158.907L143.885 158.765H133.201L133.486 157.483L134.625 154.206L136.05 151.5L137.474 149.363L139.041 147.511L142.033 144.519L144.455 142.667L146.592 141.243L148.729 139.961L149.726 139.533Z" fill="#FE714F"/>
<path id="Vector_10" d="M80.6337 67.5918L84.3376 67.7343L86.7594 68.1616L89.6086 68.8739L92.4577 69.8711L95.4493 71.2957L97.5862 72.7203L99.5806 74.2873L101.005 75.5694L102.002 76.4242L103 77.5638L104.852 79.9856L106.134 81.98L107.273 84.2593L108.271 86.6811L109.125 89.6727L109.695 92.5219L109.838 95.0861V98.0777L109.553 100.642L108.84 103.776L107.558 107.48L106.419 109.902L104.139 113.321L102.287 115.6L101.148 116.74L100.008 117.737L98.2985 119.161L96.1616 120.586L93.4549 122.011L90.6058 123.15L87.1868 124.147L84.765 124.575L82.9131 124.717H79.0667L74.793 124.005L72.3712 123.293L69.6645 122.296L67.3852 121.156L65.6757 120.159L63.6813 118.734L62.2567 117.452L61.117 116.455L59.4075 114.603L58.5528 113.606L57.983 113.891L56.2735 115.03L48.5808 120.586L48.2958 121.441L45.5891 122.865H45.3042L45.5891 123.72L43.3098 125.43L40.6031 127.282L38.1814 129.134L36.3294 130.416L34.0501 132.125L33.1953 131.413L32.0557 129.846L31.4858 129.276L31.7708 128.706L34.0501 126.997L36.6143 125.145L38.6087 123.72L41.0305 122.011L44.7344 119.589L45.1618 119.446L45.4467 120.301L46.5864 120.729L46.3014 118.592L47.2986 118.449L52.4271 114.745L54.8489 113.036L56.8433 111.611H57.1282L56.2735 110.044L54.8489 107.053L53.7092 103.634L52.9969 100.215L52.8545 99.0749V92.9493L53.2819 90.385L54.1366 87.1085L55.4187 83.9744L56.8433 81.2677L58.4103 78.9884L59.9774 77.1365L60.9746 75.9968L61.9718 74.9996L63.9662 73.4326L65.9606 72.008L68.5248 70.5834L70.8042 69.5862L73.7958 68.589L77.2147 67.8767L80.6337 67.5918ZM80.0639 70.7259L76.6449 71.0108L73.2259 72.008L70.2343 73.1476L67.955 74.4298L66.1031 75.7119L64.6785 76.8515L62.969 78.4186L61.9718 79.4158L60.2623 81.6951L58.6953 84.2593L57.5556 86.6811L56.7008 89.2454L56.131 91.8096L55.8461 94.0889V97.6504L56.2735 101.069L56.9858 103.918L57.983 106.625L59.55 109.617L60.6897 111.184L61.8293 112.608L63.1114 114.033L64.9634 115.885L67.3852 117.594L70.5192 119.304L73.9382 120.586L76.2175 121.156L78.6393 121.583H83.9103L87.3292 121.013L90.7482 119.874L93.4549 118.592L96.0192 117.025L97.5862 115.742L99.0108 114.46L100.435 113.036L102.002 111.041L103 109.617L104.852 106.055L106.134 102.209L106.703 98.9325V93.5191L106.276 90.9549L105.564 88.2482L104.424 85.399L103.142 82.9772L102.145 81.5526L101.005 79.9856L99.2957 78.1337L97.4437 76.4242L95.5918 74.9996L93.3125 73.7175L91.3181 72.7203L88.3264 71.7231L86.0471 71.1532L82.6281 70.7259H80.0639Z" fill="#7D9CC7"/>
<path id="Vector_11" d="M26.9274 130.701H27.2123L27.0699 131.983L26.3576 135.402L25.0755 141.955L24.5057 145.232L23.7934 148.508L21.2291 161.757L20.5168 165.746L20.2319 167.028L19.3772 171.444V172.583L22.2263 175.433L22.6537 175.575L23.0811 175.433H24.5057L25.0755 176.002L25.2179 176.287V178.139L25.0755 178.282H11.1146L10.5448 177.997L10.4023 176.287V173.011L11.1146 167.028L12.3968 155.489L13.5364 144.804L14.3912 137.254L14.8185 133.408L15.1034 131.698L17.0979 131.556H18.6649L23.366 131.983L25.6453 131.698L26.5001 131.128L26.9274 130.701Z" fill="#07223D"/>
<path id="Vector_12" d="M10.4025 176.287H10.545L10.6874 177.997L11.1148 178.139H25.0757L25.2181 176.572L25.6455 176.43H32.1986L32.6259 176.287L33.908 177.427L35.1902 178.139H57.556L57.8409 177.997L58.1258 177.569V177.997H58.4108L58.8381 176.572L59.6929 176.715L62.3996 177.997L63.2543 178.282L105.992 178.424H135.338V178.139L136.335 177.997L137.902 178.139L138.472 177.997L138.614 178.139H158.843L160.268 177L161.123 176.715H170.667L192.321 177.427L199.871 177.854L203.433 177.997L204.145 178.139L204.002 178.424L193.176 179.137L182.064 179.564L170.667 179.849L164.257 179.991L142.746 180.276L127.645 180.419H76.3604L50.718 180.276L42.7404 180.134H27.6399L18.5226 179.849L-1.42146 179.421L-7.68959 179.137L-16.6644 178.567L-17.0918 178.424V178.139L-16.3795 177.997L-6.54993 177.427L1.85507 177.142L10.1176 177L10.4025 177.142V176.287Z" fill="#D5DCE4"/>
<path id="Vector_13" d="M45.0201 156.913L45.8749 157.198L47.5844 158.48L48.5816 159.905L49.0089 161.329L49.4363 164.606L49.8637 169.592V170.447L49.2938 170.304L48.2966 169.164L47.2994 168.31L45.7324 167.597L44.8777 167.312H43.3106L43.1682 167.455V168.595L43.738 171.159L42.3134 170.874L43.8805 171.444L45.1626 173.153L46.4447 174.008L48.0117 174.578L50.1486 174.863L50.7184 175.148L51.8581 177.854V178.282H35.1905L33.9084 177.569L32.1989 176.002L30.9168 174.435L29.7771 173.011L28.3526 170.874L26.6431 167.74L25.5034 164.891L25.6459 164.463L27.6403 163.609L30.347 162.754L33.9084 162.042L35.4755 161.899H38.0397L40.319 162.184L40.7464 162.326L40.319 160.902V160.332L41.6011 160.047L43.0257 159.192L44.1654 157.91L45.0201 156.913Z" fill="#FE714F"/>
<path id="Vector_14" d="M162.833 149.505L164.4 149.648V150.36L165.824 151.784L166.252 152.069V152.354L166.821 152.639L167.819 153.779L171.807 157.768L172.805 158.907L174.657 161.187L176.224 163.751L176.366 165.175V167.74L175.939 169.449L175.226 170.874L173.802 172.868L172.092 174.863L170.668 176.287L170.525 176.715L161.123 176.857L159.983 177.284L158.844 178.282V177.854L159.983 176.857L161.693 175.148L163.118 173.296L164.542 171.159L165.967 168.594L167.534 165.175L167.819 164.463L167.106 164.321L162.833 162.896L159.271 162.184L157.847 162.041H155.852L153.288 162.326H152.576L152.718 160.474L152.861 160.189L154.428 159.905L155.995 159.192L155.71 158.48L154.428 156.913L153.288 156.058V155.773L154.997 155.346L157.134 154.776L158.844 154.064L160.411 153.067L161.408 152.069L162.405 150.36L162.833 149.505Z" fill="#E6F2FD"/>
<path id="Vector_15" d="M80.6341 67.5918L84.338 67.7343L86.7598 68.1616L89.609 68.8739L92.4581 69.8711L95.4497 71.2957L97.5866 72.7203L99.581 74.2873L101.006 75.5694L102.003 76.4242L103 77.5638L104.852 79.9856L106.134 81.98L107.274 84.2593L108.271 86.6811L109.126 89.6727L109.696 92.5219L109.838 95.0861V98.0777L109.553 100.642L108.841 103.776L107.559 107.48L106.419 109.902L104.14 113.321L102.288 115.6L101.148 116.74L100.008 117.737L98.2989 119.161L96.162 120.586L93.4553 122.011L90.6062 123.15L89.609 123.435L89.7514 122.865L91.176 122.011L91.6034 121.583L93.5978 120.586L94.4525 119.874L94.7375 119.019L94.0252 119.304L92.6006 120.016L92.0308 120.159H90.8911L91.0336 119.589L93.4553 118.449L96.0196 116.882L97.5866 115.6L99.0112 114.318L100.293 113.036L101.86 111.041L102.858 109.617L104.709 106.055L105.992 102.209L106.561 98.9325V93.5191L106.134 90.9549L105.422 88.2482L104.282 85.399L103 82.9772L102.003 81.5526L100.863 79.9856L99.1536 78.1337L97.4442 76.5666L95.5922 75.1421L93.3129 73.8599L91.3185 72.8627L88.3269 71.8655L86.0475 71.2957L82.6286 70.8683H80.0643L76.6453 71.1532L73.2263 72.1504L70.2347 73.2901L67.9554 74.5722L66.1035 75.8543L64.6789 76.994L62.9694 78.561L61.5448 80.1281L61.4024 80.413L60.6901 80.2705V79.9856H60.1202L60.2627 78.7035L60.8325 77.7063L59.9778 78.4186V77.9912H59.6929L59.9778 77.4214L60.2627 76.7091L61.9722 74.9996L63.9666 73.4326L65.961 72.008L68.5252 70.5834L70.8046 69.5862L73.7962 68.589L77.2152 67.8767L80.6341 67.5918Z" fill="#7D9CC8"/>
<path id="Vector_16" d="M149.726 139.533L150.153 139.676L151.863 144.662L152.717 148.366L153.287 151.642L153.43 153.494V154.919L156.564 154.349L157.846 154.064L157.703 152.924V150.645L158.416 149.22L159.698 148.081L160.553 147.653H160.98L161.122 148.793V150.93L160.837 152.069L161.835 150.645L162.974 148.081L163.829 147.511L164.826 146.941L166.678 147.083L166.393 147.938L165.396 149.22L164.541 149.648H162.832L161.835 151.642L160.553 153.067L159.128 154.064L157.561 154.776L155.709 155.346L153.287 155.773L154 156.486L154.997 157.34L156.136 158.907L155.994 159.335L154.427 160.047L152.86 160.332L151.863 160.19L150.153 159.335L148.871 157.91L148.301 157.055L147.589 157.198L146.307 158.053L146.022 158.765H133.201L133.486 157.483L134.625 154.206L136.05 151.5L137.474 149.363L139.041 147.511L142.033 144.519L144.455 142.667L146.592 141.243L148.729 139.961L149.726 139.533Z" fill="#EB9747"/>
<path id="Vector_17" d="M71.6591 83.1201H91.4607L92.8853 83.5475L94.1674 84.4022L95.0222 85.6844L95.592 87.1089V107.053L95.1646 108.905L94.1674 110.33L92.7428 111.184L91.4607 111.612H71.0893L69.6647 111.184L68.525 110.33L67.6703 109.332L67.2429 108.335L67.1005 107.623L66.958 97.2234V88.3911L67.2429 86.3966L68.0977 84.6872L69.0949 83.8324L70.5194 83.2626L71.6591 83.1201ZM71.3742 84.9721L70.377 85.257L69.6647 85.8268L68.9524 87.1089V107.48L69.5222 108.62L70.377 109.332L71.0893 109.617H91.6032L92.7428 109.047L93.4551 108.05L93.5976 107.623V86.9665L92.7428 85.6844L91.7456 85.1145L91.0334 84.9721H71.3742Z" fill="#6792CC"/>
<path id="Vector_18" d="M43.3101 139.391L45.3045 140.388L49.1509 142.953L50.5754 144.092L51.8576 145.232V153.922L51.5726 154.919L50.1481 156.771L49.4358 158.48L49.2933 158.908L48.8659 158.765L48.4386 157.911L46.1593 156.628L44.4498 156.059L43.1676 155.774L42.3129 155.489L39.8911 155.061V153.067L40.176 150.218L41.1732 145.517L42.1704 142.24L43.3101 139.391Z" fill="#EA9747"/>
<path id="Vector_19" d="M28.3522 117.31L29.7768 117.737L35.3326 119.874L38.7516 121.156L39.4639 121.441L40.3187 118.165L40.6036 117.452L41.6008 117.88H46.017L46.4443 118.877L46.5868 120.729L45.7321 120.586L45.3047 120.301L45.0198 119.589L42.7404 121.014L40.6036 122.438L32.9109 127.994L31.6287 128.991L31.9137 129.561L32.7684 130.558L33.7656 131.84L33.9081 132.125L32.9109 133.265L31.9137 133.977L31.0589 134.262H30.0617L29.207 133.692L28.6371 132.98L27.4975 130.986L26.3578 129.989L25.3606 129.276L24.6483 128.991L24.5059 128.422L27.2126 126.57L27.7824 126.142L28.2098 126.285L28.4947 126.997L28.6371 126.142V123.578L28.3522 119.304V117.31Z" fill="#E5F2FD"/>
<path id="Vector_20" d="M10.9723 57.6204L11.6845 57.7628L14.1063 60.0421L16.3856 62.4639L16.9555 62.8913V63.1762H17.2404V63.4611H17.5253L18.2376 64.1734L18.665 64.7432L18.38 65.4555L17.9527 65.598L17.6678 66.1678L12.3968 71.4388L11.1147 72.2935L9.97505 71.7237L9.83259 71.2963L9.26276 71.0114L5.70132 67.4499L4.70411 66.3103L3.56445 65.0282L3.84937 64.4583L9.26276 59.0449L10.8298 57.7628L10.9723 57.6204Z" fill="#FAFCFE"/>
<path id="Vector_21" d="M106.561 97.0808H106.704V98.9328L106.134 102.209L104.852 106.056L103.427 108.905L102.858 109.475L102.573 108.477L100.436 108.335L95.4497 108.193L95.5922 97.2233H98.5838L106.561 97.0808Z" fill="#FBFCFD"/>
<path id="Vector_22" d="M83.6257 6.19287L84.1955 6.47779L87.0447 9.32694L88.0419 10.4666L90.7486 13.1733L90.6061 13.7431L85.4776 18.8716L83.9106 20.1537L83.0559 20.0113L78.4972 15.4526L77.3576 14.4554L76.3604 13.6007L76.5028 13.0308L76.7877 12.461L80.2067 9.04202L81.3464 8.04482L82.7709 6.7627L83.6257 6.19287Z" fill="#FDFDFE"/>
<path id="Vector_23" d="M26.0728 80.9832L26.6426 81.1256V83.2625L26.2152 84.6871L25.6454 85.2569L23.9359 85.8267L22.3689 86.1116L20.232 86.2541L19.8046 87.8211L19.9471 89.1032L20.3745 90.6703L21.2292 91.8099L22.084 92.3798H23.9359V94.6591L23.2236 94.3742L21.5141 93.5194L20.3745 92.0949L19.8046 90.9552L19.0923 87.8211L18.665 87.1088L17.9527 86.9664L17.6678 87.8211L18.0951 88.2485L18.9499 88.9608L19.2348 89.6731V90.8127L18.5225 91.9524L18.0951 92.8071L17.3829 92.5222L16.1007 91.525L14.9611 90.2429L14.2488 88.8183L13.9639 87.2513V86.2541L14.3912 84.4021L15.246 82.8351L16.3856 81.8379L17.6678 81.4105L24.0784 81.2681L26.0728 80.9832Z" fill="#070A0C"/>
<path id="Vector_24" d="M89.8938 89.5305L90.891 89.673L91.4608 90.3853L91.6033 91.3825L90.7485 92.5221L89.4664 93.9467L88.1843 95.5137L87.1871 96.5109L85.905 98.078L84.9078 99.0752L83.6256 100.642L82.0586 102.352L81.0614 103.491L80.2067 104.489L79.4944 105.058H78.2122L76.9301 103.776L75.648 102.209L74.7933 101.355V101.07H74.5083L73.2262 99.5026L71.3743 97.5081L70.5195 96.226V95.0864L71.2318 94.3741H72.3715L73.5111 95.3713L74.7933 96.9383L76.9301 99.2176L78.2122 100.785L78.7821 101.497L79.067 101.639L79.3519 101.07L80.9189 99.2176L82.6284 97.3657L83.6256 96.226L84.9078 94.8015L86.6172 92.807L88.0418 91.24L89.039 89.9579L89.8938 89.5305Z" fill="#729361"/>
<path id="Vector_25" d="M46.4439 118.735L47.1562 118.877L48.1534 119.589L48.4383 120.444V121.299L45.5891 122.866H45.3042L45.5891 123.721L43.3098 125.43L40.6031 127.282L38.1814 129.134L36.3294 130.416L34.0501 132.126L33.1953 131.413L32.0557 129.846L31.4858 129.276L31.7708 128.707L34.0501 126.997L36.6143 125.145L38.6087 123.721L41.0305 122.011L44.7344 119.589L45.1618 119.447L45.4467 120.302L46.5864 120.729L46.4439 118.735Z" fill="#3C4854"/>
<path id="Vector_26" d="M136.477 94.9441H143.173L143.885 95.3715V102.779L143.315 103.064H136.62L135.765 102.779V95.6564L136.05 95.0865L136.477 94.9441Z" fill="#F9FBFC"/>
<path id="Vector_27" d="M136.762 125.43H143.03L143.743 125.857L143.885 126.427V132.268L143.743 133.265L143.458 133.55H136.193L135.765 133.122V126.142L136.193 125.572L136.762 125.43Z" fill="#F9FBFD"/>
<path id="Vector_28" d="M136.193 79.7009H143.173L143.743 79.9858L143.885 80.4132V87.3936L143.458 87.6786L139.896 87.821H137.19L136.05 87.6786L135.765 87.2512V80.1283L136.193 79.7009Z" fill="#FAFBFD"/>
<path id="Vector_29" d="M136.193 109.475H143.173L143.743 109.76L143.885 110.329V116.313L143.6 117.31L143.458 117.452H136.05L135.765 117.167V110.044L136.193 109.475Z" fill="#FAFBFD"/>
<path id="Vector_30" d="M10.9729 129.704L11.5428 129.846L12.1126 130.416L11.8277 131.698L14.9617 131.84V131.983L13.6796 132.125L14.2494 132.695V136.114L13.2522 144.662L12.9673 145.801L12.3975 146.941L11.6852 146.799L10.8305 145.801L9.40589 141.528L8.97852 139.248V136.969L9.40589 133.977L10.1182 130.843L10.688 129.989L10.9729 129.704Z" fill="#E5F2FD"/>
<path id="Vector_31" d="M71.6591 83.1201H91.4607L92.8853 83.5475L93.1702 83.6899L93.0278 83.9749L90.606 83.8324L89.3239 83.9749H83.9105L82.0585 83.8324H80.6339L79.7792 83.6899L77.3574 83.8324L74.5083 83.6899L71.0893 83.8324L69.8072 84.1173L69.0949 84.5447L68.81 85.5419H69.3798V85.257L70.8044 84.8296L72.0865 84.6872V84.9721L70.5194 85.257L69.8072 85.8268L69.0949 87.1089V107.48L69.6647 108.62L70.377 109.19L70.8044 109.617L69.8072 109.475L69.2373 108.905L67.8128 108.478L67.9552 109.047L68.3826 109.19V109.475L69.5222 110.472L69.6647 110.899L68.9524 110.757L67.8128 109.617L67.2429 108.335L67.1005 107.623L66.958 97.2234V88.3911L67.2429 86.3966L68.0977 84.6872L69.0949 83.8324L70.5194 83.2626L71.6591 83.1201Z" fill="#5390D7"/>
<path id="Vector_32" d="M95.4493 87.1089H95.5917V107.053L95.1644 108.905L94.1672 110.329L92.7426 111.184L91.4605 111.612H71.089L69.6644 111.184L69.3795 110.899V110.472L68.6672 109.76L68.2399 109.475L68.3823 109.19L67.8125 109.047V108.478H68.5248L69.3795 108.905L69.8069 109.332L71.089 109.475H91.6029L92.7426 109.19L93.5973 108.05L93.8823 106.626L94.4521 103.207L94.737 102.352H95.0219V102.637L95.3068 102.494L95.4493 87.1089Z" fill="#6994CC"/>
<path id="Vector_33" d="M171.665 83.6899H173.375L173.517 83.8324V84.8296V85.1145L174.799 85.5419L175.939 86.5391L176.794 87.9637V89.8156L176.081 91.2402L175.369 91.9525L174.657 92.5223L173.232 93.0921H171.523L170.241 92.5223L169.243 91.6676L168.531 90.243L168.389 89.5307V88.1061L168.674 86.5391L169.813 85.5419L170.668 85.1145L168.959 84.9721L168.816 84.8296V83.8324L171.665 83.6899Z" fill="#E5F2FD"/>
<path id="Vector_34" d="M164.826 146.941L166.678 147.083L166.393 147.938L165.396 149.22L164.541 149.648H162.832L161.835 151.642L160.552 153.067L159.128 154.064L157.561 154.776L155.709 155.346L153.287 155.773L153.999 156.486L154.997 157.34L156.136 158.907L155.994 159.335L154.427 160.047L152.86 160.332L151.863 160.189L150.153 159.335L148.871 157.91L148.301 157.055L147.589 157.198L146.307 158.053L146.022 158.765H145.025L144.597 158.622L144.74 157.768L146.734 156.628L149.013 155.773L150.723 155.346L155.994 154.491L157.846 154.064L157.703 152.924V150.645L158.416 149.22L159.698 148.081L160.552 147.653H160.98L161.122 148.793V150.93L160.837 152.069L161.835 150.645L162.974 148.081L163.829 147.511L164.826 146.941Z" fill="#97C561"/>
<path id="Vector_35" d="M60.1203 76.9944V77.4218L59.6929 77.9916H59.9779L60.1203 78.2765L60.5477 77.7067H60.8326L60.6902 78.2765L60.2628 79.2737L60.1203 79.986L60.9751 79.8435L60.8326 80.1285L61.26 80.5558L59.8354 82.5502L58.5533 84.8296L57.5561 87.1089L56.8438 89.2457L56.274 91.81L55.989 94.0893L55.8466 97.7932L55.4192 98.363L54.9918 97.0809V98.2206L54.7069 98.5055L54.1371 98.363L53.8522 95.6563V92.9496L53.4248 93.0921L52.9974 94.6591H52.855V92.9496L53.2824 90.3854L54.1371 87.1089L55.4192 83.9748L56.8438 81.2681L58.4108 78.9888L59.9779 77.1368L60.1203 76.9944Z" fill="#829EBB"/>
<path id="Vector_36" d="M30.0617 145.659H30.2041L30.6315 148.793L31.2013 150.36L32.0561 151.784V152.069H32.341L32.0561 150.787V149.22L32.341 147.653L34.0505 148.508L34.7628 149.22L35.4751 150.36L35.76 151.784L35.4751 153.351V153.921L36.6147 154.349L40.3186 155.061L42.8829 155.488L43.5952 155.773V156.201L44.3074 156.343L45.1622 156.77L44.3074 157.91L43.0253 159.335L41.6008 160.189L41.1734 160.332H40.0337L38.1818 159.762L37.1846 159.335V158.622L38.3242 157.198L39.6063 156.201L39.7488 155.773L36.6147 155.061L34.7628 154.349L33.1958 153.494L31.7712 152.212L30.774 150.502L30.4891 149.505L29.0645 149.79L27.9248 149.22L26.9276 148.08L26.7852 147.083L27.9248 146.798L29.3494 147.368L29.9192 148.08L30.2041 148.223L30.0617 147.226V145.659Z" fill="#97C561"/>
<path id="Vector_37" d="M167.819 48.9302H169.101L170.525 49.5L171.807 50.7821L172.377 51.9218L172.52 52.4916V53.7737L171.95 55.0559L171.095 56.1955L169.956 57.0503L169.528 57.1927H167.534L166.109 56.6229L164.969 55.6257L164.257 54.3436L164.115 53.7737V52.6341L164.685 51.067L165.539 49.9274L167.249 49.0726L167.819 48.9302Z" fill="#E6F3FE"/>
<path id="Vector_38" d="M100.72 1.63428H102.572L103.854 2.20411L104.994 3.20131L105.564 4.34097L105.849 5.48063L105.706 6.76275H105.421L105.279 7.33258L104.424 8.47224L103.284 9.32699L102.43 9.61191H100.435L99.2955 9.04208L98.7257 8.47224V8.18733H98.4408L97.7285 6.6203V4.48343L98.4408 3.20131L99.0106 2.48902L100.008 1.91919L100.72 1.63428Z" fill="#E4F2FE"/>
<path id="Vector_39" d="M67.2434 74.8577L67.5283 75.0001L67.2434 75.4275L69.0953 75.57H72.5143L73.2266 75.9973V76.2822L75.6484 76.1398L75.3635 77.4219L74.7936 77.7068H71.3746L69.5227 78.4191L67.5283 79.4163L65.9612 80.4135L65.6763 80.9833H66.1037L66.2462 81.2683V82.8353L65.1065 83.1202L62.5423 83.2627L60.9752 83.1202L60.2629 82.5504V82.2655L59.978 82.123L61.6875 79.8437L62.9696 78.4191L64.1093 77.2794L66.1037 75.7124L67.2434 74.8577Z" fill="#E5F2FD"/>
<path id="Vector_40" d="M45.02 156.913L45.8747 157.198L47.5842 158.48L48.5814 159.905L49.0088 161.329L49.4361 164.606L49.8635 169.592V170.447L49.2937 170.304L49.4361 170.019L49.5786 169.877L49.2937 167.597L48.8663 166.885L47.2993 165.461L45.3049 164.036L42.5982 162.754L40.7462 162.326L40.3188 160.902V160.332L41.601 160.047L43.0255 159.192L44.1652 157.91L45.02 156.913Z" fill="#EB9847"/>
<path id="Vector_41" d="M149.725 167.17L150.295 167.312L150.153 168.737L149.441 171.444L148.586 172.726L147.161 174.008L145.737 174.578L144.312 174.863L142.888 175.005L141.463 177.997L141.178 178.282H138.614L138.329 178.139L137.189 178.282L136.334 178.139L136.762 177.854L140.323 175.86L143.03 173.153L144.312 171.159L145.309 169.164L145.737 168.025L148.728 167.312L149.725 167.17Z" fill="#98C660"/>
<path id="Vector_42" d="M52.7127 99.2178L52.9976 99.7876L53.9948 104.204L54.992 107.053L56.559 110.329L57.1288 111.184V111.612L55.4194 112.751L52.8551 114.603L52.4277 114.888H52.0004L51.8579 114.318L52.0004 102.922L52.2853 100.357L52.7127 99.2178Z" fill="#FCFCFD"/>
<path id="Vector_43" d="M43.3101 167.17H44.8771L46.7291 167.882L48.0112 168.737L49.2933 170.019L49.8631 171.016L50.5754 174.15V175.005L48.0112 174.72L46.1592 174.008L44.8771 173.011L43.8799 171.586L41.6006 170.731L42.028 170.589L43.595 171.016L43.0252 168.594V167.455L43.3101 167.17Z" fill="#96C560"/>
<path id="Vector_44" d="M68.3825 81.1257H72.7986V82.1229L72.6562 82.8352L78.4969 82.9777V81.2682L79.6366 81.1257H91.4606V83.1201L70.8042 83.2626L70.5193 83.1201L68.6674 82.9777L68.0975 82.6928L67.9551 82.4079V81.5531L68.3825 81.1257Z" fill="#BBDCFE"/>
<path id="Vector_45" d="M106.135 93.8044H106.562L106.704 94.8016V97.081L106.562 97.2234L98.5844 97.3659H95.7352L95.5928 97.2234V94.2318L95.7352 94.0894L105.707 93.9469L106.135 93.8044Z" fill="#FBFCFE"/>
<path id="Vector_46" d="M108.555 97.2236L108.84 97.651V99.218V99.6454H109.125L109.553 100.215L109.268 101.925L108.698 104.204L107.558 107.481L106.988 108.62L106.276 108.478L105.991 109.19L105.421 109.475L105.279 109.902L103.854 110.9L103.284 111.612L102.715 111.897L102.43 111.612L103 110.472L102.572 110.33L102.857 109.617L104.709 106.056L105.991 102.21L106.276 100.785L106.703 100.643L106.846 100.785L107.416 99.218L107.843 98.9331L108.27 98.2208V97.5085L108.555 97.2236Z" fill="#829EBB"/>
<path id="Vector_47" d="M27.7824 126.142L28.2098 126.285L28.922 127.709L30.4891 128.707L31.3438 129.276L32.0561 129.704L33.1958 131.128L33.9081 132.126L32.9109 133.265L31.9137 133.978L31.0589 134.262H30.0617L29.207 133.693L28.6371 132.98L27.4975 130.986L26.3578 129.989L25.3606 129.276L24.6483 128.991L24.5059 128.422L27.2126 126.57L27.7824 126.142Z" fill="#EEE1D5"/>
<path id="Vector_48" d="M147.874 156.913L148.444 157.056L149.726 158.765L150.866 159.62L152.291 160.19L152.86 160.475L152.576 162.326L149.726 163.324L148.017 164.178L146.592 165.033L146.307 165.176V158.907L146.022 158.765L146.165 158.053L147.589 157.056L147.874 156.913Z" fill="#EB9847"/>
<path id="Vector_49" d="M23.2236 85.8264L25.218 85.9689L25.3604 86.2538V88.1057L24.7906 90.9549L24.2208 92.0946L24.0783 93.2342H23.9358V92.3795L22.0839 92.5219L20.8018 91.5247L20.0895 90.3851L19.6621 88.6756V87.8208L20.0895 86.2538L20.2319 86.1113L23.2236 85.8264Z" fill="#EFE2D5"/>
<path id="Vector_50" d="M77.6428 149.79H91.4612V151.642H75.6484V149.933L77.6428 149.79Z" fill="#BBDCFE"/>
<path id="Vector_51" d="M78.7825 129.561H91.3188L91.4612 129.703V131.128L91.3188 131.271L90.1791 131.413H76.5032L75.6484 131.271V129.846L75.7909 129.703L78.7825 129.561Z" fill="#BBDCFE"/>
<path id="Vector_52" d="M110.123 81.1257H124.368L124.511 81.2682L124.653 82.8352L119.667 82.9777H111.262L108.983 82.8352L108.556 82.1229L108.841 81.2682L110.123 81.1257Z" fill="#BBDCFD"/>
<path id="Vector_53" d="M110.55 124.005H124.511V125.715L119.668 125.857H111.832L108.983 125.715L108.841 125.572V124.29L108.983 124.148L110.55 124.005Z" fill="#BBDCFE"/>
<path id="Vector_54" d="M123.799 144.092H124.511L124.653 145.802L124.511 145.944H108.841L108.698 145.802V144.377L108.841 144.234L123.799 144.092Z" fill="#BBDCFE"/>
<path id="Vector_55" d="M93.4556 66.1675H109.268V67.7345L108.556 67.877H93.598L93.4556 67.7345V66.1675Z" fill="#BBDCFE"/>
<path id="Vector_56" d="M108.983 134.405H124.511V136.114H108.983L108.841 135.972V134.547L108.983 134.405Z" fill="#BBDCFE"/>
<path id="Vector_57" d="M75.7909 140.103H91.3188V141.67L90.1791 141.813H76.0758L75.6484 141.528V140.388L75.7909 140.103Z" fill="#BBDCFE"/>
<path id="Vector_58" d="M63.5389 61.1816H76.0751V62.8911H60.5472L60.4048 62.7487V61.3241L63.5389 61.1816Z" fill="#BCDCFC"/>
<path id="Vector_59" d="M108.983 102.637H113.969L124.511 102.779V104.346L118.1 104.489H110.265L108.983 104.346L108.698 104.204L108.983 102.637Z" fill="#BBDCFD"/>
<path id="Vector_60" d="M39.8913 155.631H42.0281L43.5952 155.916V156.201L44.3075 156.343L45.1622 156.771L44.3075 157.91L43.0253 159.335L41.6008 160.19L41.1734 160.332H40.0337L38.1818 159.762L37.1846 159.335V158.622L38.3242 157.198L39.6064 156.201L39.8913 155.631Z" fill="#97C661"/>
<path id="Vector_61" d="M151.293 155.773H153.003L154.712 157.056L155.994 158.623L156.137 159.192L154.427 160.047L152.86 160.332L151.863 160.19L150.154 159.335L148.871 157.91L148.159 156.771L150.011 156.058L151.293 155.773Z" fill="#97C661"/>
<path id="Vector_62" d="M94.1669 119.02H94.7367L94.5942 119.874L93.597 120.729L91.6026 121.726H91.3177L91.0328 122.296L89.8931 123.008L89.6082 123.151V123.436L87.1864 124.148L85.7619 124.433H84.7647L84.1948 124.006L84.3373 123.293V122.866L84.7647 122.723L84.6222 122.296L86.1892 121.869L87.6138 121.156L87.8987 120.729L90.7479 119.732L91.1752 119.874H90.8903V120.159L92.5998 119.874L94.0244 119.162L94.1669 119.02Z" fill="#829EBB"/>
<path id="Vector_63" d="M66.2458 113.606H76.0753V115.031L75.648 115.315L74.2234 115.458H65.2486L64.1089 115.031L62.9692 113.891V113.748L66.2458 113.606Z" fill="#BBDCFD"/>
<path id="Vector_64" d="M78.6395 144.234H91.3183V145.944H78.782L78.4971 145.374V144.377L78.6395 144.234Z" fill="#BBDCFE"/>
<path id="Vector_65" d="M78.7821 134.405H91.1759L91.4608 134.832V135.687L91.0335 136.114H78.7821L78.6396 135.972V134.547L78.7821 134.405Z" fill="#BBDCFD"/>
<path id="Vector_66" d="M95.0222 61.1816H106.419V62.7487L106.134 62.8911H93.5977V61.3241L95.0222 61.1816Z" fill="#BBDCFE"/>
<path id="Vector_67" d="M17.2401 93.2344L17.81 93.3768L19.2345 94.2316L20.944 95.7986L22.0837 96.9383L23.7932 99.645L24.9328 101.782L26.0725 104.489L27.0697 106.91L26.6423 106.768L25.5027 104.916L24.9328 104.061V103.776L24.5055 103.634L23.3658 101.782L22.0837 99.645L20.5166 97.793L18.2373 95.6562L17.3826 94.9439H16.5278L17.2401 93.2344Z" fill="#3A4754"/>
<path id="Vector_68" d="M52.5698 168.025L52.9972 168.595L54.2793 171.301L55.5614 173.153L55.8464 173.438L55.7039 174.151L54.7067 175.29L53.567 176.572L53.7095 177.142L53.1397 177L52.2849 175.29L51.5726 172.584L51.4302 171.444V170.162L52 169.307L52.2849 168.167L52.5698 168.025Z" fill="#98C661"/>
<path id="Vector_69" d="M99.011 118.449L99.1535 118.734L101.433 118.592H108.983L109.268 118.877V120.301L105.991 120.444H99.8658L97.0166 120.301V119.874L99.011 118.449Z" fill="#BBDCFE"/>
<path id="Vector_70" d="M106.562 97.0808H106.704V98.9328L104.283 99.0752H95.7352V99.7875H95.5928V97.2233H98.5844L106.562 97.0808Z" fill="#BBDCFD"/>
<path id="Vector_71" d="M106.277 91.5249H106.42L106.704 93.5193V94.8014H106.562V93.8042L105.707 94.0891L95.5928 94.2316V92.2372H106.277V91.5249Z" fill="#BBDCFD"/>
<path id="Vector_72" d="M101.006 3.34375L102.858 3.48621L103.712 4.1985L104.282 5.1957L104.425 6.05045L103.997 7.04765L102.858 8.04485L102.145 8.32977L101.006 8.18731L99.7235 7.19011L99.1537 6.33536L99.0112 5.48061L99.4386 4.48341L100.151 3.77112L101.006 3.34375Z" fill="#FEFEFE"/>
<path id="Vector_73" d="M88.327 123.72L91.3186 124.005L91.4611 124.148V125.43L91.3186 125.715L89.7516 125.857H80.9192L78.6399 125.715L78.355 124.575H82.9136L85.7628 124.29L88.327 123.72Z" fill="#BBDCFE"/>
<path id="Vector_74" d="M20.6594 164.748H20.8019V168.167L21.2293 168.88L21.6566 170.162L22.6538 172.299L23.0812 173.581V174.578L23.6511 174.863V175.433L22.5114 175.718L21.3717 174.72L19.2349 172.583V171.444L20.0896 167.028L20.517 165.033L20.6594 164.748Z" fill="#FCFCFD"/>
<path id="Vector_75" d="M167.676 50.6396L169.385 50.7821L170.097 51.4944L170.525 52.3491V53.6313L170.097 54.6285L169.243 55.3408L168.815 55.4832H167.818L166.394 54.7709L165.824 53.6313V52.4916L166.251 51.6369L167.248 50.7821L167.676 50.6396Z" fill="#FEFEFE"/>
<path id="Vector_76" d="M94.5947 70.8684H106.419V72.5779H97.159L94.8796 71.1533L94.5947 70.8684Z" fill="#BCDCFD"/>
<path id="Vector_77" d="M136.62 108.905H142.888L143.743 109.19L144.17 109.617L144.313 109.902V117.025L143.885 117.737L143.458 118.022L142.603 118.165H138.187L136.335 118.022L135.48 117.452L135.195 116.882V110.044L135.48 109.332L136.62 108.905ZM136.193 109.475L135.765 110.044V117.167L136.05 117.452H143.458L143.743 117.167L143.885 116.313V110.329L143.6 109.617L143.173 109.475H136.193Z" fill="#3179C1"/>
<path id="Vector_78" d="M115.963 86.824H124.368L124.653 87.3938L124.511 88.2486L124.083 88.5335L123.371 88.6759H115.821L114.824 88.5335V86.9664L115.963 86.824Z" fill="#BBDCFD"/>
<path id="Vector_79" d="M116.961 149.79H124.226L124.653 150.36V151.072L124.226 151.5L123.656 151.642H115.109L114.824 151.5V150.503L114.966 149.933L116.961 149.79Z" fill="#BBDCFE"/>
<path id="Vector_80" d="M172.234 86.5391L173.516 86.6815L174.656 87.6787L174.941 88.5335L174.798 89.8156L174.228 90.5279L173.231 91.0977H171.664L170.525 90.3854L170.097 89.3882L170.24 87.9636L170.667 87.2514L171.664 86.6815L172.234 86.5391Z" fill="#FEFEFE"/>
<path id="Vector_81" d="M68.24 66.0251H69.9494L70.0919 66.1676V67.8771H60.5472L60.4048 67.7346V66.3101L61.1171 66.1676L68.24 66.0251Z" fill="#BBDCFD"/>
<path id="Vector_82" d="M114.966 108.335H124.511V110.044H115.109L114.824 109.617V108.477L114.966 108.335Z" fill="#BBDCFD"/>
<path id="Vector_83" d="M54.4218 113.321L54.7068 113.464L54.2794 114.034L55.5615 113.321L56.1313 113.606L56.2738 114.176L54.7068 115.173L53.7096 115.886L52.8548 116.883L51.7151 117.595L51.2878 118.165L50.7179 118.307L49.1509 119.162H48.7235L48.4386 119.732V120.444L48.1537 119.874L47.5839 119.305L47.014 118.877H46.3018V118.592L47.299 118.45L52.4274 114.746L54.4218 113.321Z" fill="#829DB9"/>
<path id="Vector_84" d="M117.958 129.561H124.369L124.511 129.703V131.271L119.81 131.413H115.536L114.966 131.128V129.703L117.958 129.561Z" fill="#BBDCFE"/>
<path id="Vector_85" d="M136.477 125.002H143.03L144.028 125.43L144.313 125.857V133.123L143.6 133.977L143.173 134.12H136.762L135.765 133.835L135.338 133.407L135.195 132.695V126.285L135.623 125.287L136.477 125.002ZM136.762 125.43L136.05 125.715L135.765 126.142V133.123L136.193 133.55H143.458L143.743 133.265L143.885 132.268V126.427L143.6 125.715L143.03 125.43H136.762Z" fill="#3379C1"/>
<path id="Vector_86" d="M137.047 79.1311H141.463L143.458 79.2736L144.17 79.8434L144.313 80.4132V87.2512L143.885 87.9635L143.315 88.2484H136.477L135.623 87.821L135.195 87.2512V80.4132L135.623 79.5585L136.193 79.2736L137.047 79.1311ZM136.193 79.7009L135.765 80.1283V87.2512L136.05 87.6786L137.19 87.821H139.896L143.458 87.6786L143.885 87.3936V80.4132L143.6 79.8434L143.173 79.7009H136.193Z" fill="#377CC2"/>
<path id="Vector_87" d="M114.966 140.103H124.511V141.67L122.801 141.813H115.251L114.966 141.67V140.103Z" fill="#BBDCFE"/>
<path id="Vector_88" d="M68.0974 149.79H74.3656V151.5L74.0807 151.642H65.6757L65.5332 151.5V149.933L68.0974 149.79Z" fill="#BBDCFD"/>
<path id="Vector_89" d="M78.0703 113.606H86.1904V115.315L84.3385 115.458H77.9279L77.5005 115.173V113.748L78.0703 113.606Z" fill="#BBDCFE"/>
<path id="Vector_90" d="M112.972 97.2236H116.391L119.383 97.3661V98.9331L119.098 99.0756H110.693L110.55 98.9331V97.3661L112.972 97.2236Z" fill="#BBDCFE"/>
<path id="Vector_91" d="M98.8687 124.005H107.416V125.715L106.846 125.857H101.006L98.8687 125.715V124.005Z" fill="#BBDCFE"/>
<path id="Vector_92" d="M112.259 118.592H119.382V120.302L119.24 120.444H113.969L110.692 120.302V118.734L112.259 118.592Z" fill="#BBDCFE"/>
<path id="Vector_93" d="M67.8126 129.561H74.2232V131.271L74.0808 131.413H66.8154L65.6758 131.271V129.703L67.8126 129.561Z" fill="#BBDCFE"/>
<path id="Vector_94" d="M96.8742 149.79H102.715V151.5L102.572 151.642H94.5949L94.3099 151.5L94.1675 149.933L96.8742 149.79Z" fill="#BBDCFD"/>
<path id="Vector_95" d="M136.335 94.5166H143.173L144.17 94.944L144.313 95.3713V102.779L143.458 103.491H136.335L135.338 103.064L135.195 102.779V95.3713L135.48 94.8015L136.335 94.5166ZM136.477 94.944L135.908 95.2289L135.765 95.6563V102.779L136.62 103.064H143.315L143.885 102.779V95.3713L143.173 94.944H136.477Z" fill="#256FB6"/>
<path id="Vector_96" d="M110.693 75.8547H119.24L119.383 76.2821V77.4218L119.24 77.5642H110.693L110.408 76.9944L110.55 75.9972L110.693 75.8547Z" fill="#BBDCFE"/>
<path id="Vector_97" d="M98.7266 144.234H107.416L107.559 144.519V145.801L107.416 145.944H98.869L98.7266 145.801V144.234Z" fill="#BBDCFE"/>
<path id="Vector_98" d="M85.4777 66.0251H90.8911V67.5922L89.4665 67.8771L85.4777 68.0196L84.338 67.8771L81.6313 67.7346V67.5922L82.6286 67.4497L82.2012 67.3073V66.3101L82.6286 66.1676L85.4777 66.0251Z" fill="#BBDCFE"/>
<path id="Vector_99" d="M80.0645 70.7261H82.6287L86.0477 71.1534L86.76 71.2959L86.1902 71.4384V72.578H77.7852L77.3578 72.0082L77.2153 71.2959L76.6455 71.011L80.0645 70.7261Z" fill="#BBDCFD"/>
<path id="Vector_100" d="M24.7903 176.287H25.2177V178.139L25.0752 178.282H11.1144L10.687 178.139V177.142L10.9719 177.427L21.3713 177.142L23.6507 176.857L24.6479 176.715L24.7903 176.287Z" fill="#101518"/>
<path id="Vector_101" d="M110.835 66.1675H119.382V67.7345L119.24 67.877H110.835L110.692 67.7345V66.3099L110.835 66.1675Z" fill="#BBDCFE"/>
<path id="Vector_102" d="M98.869 134.405H107.416L107.559 135.544L107.416 136.114H98.869L98.7266 135.402L98.869 134.405Z" fill="#BBDCFE"/>
<path id="Vector_103" d="M82.4858 118.592H90.321L90.8908 118.877L90.7484 119.874L89.1814 120.444H85.9048L82.4858 120.302L81.916 119.874L82.2009 118.734L82.4858 118.592Z" fill="#BBDCFD"/>
<path id="Vector_104" d="M65.6758 140.103H74.2232L74.3657 140.53V141.67L74.0808 141.813H65.9607L65.6758 141.528V140.103Z" fill="#BBDCFE"/>
<path id="Vector_105" d="M95.3073 107.908L95.4497 108.193H100.436L102.573 108.335L103 109.617L102.573 110.045L99.1536 110.187H95.0223L94.8799 109.617L95.0223 108.905L95.3073 107.908Z" fill="#BBDCFE"/>
<path id="Vector_106" d="M77.6429 61.1816H86.0479V62.8911H77.6429L77.5005 62.7487V61.3241L77.6429 61.1816Z" fill="#BBDCFE"/>
<path id="Vector_107" d="M55.8466 173.723L56.8438 174.578L58.5533 176.145L58.1259 177.57L57.841 178.139L57.5561 178.282H54.7069L53.9946 177.57L53.4248 176.857L53.7097 176.287L55.2768 174.578L55.8466 173.723Z" fill="#EB9747"/>
<path id="Vector_108" d="M94.3099 129.704H102.572L102.715 129.989V131.128L102.003 131.413H94.7373L94.1675 131.271V129.846L94.3099 129.704Z" fill="#BBDCFE"/>
<path id="Vector_109" d="M94.1675 140.103H102.572L102.715 140.388V141.67L102.288 141.813H95.7345L94.1675 141.67V140.103Z" fill="#BBDCFD"/>
<path id="Vector_110" d="M17.9523 86.824L18.6646 86.9664L19.0919 87.3938L19.5193 88.9608L20.0891 91.2402L20.8014 92.5223L21.5137 93.2346V93.5195L22.226 93.6619L22.3685 93.9469H22.0835L21.7986 94.5167H20.9439L21.5137 95.0865L22.5109 95.9413L22.6534 96.5111L21.9411 96.3686L20.5165 95.0865L18.5221 93.5195L18.2372 92.9497L17.9523 92.8072L18.9495 90.9552L19.0919 90.8128V89.6731L18.6646 88.8184L17.6674 88.1061L17.5249 87.5363L17.9523 86.824Z" fill="#EDE0D2"/>
<path id="Vector_111" d="M51.7151 154.491H51.8576V157.91L51.7151 161.899L50.1481 162.327L49.1509 159.193L49.5783 157.626L50.433 156.201L51.7151 154.491Z" fill="#98C761"/>
<path id="Vector_112" d="M84.4809 75.7124H86.4753L88.4697 76.1398L90.749 76.9945V77.4219L90.4641 77.5644H82.4865L82.0591 76.9945V76.2822L82.4865 75.8549L84.4809 75.7124Z" fill="#BBDCFE"/>
<path id="Vector_113" d="M140.466 154.349L141.321 154.491L142.318 155.631L143.458 157.483L143.885 158.765H139.754V155.773L140.181 154.634L140.466 154.349Z" fill="#98C761"/>
<path id="Vector_114" d="M95.4497 86.824H102.573L102.715 87.2513V88.5335L99.4385 88.6759H95.5922L95.4497 86.824Z" fill="#BBDCFE"/>
<path id="Vector_115" d="M43.1682 117.88H46.0174L46.4448 118.877L46.5872 120.729L45.7325 120.587L45.3051 120.302L45.0202 119.589L42.7409 121.014L41.7437 121.726L41.1738 121.584L41.3163 120.587L42.0286 118.022L43.1682 117.88Z" fill="#EFE3D6"/>
<path id="Vector_116" d="M108.698 75.7124L109.41 75.8549V76.8521L109.125 77.5644H102.857L102.287 76.8521L101.86 75.9973L102.287 75.8549L108.698 75.7124Z" fill="#BBDCFD"/>
<path id="Vector_117" d="M62.1142 92.2373H66.9577V94.0893H60.9745L60.2622 93.5194V92.6647L60.5471 92.3798L62.1142 92.2373Z" fill="#BBDCFE"/>
<path id="Vector_118" d="M64.3935 97.2236H66.9577L67.1002 98.3633L66.9577 99.0756H60.6896L60.2622 98.7907V97.7935L60.4047 97.3661L64.3935 97.2236Z" fill="#BBDCFE"/>
<path id="Vector_119" d="M100.579 102.637H105.849L105.565 104.061L105.28 104.489L98.869 104.346L98.7266 104.204V103.064L98.869 102.779L100.579 102.637Z" fill="#BBDCFE"/>
<path id="Vector_120" d="M150.723 95.3713H154.427L156.137 95.5138V96.7959H147.589V95.5138L150.723 95.3713Z" fill="#5591D8"/>
<path id="Vector_121" d="M147.589 80.1284H156.137V81.4105H147.874L147.447 81.2681V80.2709L147.589 80.1284Z" fill="#5691D7"/>
<path id="Vector_122" d="M145.025 67.0225H153.43L153.572 67.1649V68.1621L152.86 68.3046H145.025L144.882 68.1621V67.1649L145.025 67.0225Z" fill="#518ED6"/>
<path id="Vector_123" d="M142.603 173.581H142.745L142.888 175.005L141.463 177.997L141.178 178.282H138.614L138.329 178.139L137.189 178.282L136.334 178.139L136.762 177.855L140.323 175.86L142.603 173.581Z" fill="#759662"/>
<path id="Vector_124" d="M128.357 170.589L128.5 170.874L127.645 172.014L126.22 173.296L124.796 174.151L122.801 174.72L120.237 175.148L117.103 175.433H114.966L108.271 175.005H99.7233L90.0361 175.148V175.005L93.8825 174.578H104.852L109.838 174.72L113.257 175.005H115.536L121.377 174.435L123.371 174.151L125.223 173.438L126.79 172.299L127.645 171.586L128.357 170.589Z" fill="#E6F3FE"/>
<path id="Vector_125" d="M63.9665 77.7065H65.676L66.5307 78.2764L66.3882 78.9887L64.8212 80.4132L63.9665 80.9831L61.6871 81.1255L60.6899 81.4104L60.9749 80.6982L61.8296 79.701L62.9693 78.7037L63.9665 77.7065Z" fill="#FCFDFD"/>
<path id="Vector_126" d="M149.441 126H156.137V127.139L155.994 127.282H148.017L147.447 126.997L147.589 126.142L149.441 126Z" fill="#5792D8"/>
<path id="Vector_127" d="M158.701 116.74H164.542V118.022H155.994V116.882L158.701 116.74Z" fill="#84A7D5"/>
<path id="Vector_128" d="M60.4047 70.8684H67.2426V71.2958L66.5303 71.8656L64.9633 72.7204L60.9745 72.5779L60.2622 72.4354V71.2958L60.4047 70.8684Z" fill="#BBDCFE"/>
<path id="Vector_129" d="M120.237 113.606H124.084V115.315L123.941 115.458H118.955L118.385 115.315V113.748L120.237 113.606Z" fill="#BBDCFD"/>
<path id="Vector_130" d="M159.84 153.209L160.125 153.352L158.843 154.206L157.133 154.919L154.997 155.489L153.002 155.916H151.293L149.156 156.486L146.876 157.625L146.164 158.338L146.022 158.765H145.025L144.597 158.623L144.74 157.768L146.734 156.628L149.013 155.773L150.723 155.346L155.994 154.491L157.846 154.206L159.128 153.637L159.84 153.209Z" fill="#749662"/>
<path id="Vector_131" d="M61.9717 102.637H65.8181L66.103 102.922V103.919L65.5331 104.346L64.5359 104.489H60.5471L60.2622 104.346V102.922L60.4047 102.779L61.9717 102.637Z" fill="#BBDCFE"/>
<path id="Vector_132" d="M155.994 102.352H164.542V103.491L161.408 103.634L155.994 103.491V102.352Z" fill="#83A6D4"/>
<path id="Vector_133" d="M175.368 113.463H182.776L182.918 113.606V114.603L174.656 114.745L174.229 114.176V113.606L175.368 113.463Z" fill="#82A6D4"/>
<path id="Vector_134" d="M121.377 92.2373H123.941V94.0893H118.67L118.385 93.8043L118.243 92.6647L118.385 92.3798L121.377 92.2373Z" fill="#BBDCFE"/>
<path id="Vector_135" d="M168.103 70.4414H174.371V71.5811L174.086 71.7235H168.103L165.966 71.5811V70.5839L168.103 70.4414Z" fill="#80A5D4"/>
<path id="Vector_136" d="M147.732 110.045H156.137V111.184H147.589L147.447 110.472L147.732 110.045Z" fill="#4E8ED8"/>
<path id="Vector_137" d="M60.4048 134.405H66.1031L66.2455 136.114H60.5472L60.4048 135.972V134.405Z" fill="#BBDCFE"/>
<path id="Vector_138" d="M60.9746 124.005H65.8182L66.1031 124.29V125.287L65.8182 125.715L64.2511 125.857H62.3992L60.6897 125.715L60.4048 125.43V124.148L60.9746 124.005Z" fill="#BBDCFE"/>
<path id="Vector_139" d="M123.514 70.7261L124.084 70.8685V72.4356L123.941 72.578H118.67L118.385 72.4356V71.011L118.528 70.8685L123.514 70.7261Z" fill="#BBDCFE"/>
<path id="Vector_140" d="M155.994 87.1089H164.257L164.542 87.2513V88.2485H155.994V87.1089Z" fill="#83A6D4"/>
<path id="Vector_141" d="M175.796 83.6899H182.491L182.918 83.8324V84.6871L182.776 84.8296H174.229L174.371 83.8324L175.796 83.6899Z" fill="#83A6D4"/>
<path id="Vector_142" d="M62.1142 144.234H65.9605L66.103 144.377V145.801L65.9605 145.944H60.9745L60.4047 145.659L60.2622 144.519L60.4047 144.377L62.1142 144.234Z" fill="#BBDCFE"/>
<path id="Vector_143" d="M118.528 61.1816H123.799L123.941 61.3241V62.7487L123.799 62.8911H118.528L118.385 62.7487V61.3241L118.528 61.1816Z" fill="#BBDCFE"/>
<path id="Vector_144" d="M174.513 98.9326H180.069L182.918 99.0751L182.776 100.072H174.371L174.229 99.7874L174.513 98.9326Z" fill="#82A6D4"/>
<path id="Vector_145" d="M30.0617 145.659H30.2041L30.6315 148.793L31.2013 150.36L32.4835 152.497L34.0505 153.636L33.6231 153.779L32.1985 152.639L31.3438 151.499L30.4891 149.79V149.505L29.0645 149.79L27.9248 149.22L26.9276 148.08L26.7852 147.083L27.9248 146.798L29.3494 147.368L29.9192 148.08L30.2041 148.223L30.0617 147.226V145.659Z" fill="#93C161"/>
<path id="Vector_146" d="M51.2872 161.899H51.7146L52.142 165.318L52.7118 168.025L52.2844 168.167L52.142 169.307L51.7146 169.877H51.4297L51.2872 167.882L50.29 162.754V162.184L51.2872 161.899Z" fill="#EB9747"/>
<path id="Vector_147" d="M97.3016 113.606H99.1535L99.4384 114.033L98.0138 115.458H95.1647L93.5977 115.315V113.748L97.3016 113.606Z" fill="#BBDCFE"/>
<path id="Vector_148" d="M166.536 126H172.804L172.947 126.142V127.139L172.092 127.282H166.251L165.824 126.997V126.142L166.536 126Z" fill="#5691D6"/>
<path id="Vector_149" d="M163.545 67.0225H170.24L170.383 68.1621L168.673 68.3046H163.83L163.26 68.0197V67.1649L163.545 67.0225Z" fill="#508ED5"/>
<path id="Vector_150" d="M158.844 129.419H164.115L164.542 129.561V130.559L164.399 130.701H157.704L157.562 130.559V129.561L158.844 129.419Z" fill="#83A6D4"/>
<path id="Vector_151" d="M164.826 146.941L166.678 147.083L166.393 147.938L165.396 149.22L164.541 149.648H162.832L161.835 151.642L160.552 153.067L160.268 152.924L160.98 152.212L162.404 149.363L162.974 148.081L163.829 147.511L164.826 146.941Z" fill="#96C461"/>
<path id="Vector_152" d="M174.371 129.561H182.776L182.919 129.703V130.558H174.371V129.561Z" fill="#82A6D4"/>
<path id="Vector_153" d="M114.255 92.2373H116.819V93.8043L116.249 94.0893H112.403L112.118 93.6619V92.5222L112.26 92.3798L114.255 92.2373Z" fill="#BBDCFD"/>
<path id="Vector_154" d="M67.9551 124.005H72.6562L72.7986 124.148V125.287L72.6562 125.715H68.0975L67.9551 125.145V124.005Z" fill="#BBDCFE"/>
<path id="Vector_155" d="M66.2455 75.5698L70.0919 75.9972L69.9494 76.567L68.8097 77.5642L68.5248 77.7067L64.536 77.5642L64.3936 77.1369L65.6757 75.9972L66.2455 75.5698Z" fill="#BBDCFE"/>
<path id="Vector_156" d="M157.704 98.9326H164.399L164.684 99.6449V100.072H157.562V99.0751L157.704 98.9326Z" fill="#83A6D4"/>
<path id="Vector_157" d="M63.2538 118.307L64.3935 119.162L65.9605 120.159V120.302L65.1058 120.444H60.6896L60.2622 119.447V118.877L61.6868 118.592H63.2538V118.307Z" fill="#BBDCFE"/>
<path id="Vector_158" d="M157.989 113.463H164.542L164.684 114.603H157.704V113.606L157.989 113.463Z" fill="#83A6D4"/>
<path id="Vector_159" d="M68.8099 144.234H72.6563L72.7988 144.947V145.944H68.0977V144.377L68.8099 144.234Z" fill="#BBDCFE"/>
<path id="Vector_160" d="M112.545 70.8684H116.819V72.4354L116.534 72.5779H112.545L112.118 72.1505L112.26 71.1533L112.545 70.8684Z" fill="#BBDCFE"/>
<path id="Vector_161" d="M68.2401 134.405H72.6563V135.972L72.5138 136.114H68.3826L68.0977 135.972V134.547L68.2401 134.405Z" fill="#BBDCFE"/>
<path id="Vector_162" d="M113.827 113.606H116.819V115.173L116.676 115.315H112.403L112.118 115.031V113.748L113.827 113.606Z" fill="#BBDCFE"/>
<path id="Vector_163" d="M158.701 83.6899H164.542V84.8296H157.704V83.8324L158.701 83.6899Z" fill="#83A6D4"/>
<path id="Vector_164" d="M112.402 61.1816H116.818V62.7487L116.675 62.8911H113.399L112.402 62.7487L112.259 62.6062V61.3241L112.402 61.1816Z" fill="#BBDCFE"/>
<path id="Vector_165" d="M137.047 79.1311H141.463L142.888 79.416V79.7009L136.193 79.8434L135.908 80.1283L135.765 87.2512H135.623V86.1115H135.338V87.2512H135.195V80.4132L135.623 79.5585L136.193 79.2736L137.047 79.1311Z" fill="#4380C1"/>
<path id="Vector_166" d="M62.5415 108.192H64.251L64.5359 108.905L64.3935 109.759L63.6812 110.187H61.4019L60.5471 109.902L60.2622 109.617V108.62L60.832 108.335L62.5415 108.192Z" fill="#BBDCFE"/>
<path id="Vector_167" d="M60.6897 86.824H64.2511L64.5361 87.2513L64.3936 88.2486L63.9662 88.6759H60.8322L60.4048 88.391V86.9664L60.6897 86.824Z" fill="#BBDCFE"/>
<path id="Vector_168" d="M77.215 118.592H80.4915L80.9189 119.162V119.874L80.4915 120.302L80.0641 120.444H77.3574L76.7876 119.874V119.019L77.215 118.592Z" fill="#BBDCFE"/>
<path id="Vector_169" d="M83.4835 5.90796L84.1958 6.05042L87.0449 8.89957L88.0421 10.0392L89.6091 11.6063L90.6063 12.7459L91.1762 13.3158L90.8913 13.8856L88.7544 15.88L85.6203 19.0141L84.0533 20.2962L83.341 20.4386L84.0533 19.8688L86.0477 18.1593L90.6063 13.6007L90.4639 13.0308L87.0449 9.61186L86.0477 8.4722L83.9108 6.33533L83.1985 6.62025L81.3466 8.18728L78.9248 10.4666L78.0701 11.3213L77.7852 11.1789L80.7768 8.18728L82.2013 6.90516L83.1985 6.19287H83.4835V5.90796Z" fill="#BADBFD"/>
<path id="Vector_170" d="M189.899 177.569H194.743L203.433 177.997L204.145 178.139L204.003 178.424L197.307 178.851H194.885V178.567L197.307 178.282L197.022 178.139L189.899 177.712V177.569Z" fill="#BDD9F7"/>
<path id="Vector_171" d="M40.6033 117.452L42.0279 118.022L41.7429 119.589L41.1731 121.584H41.458L41.3156 122.011L40.6033 122.438L40.3184 122.296L39.7485 121.726V120.159L40.6033 117.452Z" fill="#FCFCFD"/>
<path id="Vector_172" d="M149.299 70.4414H151.151V71.4386H151.436V70.4414H151.863L152.005 71.4386L152.148 70.4414H155.994L156.137 70.5839V71.5811L155.852 71.7235H154.712L154.57 71.4386V71.7235H153.288L153.145 70.7263H152.86V71.7235H152.433V70.7263L152.29 71.7235H149.869L149.726 71.2962L149.584 70.7263L149.441 71.5811H149.156V70.5839L149.299 70.4414Z" fill="#83AFDF"/>
<path id="Vector_173" d="M96.3044 75.7124L96.8742 75.9973L98.1563 77.137L97.7289 77.7068H94.5949L94.025 77.5644L93.5977 76.7096V75.9973L94.025 75.8549L96.3044 75.7124Z" fill="#BBDCFE"/>
<path id="Vector_174" d="M79.2094 75.7124L80.7764 75.8549L81.0613 76.1398L80.9189 76.9945L80.2066 77.5644H77.215L76.7876 77.2794V76.1398L77.0725 75.8549L79.2094 75.7124Z" fill="#BBDCFE"/>
<path id="Vector_175" d="M110.408 86.824H113.4L113.542 86.9664V88.2486L113.4 88.5335L111.548 88.6759H109.838L109.553 88.391V87.1089L110.408 86.824Z" fill="#BBDCFE"/>
<path id="Vector_176" d="M135.195 126.285H135.338L135.48 128.279L135.623 128.422L135.765 132.838L135.908 133.408L143.458 133.55L143.6 133.977L143.173 134.12H136.762L135.765 133.835L135.338 133.408L135.195 132.695V126.285Z" fill="#4483C4"/>
<path id="Vector_177" d="M19.5199 87.9634H19.6624L20.2322 90.3852L21.0869 91.6673L22.0841 92.3796H23.9361V94.6589L23.2238 94.374L21.5143 93.5192L20.3746 92.0947L19.8048 90.955L19.3774 88.9606L19.5199 87.9634Z" fill="#0F1416"/>
<path id="Vector_178" d="M94.0254 81.1257H97.5868L97.4444 82.8352H93.8829L93.4556 82.6928V81.5531L93.598 81.2682L94.0254 81.1257Z" fill="#BBDCFE"/>
<path id="Vector_179" d="M93.598 124.005H97.4444V125.572L97.3019 125.715H93.8829L93.4556 125.43V124.29L93.598 124.005Z" fill="#BBDCFE"/>
<path id="Vector_180" d="M62.684 149.79H64.1086L64.251 149.933V151.5L64.1086 151.642H61.2594L60.4047 151.357L60.2622 151.072V150.218L60.832 149.933L62.684 149.79Z" fill="#BBDCFE"/>
<path id="Vector_181" d="M93.7401 134.405H97.444L97.5865 134.832V135.829L97.3016 136.114H93.8826L93.5977 135.972V134.547L93.7401 134.405Z" fill="#BBDCFE"/>
<path id="Vector_182" d="M120.664 75.8547H124.511V77.4218L124.226 77.5642H120.807L120.522 76.8519V75.9972L120.664 75.8547Z" fill="#BBDCFE"/>
<path id="Vector_183" d="M158.132 95.3713H161.551L161.693 95.5138V96.7959H157.135L156.85 96.6535V95.7987L156.992 95.5138L158.132 95.3713Z" fill="#5792D7"/>
<path id="Vector_184" d="M71.517 66.1675H75.3633V67.7345L74.7935 67.877H72.0868L71.3745 67.5921V66.3099L71.517 66.1675Z" fill="#BBDCFE"/>
<path id="Vector_185" d="M94.5949 144.234H97.5865V145.374L97.444 145.801L97.0166 145.944H93.5977V144.377L94.5949 144.234Z" fill="#BBDCFE"/>
<path id="Vector_186" d="M93.7404 98.5056H94.0253L94.4527 101.64L94.88 101.925V100.5L95.3074 99.9302L95.4499 100.215V102.494L95.0225 102.637V102.352H94.7376L94.0253 106.626L93.5979 108.335L92.7432 109.332L92.1733 109.475L93.0281 108.478L93.5979 107.338L93.7404 98.5056Z" fill="#4D8ED9"/>
<path id="Vector_187" d="M99.7238 81.1257H101.861L102.715 82.4079L102.573 82.8352L102.288 82.9777H98.869L98.7266 82.8352V81.4106L99.7238 81.1257Z" fill="#BBDCFE"/>
<path id="Vector_188" d="M87.6141 61.1816H91.318V62.8911H87.7566L87.4717 62.7487V61.3241L87.6141 61.1816Z" fill="#BBDCFE"/>
<path id="Vector_189" d="M78.2124 69.0168L78.3549 69.3018L81.0616 69.5867L82.0588 69.8716L81.7739 70.1565L82.2012 70.5839L81.7739 70.7263L80.0644 70.8688H77.3577V70.1565H76.5029L76.6454 69.7291H77.2152L77.3577 69.1593L78.2124 69.0168Z" fill="#839EBB"/>
<path id="Vector_190" d="M109.696 108.335H113.4L113.542 108.62V109.475L112.972 110.044H109.696L109.553 109.332L109.696 108.335Z" fill="#BBDCFE"/>
<path id="Vector_191" d="M77.0725 66.1675H80.7764L80.9189 66.3099V67.5921L80.634 67.7345L76.7876 68.0194L77.0725 67.877L76.9301 67.3071V66.3099L77.0725 66.1675Z" fill="#BBDCFE"/>
<path id="Vector_192" d="M87.472 113.749H91.3184L91.4609 114.176V115.173L91.3184 115.316H87.472L87.3296 115.173V113.891L87.472 113.749Z" fill="#BBDCFE"/>
<path id="Vector_193" d="M120.664 97.3657H124.368L124.511 97.5082V98.9328L120.949 99.0752L120.522 98.5054V97.5082L120.664 97.3657Z" fill="#BBDCFE"/>
<path id="Vector_194" d="M76.5026 12.4609H76.7875L76.5026 13.6006L77.6422 14.5978L79.7791 16.5922L83.0556 19.8687L83.6255 20.2961V20.581L82.7707 20.4386L81.0612 18.8715L79.9216 17.8743L76.9299 14.8827L76.0752 13.4581L76.2177 12.8883H76.5026V12.4609Z" fill="#E1F0FD"/>
<path id="Vector_195" d="M51.4309 89.5305H51.8583V91.24L51.146 91.6674L51.2885 91.9523L49.7215 92.3797H48.2969L47.7271 92.0948L48.4393 91.9523L47.7271 91.8098L48.1544 91.5249L48.8667 91.24L49.0092 90.9551H48.5818L48.7243 90.3853L49.1516 90.2428H50.2913L51.4309 89.5305Z" fill="#E6F3FE"/>
<path id="Vector_196" d="M135.338 94.9441L135.48 95.5139L135.908 95.3715V102.779L136.62 102.922L142.888 103.064V103.207H138.329V103.492H136.335L135.338 103.064L135.195 102.779V95.3715L135.338 94.9441Z" fill="#518FD7"/>
<path id="Vector_197" d="M109.553 149.933H113.542V151.357L113.4 151.5H109.553V149.933Z" fill="#BBDCFE"/>
<path id="Vector_198" d="M107.273 149.79L107.843 149.933L107.985 150.218V151.357L107.843 151.5H104.139L103.997 151.357V149.933L107.273 149.79Z" fill="#BBDCFD"/>
<path id="Vector_199" d="M109.696 140.103H113.542V141.67H109.838L109.553 141.385V140.245L109.696 140.103Z" fill="#BBDCFE"/>
<path id="Vector_200" d="M104.281 129.704H107.843L108.128 130.416V131.128L107.985 131.271H104.424L103.997 130.843V129.989L104.281 129.704Z" fill="#BBDCFE"/>
<path id="Vector_201" d="M124.226 118.592H124.511V120.302H120.664L120.522 119.589L120.664 118.734L124.226 118.592Z" fill="#BBDCFE"/>
<path id="Vector_202" d="M60.4048 129.704H64.3936V130.701L64.1087 131.271H60.4048V129.704Z" fill="#BBDCFE"/>
<path id="Vector_203" d="M152.006 116.74H154.997V118.165H150.724L150.581 118.022V116.882L152.006 116.74Z" fill="#BBDCFE"/>
<path id="Vector_204" d="M142.746 81.4106H143.173L142.888 82.1229L141.036 84.2598L139.754 85.8268L139.327 86.1117L138.615 85.9693L137.19 84.1173L136.62 83.2626V82.8352L137.19 83.1201L138.33 84.4023L138.899 85.257V85.5419H139.184L139.469 84.9721L140.609 83.5475L142.034 81.838L142.746 81.4106Z" fill="#79A0D2"/>
<path id="Vector_205" d="M109.838 129.704H113.4L113.542 129.989V130.986L113.257 131.271H109.553V130.273L109.838 129.704Z" fill="#BBDCFE"/>
<path id="Vector_206" d="M74.0809 81.1257H77.3575L77.4999 81.2682V82.8352H73.9385V81.2682L74.0809 81.1257Z" fill="#BBDCFE"/>
<path id="Vector_207" d="M156.992 80.1284H161.551L161.693 80.2709V81.2681L161.551 81.4105H157.277L156.85 80.9832V80.2709L156.992 80.1284Z" fill="#5892D5"/>
<path id="Vector_208" d="M157.419 126H161.551L161.693 126.142V127.139L161.551 127.282H157.277L156.85 126.997V126.142L157.419 126Z" fill="#5893D7"/>
<path id="Vector_209" d="M121.377 66.1675H124.226L124.511 66.4524V67.5921L124.368 67.7345H120.664L120.522 67.4496V66.3099L121.377 66.1675Z" fill="#BBDCFE"/>
<path id="Vector_210" d="M60.5472 140.103H64.2511V141.67H60.5472L60.4048 141.528V140.245L60.5472 140.103Z" fill="#BBDCFE"/>
<path id="Vector_211" d="M104.282 140.103H107.843L107.986 140.245V141.528L107.843 141.67H104.424L104.139 141.528V140.245L104.282 140.103Z" fill="#BBDCFE"/>
<path id="Vector_212" d="M107.843 70.8684H110.835L111.12 71.2958V72.4354L110.835 72.5779H108.128L107.416 72.293L107.558 71.1533L107.843 70.8684Z" fill="#BBDCFE"/>
<path id="Vector_213" d="M74.2234 144.234H77.4999V145.374L77.3575 145.801L77.0725 145.944H74.0809L73.9385 145.801V144.377L74.2234 144.234Z" fill="#BBDCFE"/>
<path id="Vector_214" d="M142.603 127.282H143.03L142.745 127.994L140.893 130.274L139.469 131.841L138.899 131.983L137.902 130.843L136.477 128.991L136.62 128.707L137.189 128.849L138.044 129.846L138.899 130.986V131.271L139.611 130.559L141.321 128.564L142.318 127.424L142.603 127.282Z" fill="#5991D1"/>
<path id="Vector_215" d="M73.9385 134.405H77.3575V136.114H74.0809L73.9385 135.972V134.405Z" fill="#BBDCFE"/>
<path id="Vector_216" d="M154.427 67.0225H158.985L159.128 67.1649V68.1621L158.558 68.3046H155.139L154.427 68.1621V67.0225Z" fill="#4F8CD1"/>
<path id="Vector_217" d="M74.2234 123.863L75.5055 124.005L77.9273 124.433L77.4999 124.575V125.43L77.3575 125.715L76.6452 125.857L74.0809 125.715L73.9385 125.572V124.29L74.2234 123.863Z" fill="#BBDCFE"/>
<path id="Vector_218" d="M142.603 96.6536H143.031L142.888 97.2234L141.749 98.648L140.182 100.5L139.184 101.355L138.615 101.212L136.763 98.7904L136.62 98.2206L137.332 98.3631L139.042 100.5V100.927L139.897 99.6452L141.179 98.2206L142.176 97.0809L142.603 96.6536Z" fill="#6095D5"/>
<path id="Vector_219" d="M142.746 111.042L143.031 111.184L142.888 111.896L141.464 113.464L140.466 114.746L139.327 115.885L138.615 115.743L136.905 113.464L136.62 113.036L136.763 112.466L137.475 113.179L138.899 115.031L139.042 115.458L139.897 114.176L141.606 112.181L142.318 111.327L142.746 111.042Z" fill="#5D94D6"/>
<path id="Vector_220" d="M166.536 116.74H169.1L170.667 116.882L170.81 117.025V118.022H166.108L166.251 116.882L166.536 116.74Z" fill="#81A5D4"/>
<path id="Vector_221" d="M107.558 113.749H111.12V114.888L110.977 115.316H107.843L107.416 114.888V113.891L107.558 113.749Z" fill="#BBDCFE"/>
<path id="Vector_222" d="M95.1645 104.204H95.4494V107.908L95.022 109.19L94.1673 110.33L92.7427 111.184L92.1729 111.469H91.0332L91.4606 111.042H91.7455V110.757L94.0248 109.617L94.4522 109.047L94.7371 106.341V104.774L95.1645 104.204Z" fill="#508FD8"/>
<path id="Vector_223" d="M96.0197 75.427L96.3046 75.5695V75.8544L93.5979 75.9968L94.0253 77.5639L94.5952 77.7063L90.7488 77.4214V77.1365L89.3242 76.5667L90.0365 75.9968H91.1762L91.8885 76.1393H93.1706L93.8829 75.7119L95.7348 75.5695L96.0197 75.427Z" fill="#E5F2FD"/>
<path id="Vector_224" d="M72.3717 118.449H74.3661L75.3633 118.734L75.5058 118.877L75.3633 120.159L74.936 120.301L73.3689 120.016L71.517 119.447L71.3745 119.019L71.517 118.734L72.3717 118.449Z" fill="#BBDCFE"/>
<path id="Vector_225" d="M156.991 110.045H161.692V111.184H156.991V110.045Z" fill="#4E8ED8"/>
<path id="Vector_226" d="M168.815 113.463H173.374L173.517 113.606V114.603H168.815V113.463Z" fill="#82A6D4"/>
<path id="Vector_227" d="M150.438 87.1089H154.997L155.14 87.2513V88.2485H150.581L150.438 88.1061V87.1089Z" fill="#83A6D4"/>
<path id="Vector_228" d="M161.55 70.4414H164.969V71.5811L163.402 71.7235H160.553L160.41 71.5811V70.5839L161.55 70.4414Z" fill="#CAE3FB"/>
<path id="Vector_229" d="M107.701 61.1816H110.978V62.6062L110.835 62.7487H107.559V61.3241L107.701 61.1816Z" fill="#BBDCFE"/>
<path id="Vector_230" d="M155.852 74.2876H160.553V75.2848L160.411 75.4273H156.137L155.852 75.2848V74.2876Z" fill="#85A8D5"/>
<path id="Vector_231" d="M166.251 102.352H170.81L170.952 102.637L170.81 103.491H166.251L166.108 102.494L166.251 102.352Z" fill="#82A5D4"/>
<path id="Vector_232" d="M103.855 113.463L103.997 113.748H106.419V114.888L105.849 115.458H103.142L103 114.603L103.855 113.463Z" fill="#BBDCFE"/>
<path id="Vector_233" d="M168.958 98.9326H173.374V100.072H168.815V99.0751L168.958 98.9326Z" fill="#82A5D4"/>
<path id="Vector_234" d="M151.293 102.352H154.997L155.14 102.494V103.491H150.581L150.438 103.349V102.637L151.293 102.352Z" fill="#81A5D4"/>
<path id="Vector_235" d="M171.665 83.6899H173.374L173.517 83.8324V84.8296H168.815V83.8324L171.665 83.6899Z" fill="#81A5D4"/>
<path id="Vector_236" d="M61.4026 81.1257H63.397L63.1121 81.838L62.2573 82.9777H60.8328L60.2629 82.5503V82.2654L59.978 82.1229L60.5479 81.2682L61.4026 81.1257Z" fill="#BBDCFE"/>
<path id="Vector_237" d="M168.815 129.561H170.24L170.382 130.273L170.525 129.561H171.095H173.374V130.558L173.232 130.701H169.813L168.815 130.558V129.561Z" fill="#7AA4D6"/>
<path id="Vector_238" d="M142.461 125.145H143.601L144.313 125.857V133.123L143.743 133.835L143.316 133.692L143.601 133.265L143.743 132.268V126.427L143.458 125.715L142.461 125.43V125.145Z" fill="#2C75BD"/>
<path id="Vector_239" d="M34.0503 153.779L34.7626 153.922L35.3324 154.206L37.1844 154.491L42.8827 155.489L43.595 155.773L43.0251 155.916L42.0279 155.773H39.7486L36.6145 155.061L34.7626 154.349L34.0503 153.922V153.779Z" fill="#719261"/>
<path id="Vector_240" d="M25.0757 98.9326L25.5031 99.0751L26.2153 99.9298L26.5003 101.354L27.0701 103.919V105.771H26.7852L26.5003 104.916L26.2153 103.491L25.6455 101.497L25.2181 99.7874L25.0757 98.9326Z" fill="#3B4E64"/>
<path id="Vector_241" d="M54.2796 175.575L54.7069 175.717V176.002L55.2768 176.287L56.1315 178.139V178.282H54.7069L53.9946 177.569L53.4248 176.857L53.7097 176.287L54.2796 175.575Z" fill="#FD734F"/>
<path id="Vector_242" d="M136.477 117.452H143.315L142.888 117.737L143.457 118.022L142.603 118.165H138.186L136.334 118.022V117.88L137.047 117.737L136.477 117.452Z" fill="#6397D7"/>
<path id="Vector_243" d="M76.2181 84.4021H81.7739H82.3437H83.9108L84.1957 84.5446L86.475 84.687V84.8295H73.084V84.687L75.7907 84.5446L76.2181 84.4021Z" fill="#4D8ED9"/>
<path id="Vector_244" d="M67.1002 107.623H67.2427L67.6701 109.047L67.8125 109.617H67.5276V110.045H65.6757L65.5332 109.902V108.335L66.103 108.193H67.1002V107.623Z" fill="#BBDCFE"/>
<path id="Vector_245" d="M27.7824 126.142L28.2098 126.285V127.14L25.3606 128.991H24.6483L24.5059 128.422L27.2126 126.57L27.7824 126.142Z" fill="#FAFBFC"/>
<path id="Vector_246" d="M147.874 113.463H150.439L150.581 113.606V114.461L150.439 114.745H147.874L147.589 114.461L147.732 113.606L147.874 113.463Z" fill="#B5D7FA"/>
<path id="Vector_247" d="M74.9362 76.1396H75.6485L75.3636 77.4218L75.2211 77.5642H71.6597L72.2295 77.2793V76.9944L73.5116 76.4246L74.9362 76.1396Z" fill="#BBDCFE"/>
<path id="Vector_248" d="M147.589 83.6899H150.581V84.8296H147.589V83.6899Z" fill="#84A7D5"/>
<path id="Vector_249" d="M95.5928 102.637L97.5872 102.779L97.7296 102.922V104.061L97.4447 104.346H95.7352L95.5928 104.774V102.637Z" fill="#BBDCFD"/>
<path id="Vector_250" d="M136.335 94.5166H143.173L142.745 94.6591V94.944L136.477 95.0864L135.765 95.5138H135.48V94.8015L136.335 94.5166Z" fill="#3E80C6"/>
<path id="Vector_251" d="M139.327 70.4414H142.034V71.5811H139.184L139.042 71.4386V70.7263L139.327 70.4414Z" fill="#BBDCFE"/>
<path id="Vector_252" d="M147.732 129.561H150.581V130.558L150.011 130.701H148.017L147.589 130.558V129.703L147.732 129.561Z" fill="#83AADA"/>
<path id="Vector_253" d="M17.9523 86.824L18.6646 86.9664L19.0919 87.3938L19.5193 88.9608L19.8042 90.3854V91.0977L19.3769 90.6703L19.0919 89.6731L18.6646 88.8184L17.6674 88.1061L17.5249 87.5363L17.9523 86.824Z" fill="#F6EDE6"/>
<path id="Vector_254" d="M76.2179 71.1538L76.5029 71.2963L76.0755 72.5784H73.5112L72.3716 72.4359L72.9414 72.151L75.0783 71.4387L76.2179 71.1538Z" fill="#BBDCFE"/>
<path id="Vector_255" d="M135.195 80.4133H135.338L135.48 81.9804L135.623 80.5558H135.765V87.2513H135.623V86.1116H135.338V87.2513H135.195V80.4133Z" fill="#548FD6"/>
<path id="Vector_256" d="M136.62 82.8352L137.19 83.1201L138.33 84.4022L138.899 85.257V85.6844L139.754 85.257L141.036 83.8324L141.321 83.405H141.606L141.321 83.9749L139.612 85.9693L138.757 86.1117L137.617 84.6872L136.62 83.2626V82.8352Z" fill="#5891D4"/>
<path id="Vector_257" d="M152.29 116.883H154.997V118.022H152.29V116.883Z" fill="#83A6D5"/>
<path id="Vector_258" d="M59.8352 81.9805L60.1201 82.1229L58.838 84.2598L57.8408 86.2542H57.271L57.6984 84.6872L58.6956 82.8352L59.4079 82.2654H59.8352V81.9805Z" fill="#7D9CC8"/>
<path id="Vector_259" d="M117.246 165.603H118.528L120.522 165.888L124.938 166.173L127.503 166.885L128.785 167.74L129.07 168.31V169.164H128.927L128.642 168.167L127.93 167.597L125.793 166.743L123.941 166.458L119.667 166.173L117.246 165.745V165.603Z" fill="#E6F3FE"/>
<path id="Vector_260" d="M93.3125 83.9749L94.0248 84.2598L94.8795 85.3994L95.4494 86.6815V91.0977L95.1644 90.8128L95.022 89.6732L95.1644 87.6788L94.0248 84.9721L93.5974 84.5447V84.2598H93.3125V83.9749Z" fill="#5490D7"/>
<path id="Vector_261" d="M162.975 126H164.114L164.684 126.142V126.997L164.542 127.282H162.69L162.405 126.997V126.142L162.975 126Z" fill="#5290D7"/>
<path id="Vector_262" d="M47.7265 121.584L48.2963 121.726L48.1538 122.296L46.8717 123.151L45.5896 123.721L45.3047 123.293V122.866L47.7265 121.584Z" fill="#EEE2D6"/>
<path id="Vector_263" d="M152.005 98.9326H154.142L154.285 99.9298L154.142 100.072H151.863V99.0751L152.005 98.9326Z" fill="#81A7D7"/>
<path id="Vector_264" d="M159.983 67.0225H161.978L162.12 67.1649V68.0197L161.978 68.3046H160.411L159.983 68.1621V67.0225Z" fill="#508BCF"/>
<path id="Vector_265" d="M109.553 92.0947L109.696 92.3796H110.835L111.12 92.5221L111.263 93.8042L111.12 93.9467H109.838V95.0863H109.696L109.553 92.0947Z" fill="#BBDCFD"/>
<path id="Vector_266" d="M151.863 129.561H154.142V130.558L153.858 130.701H152.291L151.721 130.416L151.863 129.561Z" fill="#7BA6DA"/>
<path id="Vector_267" d="M78.2124 174.15L79.7794 174.435L83.3409 175.005L89.609 175.148V175.29L84.623 175.433L80.9191 175.148L79.0671 174.72L78.2124 174.293V174.15Z" fill="#E6F3FE"/>
<path id="Vector_268" d="M142.746 111.042L143.031 111.184L142.889 111.896L142.176 112.324L141.179 113.464L140.324 114.603L139.612 115.173H139.327L139.612 114.603L141.179 112.609L142.319 111.327L142.746 111.042Z" fill="#79A1D3"/>
<path id="Vector_269" d="M71.9438 109.76H81.4885V109.902L75.2204 110.187H73.5109L71.9438 109.902V109.76Z" fill="#4D8ED9"/>
<path id="Vector_270" d="M67.1002 86.6814L67.2427 86.9663L67.1002 88.3909L66.9578 88.5333L65.8181 88.3909L65.5332 88.2484V86.9663L67.1002 86.6814Z" fill="#BBDCFE"/>
<path id="Vector_271" d="M152.006 83.6899L154.142 83.8324V84.8296H151.863L151.721 84.6871V83.8324L152.006 83.6899Z" fill="#80A4D4"/>
<path id="Vector_272" d="M136.62 98.2205L137.332 98.3629L139.042 100.5L138.899 101.07L139.612 100.642L140.039 100.357L139.754 100.927L139.184 101.355L138.615 101.212L136.763 98.7903L136.62 98.2205Z" fill="#518DD1"/>
<path id="Vector_273" d="M162.547 95.5139H164.542V96.6536H162.405V95.6564L162.547 95.5139Z" fill="#4A8AD2"/>
<path id="Vector_274" d="M162.547 110.045H164.542V111.184H162.547L162.405 111.042V110.187L162.547 110.045Z" fill="#498AD3"/>
<path id="Vector_275" d="M54.2792 87.9634L54.4216 88.3908L54.2792 90.1002L53.4244 92.8069L52.9971 92.9494V91.8097L53.282 90.3852L53.7094 89.9578L54.2792 87.9634Z" fill="#7D9CC8"/>
<path id="Vector_276" d="M152.148 132.838H153.003V134.12H151.151L151.293 133.123H150.866V133.977H150.581V132.98L152.148 132.838Z" fill="#6095CF"/>
<path id="Vector_277" d="M152.433 113.463H153.715L154.142 113.606V114.603H151.863V113.606L152.433 113.463Z" fill="#77A2D8"/>
<path id="Vector_278" d="M166.251 113.463H167.961V114.603H165.966L165.824 114.461V113.606L166.251 113.463Z" fill="#84A7D5"/>
<path id="Vector_279" d="M171.807 116.883H173.659L173.801 117.025V118.022H171.807L171.665 117.31L171.807 116.883Z" fill="#86A9D6"/>
<path id="Vector_280" d="M140.038 176.002V176.43L138.329 178.139L137.189 178.282L136.334 178.139L136.762 177.854L140.038 176.002Z" fill="#FE724F"/>
<path id="Vector_281" d="M105.564 81.1257H107.416L107.559 81.4106V82.5503L107.274 82.6928H106.419L105.564 81.1257Z" fill="#BBDCFE"/>
<path id="Vector_282" d="M189.899 177.569H194.743L197.877 177.712L198.162 177.997L197.022 178.139L189.899 177.712V177.569Z" fill="#C0DCF9"/>
<path id="Vector_283" d="M166.251 98.9326L167.961 99.0751V100.072H165.966L165.824 99.9298V99.2175L166.251 98.9326Z" fill="#80A4D3"/>
<path id="Vector_284" d="M147.732 87.1089H149.584V87.9636L149.441 88.2485H147.874L147.589 88.1061V87.2513L147.732 87.1089Z" fill="#7FA5D5"/>
<path id="Vector_285" d="M165.824 83.8323H168.103L167.961 84.8295H165.966L165.824 84.687V83.8323Z" fill="#81A5D4"/>
<path id="Vector_286" d="M10.9724 57.6204L11.6847 57.7628L14.1065 60.0421L16.3858 62.4639L16.6707 62.8913L16.1009 62.6064L13.8216 60.3271L12.8244 59.1874L11.3998 58.0477L10.83 58.1902L9.83277 59.0449L9.54785 58.9025L10.9724 57.6204Z" fill="#BBDCFE"/>
<path id="Vector_287" d="M147.874 102.352H149.299L149.584 102.494L149.441 103.349L148.729 103.634L147.732 103.491L147.589 103.349V102.637L147.874 102.352Z" fill="#6191C9"/>
<path id="Vector_288" d="M106.989 108.477L107.986 108.62L108.128 109.902L107.986 110.044H106.276L106.989 108.477Z" fill="#BBDCFE"/>
<path id="Vector_289" d="M67.9552 86.3965H68.3826V87.5361L67.9552 88.3909L67.1005 88.6758L66.958 88.3909L67.1005 86.9663L67.6703 86.6814L67.9552 86.3965Z" fill="#6893CC"/>
<path id="Vector_290" d="M174.941 116.883H175.938L176.793 117.167V117.88L176.65 118.022H174.941L174.798 117.88V117.025L174.941 116.883Z" fill="#9CBEE7"/>
<path id="Vector_291" d="M153.145 74.2876H154.854L154.997 74.4301V75.2848L154.854 75.4273L153.002 75.2848V74.4301L153.145 74.2876Z" fill="#83AADA"/>
<path id="Vector_292" d="M135.338 102.352L135.908 102.779L136.62 102.922L142.888 103.064V103.207H138.33V103.491H136.335L135.338 103.064V102.352Z" fill="#3F81C8"/>
<path id="Vector_293" d="M157.561 70.5837H159.413V71.5809L157.704 71.7234L157.419 71.5809V70.7262L157.561 70.5837Z" fill="#7EAADB"/>
<path id="Vector_294" d="M166.109 129.561H167.961V130.558H165.966L165.824 129.988L166.109 129.561Z" fill="#7FA4D4"/>
<path id="Vector_295" d="M147.874 116.883H149.299L149.441 117.025V118.022H147.732L147.589 117.88V117.167L147.874 116.883Z" fill="#8FB2DD"/>
<path id="Vector_296" d="M65.6765 81.2681H65.9614L66.1039 81.553V82.8351L65.5341 82.9776H64.3944L64.252 82.6926L65.1067 81.6954L65.2492 81.4105L65.6765 81.2681Z" fill="#BBDCFE"/>
<path id="Vector_297" d="M147.732 132.98H149.441L149.584 133.55L149.014 134.12L147.732 133.977L147.589 133.835V133.123L147.732 132.98Z" fill="#4B82BE"/>
<path id="Vector_298" d="M67.1005 177.142L67.5279 177.427V178.424H64.6787L65.1061 178.139L66.5307 177.285L67.1005 177.142Z" fill="#E6F3FE"/>
<path id="Vector_299" d="M142.034 127.709L142.319 127.852L142.034 128.564L140.324 130.558L139.469 131.271L139.185 131.128L140.467 129.561L142.034 127.709Z" fill="#82A5D4"/>
<path id="Vector_300" d="M142.603 127.282H143.03L142.745 127.994L140.893 130.274L139.469 131.841L138.899 131.983V131.271L139.896 130.843L141.606 128.991L142.175 128.137L142.318 127.424L142.603 127.282Z" fill="#5C93D4"/>
<path id="Vector_301" d="M154.285 70.5837H156.136V71.5809L155.852 71.7234H154.712L154.569 71.4385V71.7234H154.142L154.285 70.5837Z" fill="#84AAD9"/>
<path id="Vector_302" d="M162.832 141.385L163.117 141.955L163.259 143.665V148.081H162.974L162.832 148.366V141.385Z" fill="#E0DCCD"/>
<path id="Vector_303" d="M155.14 98.9326H156.707V100.072H155.14L154.997 99.9298V99.0751L155.14 98.9326Z" fill="#749FD5"/>
<path id="Vector_304" d="M135.338 86.1118H135.623V87.2515H135.908L136.05 87.5364L137.19 87.6789L139.897 87.8213L139.754 88.1062H136.05L135.338 87.5364V86.1118Z" fill="#2B75BF"/>
<path id="Vector_305" d="M148.871 98.9326H149.868H150.296L150.58 99.0751V99.9298L150.438 100.072H148.729V99.0751L148.871 98.9326Z" fill="#82A9DA"/>
<path id="Vector_306" d="M132.204 177.427L133.201 177.712V178.139L133.629 178.282V178.424H129.925V178.282L131.492 178.139L131.634 177.569L132.204 177.427Z" fill="#E6F3FE"/>
<path id="Vector_307" d="M155.567 113.463H156.707L156.849 113.606V114.461L156.707 114.603H155.14V113.606L155.567 113.463Z" fill="#5C95D7"/>
<path id="Vector_308" d="M101.718 80.4133L102.288 80.6982L103.427 81.9804V82.8351L102.715 82.6927L101.718 81.1256V80.4133Z" fill="#83A6D4"/>
<path id="Vector_309" d="M155.14 129.561H156.707V130.558L156.564 130.701H155.567L154.997 130.558L155.14 129.561Z" fill="#508BCD"/>
<path id="Vector_310" d="M176.366 102.637L176.936 102.779L178.218 104.061L179.215 105.201L181.352 107.338H180.925L176.509 102.922L175.939 103.491L175.654 103.349L176.366 102.637Z" fill="#C7D9ED"/>
<path id="Vector_311" d="M160.41 70.5837H162.12V71.5809L161.977 71.7234H160.553L160.41 71.5809V70.5837Z" fill="#76A0D2"/>
<path id="Vector_312" d="M104.851 86.824L105.136 87.1089L105.564 88.5335H104.566L104.139 88.391L103.997 87.2513L104.139 87.1089H104.851V86.824Z" fill="#BBDCFE"/>
<path id="Vector_313" d="M163.117 70.5837H163.972L163.829 71.4385H164.114V70.5837H164.969V71.5809L163.26 71.7234L162.975 71.4385V70.7262L163.117 70.5837Z" fill="#5D93D1"/>
<path id="Vector_314" d="M83.1985 6.19287H83.4835V6.47779L82.3438 7.33253L80.9192 8.61465L79.0673 10.3241L78.0701 11.3213L77.7852 11.1789L80.7768 8.18728L82.2013 6.90516L83.1985 6.19287Z" fill="#B0D0F4"/>
<path id="Vector_315" d="M51.573 91.24H51.8579V92.3797L51.7155 92.5221H48.439V92.3797L50.1485 92.0947L51.1457 91.8098L50.7183 91.5249L51.573 91.24Z" fill="#FEFEFE"/>
<path id="Vector_316" d="M155.14 83.8323H156.707V84.8295H155.282L154.997 84.687L155.14 83.8323Z" fill="#8CB2E1"/>
<path id="Vector_317" d="M171.665 129.561H173.374V130.558L172.662 130.701L172.092 130.416H171.665V129.561Z" fill="#7FA6D7"/>
<path id="Vector_318" d="M152.86 70.4414H155.994V70.5839H154.285V71.4386L154.142 71.7235H153.288L153.145 70.7263H152.86V70.4414Z" fill="#A1C2E7"/>
<path id="Vector_319" d="M50.1481 116.598L50.2906 117.025L49.0084 118.165H48.0112L48.1537 118.592L47.4414 118.45L48.1537 117.88L49.7207 116.74L50.1481 116.598Z" fill="#7D9CC8"/>
<path id="Vector_320" d="M64.3936 115.031L65.2483 115.315L74.2231 115.458V115.6L64.8209 115.743L64.3936 115.315V115.031Z" fill="#E5F1FC"/>
<path id="Vector_321" d="M143.743 70.4414L144.17 70.7263L144.028 71.4386L144.313 71.2962L144.455 70.4414H144.74V71.4386L145.31 71.2962V70.5839H145.595V71.5811H143.458L143.315 71.4386V70.7263L143.743 70.4414Z" fill="#5E94D2"/>
<path id="Vector_322" d="M148.871 113.463H150.438L150.58 113.606V114.461L150.438 114.603H149.441L149.726 113.748H149.441L149.298 114.176L149.156 113.891V114.603H148.871L148.729 113.606L148.871 113.463Z" fill="#76A3D9"/>
<path id="Vector_323" d="M150.581 116.883H152.148V118.022H151.721V117.31L151.578 118.022L151.008 117.88L150.581 118.022V116.883Z" fill="#7CA4D6"/>
<path id="Vector_324" d="M142.46 111.896V112.324L141.036 114.033L140.038 115.173L139.326 115.885H138.756V115.6L140.323 114.46L141.606 112.751L142.46 111.896Z" fill="#4787CE"/>
<path id="Vector_325" d="M142.603 96.6536H143.03L142.888 97.2234L141.748 98.648H141.321L141.463 98.5055L141.178 98.2206L142.175 97.0809L142.603 96.6536Z" fill="#5490D6"/>
<path id="Vector_326" d="M5.98633 67.4497L6.98353 68.3045L9.69023 71.0111L10.4025 71.4385L10.6874 72.0084L9.97514 71.7234L9.83268 71.2961L9.26285 71.0111L5.98633 67.7346V67.4497Z" fill="#BFDEFE"/>
<path id="Vector_327" d="M160.268 74.2876H160.553V75.2848L160.411 75.4273H156.137L155.852 75.2848L155.995 74.4301H156.137V75.1423H160.268V74.2876Z" fill="#6491C4"/>
<path id="Vector_328" d="M97.3018 72.4358L106.419 72.5782V72.7207L97.5867 72.8632L97.3018 72.4358Z" fill="#E5F2FD"/>
<path id="Vector_329" d="M89.8933 123.151H90.3207L90.4632 123.72L91.1754 123.863L91.033 124.148L88.8961 124.005L88.4688 123.863V123.578L89.8933 123.151Z" fill="#E1EFFC"/>
<path id="Vector_330" d="M146.592 70.5837H147.305V71.4385H147.732V70.5837H148.302V71.5809H146.592V70.5837Z" fill="#5891D2"/>
<path id="Vector_331" d="M149.299 70.4414H150.581V71.5811L149.869 71.7235L149.726 71.2962L149.584 70.7263L149.441 71.5811H149.156V70.5839L149.299 70.4414Z" fill="#74A1D5"/>
<path id="Vector_332" d="M170.525 129.561H171.095H171.522V130.416L172.092 130.273L172.804 130.416L172.662 130.701H170.952L170.382 130.558L170.525 129.561Z" fill="#78A1D4"/>
<path id="Vector_333" d="M135.48 116.312L135.765 116.882L136.05 117.31L136.478 117.452L140.039 117.595V117.737L136.05 117.88L135.338 117.31V116.455L135.48 116.312Z" fill="#216EB6"/>
<path id="Vector_334" d="M87.4717 71.5811L89.1812 72.0084L89.6085 72.2933L89.1812 72.5783H87.6141L87.4717 71.5811Z" fill="#BBDCFE"/>
<path id="Vector_335" d="M104.14 107.765H104.852L104.567 108.62L103.855 109.332L103.143 109.76L102.858 109.617L103.285 109.047L103.713 108.62L104.14 107.765Z" fill="#7D9CC8"/>
<path id="Vector_336" d="M153.43 132.98H153.715L153.857 133.408L154 132.98H154.997V134.12L154.427 133.977V133.265L154.142 133.123L154.285 134.12H153.288L153.43 132.98Z" fill="#5B91D1"/>
<path id="Vector_337" d="M136.193 79.2737L136.762 79.4161L136.62 79.7011L135.908 80.1284L135.765 80.5558L135.623 82.2653L135.338 81.9804V79.986L135.765 79.4161L136.193 79.2737Z" fill="#276FB4"/>
<path id="Vector_338" d="M140.324 70.5837H140.894V71.4385H141.321L141.179 70.5837H142.034V71.5809H140.467L140.324 70.5837Z" fill="#6699D5"/>
<path id="Vector_339" d="M60.5474 70.7261H67.5278L67.9552 71.011L67.3853 71.2959L66.958 71.1534L67.1004 71.011L60.5474 70.8685V70.7261Z" fill="#E3F1FE"/>
<path id="Vector_340" d="M46.8716 151.357H47.1565L48.0112 154.776V155.631L47.7263 155.346L46.8716 151.927V151.357Z" fill="#C26351"/>
<path id="Vector_341" d="M67.6699 109.047L68.3822 109.19V109.475L69.5219 110.472L69.6643 110.899L68.952 110.757L67.8124 109.617L67.6699 109.047Z" fill="#528FD7"/>
<path id="Vector_342" d="M45.4468 45.2266L46.0166 45.6539L46.444 45.5115L47.8686 46.7936L48.1535 47.221L47.5836 47.0785L46.8714 46.5087L45.5892 45.7964L45.4468 45.2266Z" fill="#E6F3FE"/>
<path id="Vector_343" d="M51.0029 166.03L51.2878 166.458L51.8577 168.595V169.734L51.4303 169.877L51.2878 167.882L51.0029 166.6V166.03Z" fill="#FF7150"/>
<path id="Vector_344" d="M193.318 177.997H195.882L196.309 178.281L195.882 178.424H193.745L193.318 178.281V177.997Z" fill="#E6F3FE"/>
<path id="Vector_345" d="M170.81 142.24L171.95 142.382L172.52 143.237V143.522L171.807 143.38L170.953 142.667L170.81 142.24Z" fill="#E6F3FE"/>
<path id="Vector_346" d="M52.855 95.2288L53.2824 95.6561V97.9355L52.9974 98.6477H52.855V95.2288Z" fill="#829DBB"/>
<path id="Vector_347" d="M152.148 132.838H153.002V134.12H151.863L152.29 133.977L152.005 133.692L152.148 132.838Z" fill="#97BFEA"/>
<path id="Vector_348" d="M147.874 113.463H148.587V114.603H147.732L147.589 113.891L147.874 113.463Z" fill="#78A4DB"/>
<path id="Vector_349" d="M174.798 117.025H175.083V117.737L175.368 117.595V117.025H175.653L175.796 117.737H176.365L176.508 117.025L176.793 117.168V117.88L176.65 118.022H174.941L174.798 117.88V117.025Z" fill="#4A87C9"/>
<path id="Vector_350" d="M100.009 1.91919L100.578 2.06165L99.1538 2.91639L98.1566 4.48343L98.0142 3.9136L98.8689 2.63148L100.009 1.91919Z" fill="#BBDCFE"/>
<path id="Vector_351" d="M153.003 132.838H154.855V132.98H154L153.858 133.977H153.715V132.98H153.43V133.977L153.003 134.12L152.86 133.407L153.003 132.838Z" fill="#B8D9FC"/>
<path id="Vector_352" d="M147.732 117.025H148.017V117.88L149.014 117.737L149.156 117.168L148.302 117.31V117.025H149.441V118.022H147.732L147.589 117.88V117.168L147.732 117.025Z" fill="#4D8CD3"/>
<path id="Vector_353" d="M67.2434 74.8577L67.5283 75.0001L67.2434 75.4275L69.0954 75.57L69.2378 75.8549H67.2434L66.3887 75.7124L67.101 75.0001L67.2434 74.8577Z" fill="#E4F1FC"/>
<path id="Vector_354" d="M162.12 150.502L162.262 150.93L161.265 152.354L160.552 153.067L160.268 152.924L160.98 152.212L161.55 151.072L162.12 150.502Z" fill="#63815C"/>
<path id="Vector_355" d="M148.302 98.9326L148.587 99.0751V100.072H147.589V99.0751L148.302 98.9326Z" fill="#80A6D7"/>
<path id="Vector_356" d="M53.4244 90.9553L53.7094 91.5252L53.5669 92.5224L53.282 92.9497H52.9971V91.8101L53.1395 91.0978L53.4244 90.9553Z" fill="#7F9DC4"/>
<path id="Vector_357" d="M152.86 160.19H153.858L154 160.76L153.145 161.329H152.86V160.19Z" fill="#FAFAFB"/>
<path id="Vector_358" d="M12.6823 154.491H12.8247V155.774L12.5398 157.91L12.2549 158.053V156.771L12.5398 155.061L12.6823 154.491Z" fill="#162022"/>
<path id="Vector_359" d="M142.746 81.4106H143.173L142.889 82.1229L142.319 82.5503V82.1229L141.037 83.4051V82.9777L142.034 81.838L142.746 81.4106Z" fill="#6193CF"/>
<path id="Vector_360" d="M161.265 150.218L161.835 150.502L161.693 151.072L160.838 152.212L160.695 151.785L161.265 150.218Z" fill="#EEF0F3"/>
<path id="Vector_361" d="M173.517 116.883L173.801 117.025V118.022H171.807L171.665 117.31L171.807 117.025H172.092V117.737H173.374L173.517 116.883Z" fill="#5D93D3"/>
<path id="Vector_362" d="M135.338 86.1118H135.623V87.2515H135.908L136.05 87.5364L137.19 87.6789V87.8213H136.335V88.1062L135.623 87.8213L135.338 87.5364V86.1118Z" fill="#377BC0"/>
<path id="Vector_363" d="M73.9385 70.8684H76.0753L75.9329 71.2958L75.648 71.4382H74.3658L73.9385 71.1533V70.8684Z" fill="#829EBD"/>
<path id="Vector_364" d="M135.765 94.6592H138.187V94.8016L136.477 95.0866L135.765 95.5139H135.48V94.8016L135.765 94.6592Z" fill="#2670B7"/>
<path id="Vector_365" d="M13.2516 149.22H13.394V150.645L13.1091 152.497H12.8242L12.9667 150.36L13.2516 149.22Z" fill="#172224"/>
<path id="Vector_366" d="M142.603 127.282H143.03L142.745 127.994L141.463 129.561L141.178 129.419L142.175 128.137L142.318 127.424L142.603 127.282Z" fill="#4E8BCF"/>
<path id="Vector_367" d="M136.763 112.466L137.047 112.609L137.475 113.606L138.33 114.746V115.031H138.045L136.62 113.036L136.763 112.466Z" fill="#3378BC"/>
<path id="Vector_368" d="M95.3069 87.821H95.4493V91.0976L95.1644 90.8127L95.022 89.673L95.3069 87.821Z" fill="#4D8ED9"/>
<path id="Vector_369" d="M153.002 74.4302H153.287V75.1425H154.712V74.5726L154.427 74.4302H154.997V75.2849L154.854 75.4274L153.002 75.2849V74.4302Z" fill="#4382C4"/>
<path id="Vector_370" d="M19.2349 172.868L19.8047 173.011L21.3717 174.578L20.9444 174.72L20.2321 174.151L19.2349 173.011V172.868Z" fill="#212B23"/>
<path id="Vector_371" d="M71.2319 119.447L72.5141 119.589L73.7962 120.017V120.444L72.3716 120.017L71.2319 119.589V119.447Z" fill="#E2EDF8"/>
<path id="Vector_372" d="M155.567 113.749H156.422V114.603H155.424V113.891L155.567 113.749Z" fill="#7EA5D7"/>
<path id="Vector_373" d="M58.5533 176.145L59.2656 176.43L58.8383 176.572L58.6958 177.427L58.4109 177.997H58.126L58.2684 176.857L58.5533 176.145Z" fill="#E4EEF7"/>
<path id="Vector_374" d="M172.092 135.402L172.376 135.544L171.807 136.114H171.522V136.399L170.097 137.539V137.111L170.809 136.399L172.092 135.402Z" fill="#E1F0FE"/>
<path id="Vector_375" d="M68.0977 82.6929L68.6675 82.8353L70.5194 82.9778L70.8044 83.2627L69.6647 83.5476L69.2373 83.2627L68.0977 82.9778V82.6929Z" fill="#E3F1FD"/>
<path id="Vector_376" d="M21.6567 96.7959L22.0841 96.9384L23.2238 98.6478L23.0813 99.2177L21.6567 97.0808V96.7959Z" fill="#243D48"/>
<path id="Vector_377" d="M31.6284 151.642L32.0558 151.785L32.4832 152.497L34.0502 153.636L33.6228 153.779L32.1982 152.639L31.6284 151.927V151.642Z" fill="#5D7563"/>
<path id="Vector_378" d="M30.6313 149.505L31.0587 150.075L31.771 151.357L31.6286 151.784L31.0587 151.072L30.6313 150.075V149.505Z" fill="#7A9D61"/>
<path id="Vector_379" d="M102.857 114.746H103.142V115.458H105.564V115.6H102.857L102.43 115.315L102.857 114.746Z" fill="#E3F1FE"/>
<path id="Vector_380" d="M147.874 102.637H148.158V103.207H148.443V102.637H149.156V103.349H148.016L147.874 102.637Z" fill="#ABCEF5"/>
<path id="Vector_381" d="M148.302 133.123L149.156 133.265V133.693L148.871 133.835H148.017V133.265L148.302 133.123Z" fill="#B9D9FB"/>
<path id="Vector_382" d="M152.147 70.4414H152.86V71.7235H152.432V70.7263L152.29 71.7235L152.005 71.4386L152.147 70.4414Z" fill="#6E9AD1"/>
<path id="Vector_383" d="M168.103 113.463L168.673 113.606V114.745L168.388 114.888L168.103 114.745V113.463Z" fill="#FEFEFE"/>
<path id="Vector_384" d="M86.1899 67.8772H89.0391V68.0197H87.4721V68.3046L86.1899 68.1621V67.8772Z" fill="#E1EEFB"/>
<path id="Vector_385" d="M80.9189 66.3103H81.0614V67.45L81.9161 67.3075L82.0586 66.4528H82.2011V67.3075L83.0558 67.45V67.5924H80.9189V66.3103Z" fill="#E6F3FE"/>
<path id="Vector_386" d="M145.595 153.494H145.737V154.491L145.452 155.773L145.167 155.916V154.919L145.595 153.494Z" fill="#AB5E51"/>
<path id="Vector_387" d="M93.7404 107.195L93.8828 107.48L93.4555 108.477L92.7432 109.332L92.1733 109.474L93.0281 108.477L93.7404 107.195Z" fill="#5791D6"/>
<path id="Vector_388" d="M133.771 176.572L134.768 176.999L134.626 177.427L134.483 177.142L132.346 176.999L132.916 176.714L133.771 176.572Z" fill="#E6F3FE"/>
<path id="Vector_389" d="M159.128 70.5837H159.413V71.5809H158.273L158.416 71.1536L158.843 70.8687L158.986 71.0111L159.128 70.5837Z" fill="#5B85B6"/>
<path id="Vector_390" d="M164.115 134.975L164.969 135.544L165.967 136.684L165.824 136.969L164.115 135.26V134.975Z" fill="#DCE5EF"/>
<path id="Vector_391" d="M102.43 109.902L102.572 110.329L102.287 110.472L101.86 110.329L99.1533 110.187V110.045L102.43 109.902Z" fill="#E4F1FD"/>
<path id="Vector_392" d="M67.3851 74.4302H67.6701L67.5276 74.8575L66.2455 75.7123L66.103 75.4274H66.3879V74.7151H66.8153L67.3851 74.4302Z" fill="#839EBC"/>
<path id="Vector_393" d="M139.042 70.7261H139.327L139.469 71.1534L139.754 70.8685V71.2959L140.039 71.4384V70.7261L140.324 71.1534V71.5808H139.184L139.042 71.4384V70.7261Z" fill="#568DCD"/>
<path id="Vector_394" d="M17.2407 63.4607H17.5256L18.2379 64.173L18.6653 64.7428L18.3804 65.4551H17.953L18.2379 64.7428L17.2407 63.6032V63.4607Z" fill="#BFDEFE"/>
<path id="Vector_395" d="M136.62 82.8352L137.047 82.9777L137.617 84.1173L138.045 84.8296L137.617 84.6872L136.62 83.2626V82.8352Z" fill="#3579BE"/>
<path id="Vector_396" d="M61.5449 72.5781H64.9639V72.863L64.5365 73.0055L64.2516 72.863L61.5449 72.7206V72.5781Z" fill="#E5F2FD"/>
<path id="Vector_397" d="M144.74 70.4414H145.594L145.309 70.5839V71.2962L144.74 71.4386L144.597 70.8688L144.74 70.4414Z" fill="#BBD8F7"/>
<path id="Vector_398" d="M162.405 70.5837H162.832V71.7234L162.262 71.5809V70.7262L162.405 70.5837Z" fill="#75A0D3"/>
<path id="Vector_399" d="M146.592 70.4414H148.302L147.732 70.5839V71.4386H147.305V70.5839H146.592V70.4414Z" fill="#CBE4FD"/>
<path id="Vector_400" d="M155.424 129.704H156.137L156.279 130.416H155.424V129.704Z" fill="#B2D3F8"/>
<path id="Vector_401" d="M142.461 111.896V112.324L141.179 113.891L141.037 113.463L142.319 112.039L142.461 111.896Z" fill="#5891D5"/>
<path id="Vector_402" d="M88.4695 120.302H88.7544V120.586L87.8997 120.871L87.3298 120.729L86.4751 120.586V120.444L88.4695 120.302Z" fill="#DFEEFB"/>
<path id="Vector_403" d="M26.2153 104.916L26.6427 105.058L27.2125 106.626L27.0701 106.91L26.2153 105.201V104.916Z" fill="#EBECED"/>
<path id="Vector_404" d="M89.894 84.6873H91.0337L92.0309 85.1146L91.4611 85.2571L90.0365 84.9722L89.894 84.6873Z" fill="#5691D7"/>
<path id="Vector_405" d="M155.14 83.8323H156.707V84.687H156.422L156.137 84.1172H155.425L155.14 84.4021V83.8323Z" fill="#4988CD"/>
<path id="Vector_406" d="M155.567 70.5837H156.137V71.5809H155.567V70.5837Z" fill="#6496D3"/>
<path id="Vector_407" d="M147.731 132.98H149.441L149.583 133.55L149.156 133.693V133.265H148.301L147.874 133.408L147.731 132.98Z" fill="#5B92D2"/>
<path id="Vector_408" d="M67.5276 109.617L68.0974 109.76L68.2399 110.045L67.6701 110.187H65.5332L65.6757 109.902L67.5276 110.045V109.617Z" fill="#E1F0FE"/>
<path id="Vector_409" d="M137.19 98.363L137.902 99.0753L138.757 100.215L138.045 99.9301L137.19 98.648V98.363Z" fill="#7098CD"/>
<path id="Vector_410" d="M163.117 70.5837H163.972L163.544 71.4385H162.975V70.7262L163.117 70.5837Z" fill="#84ABDB"/>
<path id="Vector_411" d="M139.185 70.5837H140.182L140.039 71.4385L139.612 71.296H139.327L139.185 70.5837Z" fill="#9ABEE8"/>
</g>
<defs>
<clipPath id="clip0_4839_2928">
<rect width="194.232" height="188" fill="white" transform="translate(0.383789)"/>
</clipPath>
</defs>
</svg>
