<svg width="15" height="14" viewBox="0 0 15 14" fill="none" xmlns="http://www.w3.org/2000/svg">
<g id="fluent:edit-24-filled">
<path id="Vector" d="M9.59841 1.77851C9.98982 1.38702 10.5207 1.16705 11.0743 1.16699C11.6279 1.16694 12.1589 1.3868 12.5504 1.77822C12.9419 2.16963 13.1618 2.70054 13.1619 3.25414C13.1619 3.80774 12.9421 4.33868 12.5507 4.73018L12.0303 5.25109L9.07866 2.29884L9.59841 1.77851ZM8.46032 2.91776L2.62699 8.75051C2.38989 8.98737 2.22327 9.28546 2.14574 9.61151L1.50699 12.296C1.4897 12.3687 1.49132 12.4447 1.5117 12.5166C1.53208 12.5885 1.57055 12.654 1.62343 12.7068C1.67631 12.7596 1.74184 12.798 1.81377 12.8183C1.8857 12.8386 1.96163 12.8401 2.03432 12.8228L4.71824 12.1834C5.0445 12.106 5.3428 11.9394 5.57982 11.7022L11.412 5.86942L8.46032 2.91776Z" fill="black"/>
</g>
</svg>
