<svg width="17" height="18" viewBox="0 0 17 18" fill="none" xmlns="http://www.w3.org/2000/svg">
<g id="iwwa:option">
<g id="Group">
<path id="Vector" d="M9.83317 4.80924C9.83323 4.97789 9.80006 5.1449 9.73557 5.30074C9.67108 5.45657 9.57653 5.59818 9.45731 5.71747C9.3381 5.83677 9.19655 5.93141 9.04076 5.996C8.88497 6.06059 8.71798 6.09386 8.54932 6.09392C8.38067 6.09397 8.21366 6.06081 8.05783 5.99632C7.90199 5.93183 7.76039 5.83727 7.64109 5.71806C7.5218 5.59884 7.42716 5.45729 7.36257 5.3015C7.29798 5.14571 7.2647 4.97872 7.26465 4.81007C7.26454 4.46946 7.39974 4.14276 7.64051 3.90183C7.88128 3.66091 8.20789 3.5255 8.5485 3.52539C8.88911 3.52528 9.21581 3.66048 9.45673 3.90125C9.69765 4.14202 9.83307 4.46863 9.83317 4.80924Z" fill="black"/>
<path id="Vector_2" d="M8.55045 10.5008C9.2595 10.5008 9.8343 9.92601 9.8343 9.21696C9.8343 8.50791 9.2595 7.93311 8.55045 7.93311C7.8414 7.93311 7.2666 8.50791 7.2666 9.21696C7.2666 9.92601 7.8414 10.5008 8.55045 10.5008Z" fill="black"/>
<path id="Vector_3" d="M8.55045 14.909C9.2595 14.909 9.8343 14.3342 9.8343 13.6252C9.8343 12.9161 9.2595 12.3413 8.55045 12.3413C7.8414 12.3413 7.2666 12.9161 7.2666 13.6252C7.2666 14.3342 7.8414 14.909 8.55045 14.909Z" fill="black"/>
</g>
</g>
</svg>
