<svg width="17" height="16" viewBox="0 0 17 16" fill="none" xmlns="http://www.w3.org/2000/svg">
<g id="material-symbols:share">
<path id="Vector" d="M11.6631 14.6668C11.1075 14.6668 10.6353 14.4724 10.2464 14.0835C9.85753 13.6946 9.66309 13.2224 9.66309 12.6668C9.66309 12.6002 9.67975 12.4446 9.71309 12.2002L5.02975 9.46683C4.85197 9.6335 4.64642 9.76416 4.41309 9.85883C4.17975 9.9535 3.92975 10.0006 3.66309 10.0002C3.10753 10.0002 2.63531 9.80572 2.24642 9.41683C1.85753 9.02794 1.66309 8.55572 1.66309 8.00016C1.66309 7.44461 1.85753 6.97238 2.24642 6.5835C2.63531 6.19461 3.10753 6.00016 3.66309 6.00016C3.92975 6.00016 4.17975 6.0475 4.41309 6.14216C4.64642 6.23683 4.85197 6.36727 5.02975 6.5335L9.71309 3.80016C9.69086 3.72238 9.67709 3.6475 9.67175 3.5755C9.66642 3.5035 9.66353 3.42283 9.66309 3.3335C9.66309 2.77794 9.85753 2.30572 10.2464 1.91683C10.6353 1.52794 11.1075 1.3335 11.6631 1.3335C12.2186 1.3335 12.6909 1.52794 13.0798 1.91683C13.4686 2.30572 13.6631 2.77794 13.6631 3.3335C13.6631 3.88905 13.4686 4.36127 13.0798 4.75016C12.6909 5.13905 12.2186 5.3335 11.6631 5.3335C11.3964 5.3335 11.1464 5.28616 10.9131 5.1915C10.6798 5.09683 10.4742 4.96638 10.2964 4.80016L5.61309 7.5335C5.63531 7.61127 5.64931 7.68638 5.65509 7.75883C5.66086 7.83127 5.66353 7.91172 5.66309 8.00016C5.66264 8.08861 5.65997 8.16927 5.65509 8.24216C5.6502 8.31505 5.6362 8.38994 5.61309 8.46683L10.2964 11.2002C10.4742 11.0335 10.6798 10.9031 10.9131 10.8088C11.1464 10.7146 11.3964 10.6673 11.6631 10.6668C12.2186 10.6668 12.6909 10.8613 13.0798 11.2502C13.4686 11.6391 13.6631 12.1113 13.6631 12.6668C13.6631 13.2224 13.4686 13.6946 13.0798 14.0835C12.6909 14.4724 12.2186 14.6668 11.6631 14.6668Z" fill="black"/>
</g>
</svg>
