<svg width="24" height="24" viewBox="0 0 24 24" fill="none" xmlns="http://www.w3.org/2000/svg">
<path d="M8.14995 21.75L6.69995 19.3L3.94995 18.7C3.69995 18.65 3.49995 18.521 3.34995 18.313C3.19995 18.105 3.14162 17.8757 3.17495 17.625L3.44995 14.8L1.57495 12.65C1.40828 12.4667 1.32495 12.25 1.32495 12C1.32495 11.75 1.40828 11.5334 1.57495 11.35L3.44995 9.20004L3.17495 6.37504C3.14162 6.12504 3.19995 5.89571 3.34995 5.68704C3.49995 5.47837 3.69995 5.34937 3.94995 5.30004L6.69995 4.70004L8.14995 2.25004C8.28328 2.03337 8.46662 1.88737 8.69995 1.81204C8.93328 1.73671 9.16662 1.74937 9.39995 1.85004L12 2.95004L14.6 1.85004C14.8333 1.75004 15.0666 1.73737 15.3 1.81204C15.5333 1.88671 15.7166 2.03271 15.85 2.25004L17.3 4.70004L20.0499 5.30004C20.2999 5.35004 20.5 5.47937 20.65 5.68804C20.7999 5.89671 20.8583 6.12571 20.825 6.37504L20.5499 9.20004L22.4249 11.35C22.5916 11.5334 22.6749 11.75 22.6749 12C22.6749 12.25 22.5916 12.4667 22.4249 12.65L20.5499 14.8L20.825 17.625C20.8583 17.875 20.7999 18.1044 20.65 18.313C20.5 18.5217 20.2999 18.6507 20.0499 18.7L17.3 19.3L15.85 21.75C15.7166 21.9667 15.5333 22.1127 15.3 22.188C15.0666 22.2634 14.8333 22.2507 14.6 22.15L12 21.05L9.39995 22.15C9.16662 22.25 8.93328 22.2627 8.69995 22.188C8.46662 22.1134 8.28328 21.9674 8.14995 21.75Z" fill="#E50000"/>
<path d="M9.5 9.5L14.5 14.5M9.5 14.5L14.5 9.5" stroke="white" stroke-width="1.9" stroke-linecap="round" stroke-linejoin="round"/>
</svg>
