<svg width="20" height="20" viewBox="0 0 20 20" fill="none" xmlns="http://www.w3.org/2000/svg">
<g id="system-file-manager-symbolic_svgrepo.com">
<path id="Vector" d="M4.9925 1.25C3.42 1.26875 2.26875 1.21375 1.32875 1.73375C0.841392 2.01015 0.468962 2.45175 0.27875 2.97875C0.0725 3.525 0 4.17875 0 5V15C0 15.8225 0.0725 16.4737 0.27875 17.0212C0.48375 17.57 0.8575 18.0087 1.32875 18.2687C2.26875 18.7887 3.42 18.7313 4.9925 18.75H15.0075C16.58 18.7313 17.7313 18.7875 18.6725 18.2687C19.1425 18.01 19.5163 17.5688 19.7225 17.0212C19.9275 16.4737 20 15.8213 20 15V7.5C20 6.6775 19.9275 6.02625 19.7213 5.47875C19.6963 5.41 19.6613 5.34875 19.6287 5.28625L19.595 5.215C19.3928 4.80218 19.0715 4.4595 18.6725 4.23125C17.7313 3.71125 16.58 3.76875 15.0075 3.75H11.2088L8.68125 1.25H4.995H4.9925ZM5.0075 2.5H8.17L10.375 4.6825L8.79125 6.25H4.9925C3.42 6.26875 2.26875 6.2125 1.3275 6.73125C1.3 6.74625 1.2775 6.76875 1.25 6.785V5C1.25 4.26 1.3275 3.7425 1.45 3.4175C1.5725 3.0925 1.70375 2.95375 1.93375 2.8275C2.39125 2.57375 3.4275 2.51875 5.0075 2.5ZM11.8313 5H14.99C16.57 5.01875 17.605 5.075 18.065 5.3275C18.2938 5.4525 18.425 5.5925 18.5475 5.9175C18.67 6.2425 18.75 6.76 18.75 7.5V15C18.75 15.74 18.6713 16.2575 18.55 16.5825C18.4275 16.9075 18.2963 17.0462 18.0662 17.1725C17.6088 17.425 16.575 17.4813 15 17.5H5C3.425 17.4813 2.39125 17.425 1.93375 17.1725C1.70375 17.0475 1.57125 16.9075 1.45 16.5825C1.32875 16.2575 1.25 15.74 1.25 15V10C1.25 9.26 1.33 8.7425 1.4525 8.4175C1.575 8.0925 1.70625 7.95375 1.93625 7.8275C2.395 7.57375 3.43 7.51875 5.01 7.5H9.30375L11.8313 5Z" fill="#888888"/>
<g id="Group 219">
<path id="Vector_2" d="M14.025 8.33301C13.1467 8.33301 12.4326 9.04706 12.4326 9.92537C12.4326 10.7869 13.1064 11.4842 13.9848 11.5144C14.0116 11.511 14.0384 11.511 14.0585 11.5144C14.0652 11.5144 14.0686 11.5144 14.0753 11.5144C14.0786 11.5144 14.0786 11.5144 14.082 11.5144C14.9402 11.4842 15.614 10.7869 15.6173 9.92537C15.6173 9.04706 14.9033 8.33301 14.025 8.33301Z" fill="#888888"/>
<path id="Vector_3" d="M15.729 12.7269C14.7937 12.1034 13.2684 12.1034 12.3264 12.7269C11.9007 13.0119 11.666 13.3974 11.666 13.8097C11.666 14.2221 11.9007 14.6042 12.3231 14.8858C12.7924 15.201 13.4092 15.3585 14.0261 15.3585C14.6429 15.3585 15.2597 15.201 15.729 14.8858C16.1514 14.6009 16.3861 14.2187 16.3861 13.803C16.3828 13.3907 16.1514 13.0085 15.729 12.7269Z" fill="#888888"/>
</g>
</g>
</svg>
