<svg width="20" height="21" viewBox="0 0 20 21" fill="none" xmlns="http://www.w3.org/2000/svg">
<g id="visibility">
<mask id="mask0_1866_1339" style="mask-type:alpha" maskUnits="userSpaceOnUse" x="0" y="0" width="20" height="21">
<rect id="Bounding box" y="0.5" width="20" height="20" fill="#D9D9D9"/>
</mask>
<g mask="url(#mask0_1866_1339)">
<path id="visibility_2" d="M9.99967 13.834C11.0413 13.834 11.9268 13.4694 12.6559 12.7402C13.3851 12.0111 13.7497 11.1257 13.7497 10.084C13.7497 9.04232 13.3851 8.1569 12.6559 7.42773C11.9268 6.69857 11.0413 6.33398 9.99967 6.33398C8.95801 6.33398 8.07259 6.69857 7.34342 7.42773C6.61426 8.1569 6.24967 9.04232 6.24967 10.084C6.24967 11.1257 6.61426 12.0111 7.34342 12.7402C8.07259 13.4694 8.95801 13.834 9.99967 13.834ZM9.99967 12.334C9.37467 12.334 8.84343 12.1152 8.40593 11.6777C7.96843 11.2402 7.74967 10.709 7.74967 10.084C7.74967 9.45898 7.96843 8.92773 8.40593 8.49023C8.84343 8.05273 9.37467 7.83398 9.99967 7.83398C10.6247 7.83398 11.1559 8.05273 11.5934 8.49023C12.0309 8.92773 12.2497 9.45898 12.2497 10.084C12.2497 10.709 12.0309 11.2402 11.5934 11.6777C11.1559 12.1152 10.6247 12.334 9.99967 12.334ZM9.99967 16.334C7.9719 16.334 6.12467 15.768 4.45801 14.6361C2.79134 13.5041 1.58301 11.9868 0.833008 10.084C1.58301 8.18121 2.79134 6.66385 4.45801 5.5319C6.12467 4.39996 7.9719 3.83398 9.99967 3.83398C12.0275 3.83398 13.8747 4.39996 15.5413 5.5319C17.208 6.66385 18.4163 8.18121 19.1663 10.084C18.4163 11.9868 17.208 13.5041 15.5413 14.6361C13.8747 15.768 12.0275 16.334 9.99967 16.334ZM9.99967 14.6673C11.5691 14.6673 13.0101 14.2541 14.3226 13.4277C15.6351 12.6013 16.6386 11.4868 17.333 10.084C16.6386 8.68121 15.6351 7.56662 14.3226 6.74023C13.0101 5.91385 11.5691 5.50065 9.99967 5.50065C8.43023 5.50065 6.98926 5.91385 5.67676 6.74023C4.36426 7.56662 3.36079 8.68121 2.66634 10.084C3.36079 11.4868 4.36426 12.6013 5.67676 13.4277C6.98926 14.2541 8.43023 14.6673 9.99967 14.6673Z" fill="#175DA8"/>
</g>
</g>
</svg>
