<svg width="17" height="17" viewBox="0 0 17 17" fill="none" xmlns="http://www.w3.org/2000/svg">
<g id="weui:location-filled">
<path id="Vector" fill-rule="evenodd" clip-rule="evenodd" d="M8.00735 15.2562C8.00735 15.2562 3.16602 11.1788 3.16602 7.16683C3.16602 5.75234 3.72792 4.39579 4.72811 3.39559C5.72831 2.3954 7.08486 1.8335 8.49935 1.8335C9.91384 1.8335 11.2704 2.3954 12.2706 3.39559C13.2708 4.39579 13.8327 5.75234 13.8327 7.16683C13.8327 11.1788 8.99135 15.2562 8.99135 15.2562C8.72202 15.5042 8.27868 15.5015 8.00735 15.2562ZM8.49935 9.50016C8.80577 9.50016 9.10918 9.43981 9.39228 9.32255C9.67537 9.20529 9.93259 9.03342 10.1493 8.81675C10.3659 8.60008 10.5378 8.34285 10.6551 8.05976C10.7723 7.77666 10.8327 7.47325 10.8327 7.16683C10.8327 6.86041 10.7723 6.55699 10.6551 6.2739C10.5378 5.99081 10.3659 5.73358 10.1493 5.51691C9.93259 5.30024 9.67537 5.12837 9.39228 5.01111C9.10918 4.89385 8.80577 4.8335 8.49935 4.8335C7.88051 4.8335 7.28702 5.07933 6.84943 5.51691C6.41185 5.9545 6.16602 6.54799 6.16602 7.16683C6.16602 7.78567 6.41185 8.37916 6.84943 8.81675C7.28702 9.25433 7.88051 9.50016 8.49935 9.50016Z" fill="#175DA8"/>
</g>
</svg>
