<svg width="189" height="177" viewBox="0 0 189 177" fill="none" xmlns="http://www.w3.org/2000/svg">
<g id="OBJECTS">
<path id="XMLID_32_" opacity="0.2" d="M142.294 149.277C167.828 123.729 167.828 82.308 142.294 56.7603C116.759 31.2126 75.3596 31.2126 49.8251 56.7603C24.2906 82.308 24.2906 123.729 49.8251 149.277C75.3596 174.825 116.759 174.825 142.294 149.277Z" fill="#175DA8"/>
<g id="XMLID_30_" opacity="0.5">
<path id="XMLID_163_" d="M107.555 28.3081C107.453 28.6627 107.236 28.9376 106.904 29.1332C106.572 29.3288 106.207 29.3696 105.81 29.255L89.4954 24.5506C89.099 24.436 88.8121 24.2077 88.6345 23.8647C88.4573 23.5218 88.4197 23.1735 88.5217 22.8194C88.6242 22.4653 88.843 22.1828 89.18 21.9732L89.3563 21.8398C90.2037 21.3474 90.8772 20.8204 91.3765 20.2586C92.2128 19.2719 92.8881 17.8862 93.4026 16.1004C93.8761 14.4569 94.7983 13.1725 96.1693 12.248C97.5399 11.3235 99.0635 10.934 100.739 11.08L100.996 10.1873C101.103 9.8188 101.329 9.53855 101.675 9.34694C102.022 9.15532 102.38 9.11279 102.747 9.2189C103.116 9.325 103.396 9.55153 103.587 9.8985C103.779 10.2455 103.821 10.6032 103.715 10.9716L103.458 11.8643C104.955 12.6335 106.037 13.7742 106.706 15.2869C107.375 16.7997 107.472 18.3778 106.998 20.0213C106.484 21.8067 106.319 23.3396 106.502 24.6204C106.626 25.3623 106.916 26.1668 107.371 27.0353C107.403 27.1365 107.429 27.2054 107.449 27.2417C107.622 27.5985 107.658 27.954 107.555 28.3081ZM104.869 26.7734C104.105 24.7422 104.131 22.309 104.947 19.4756L104.959 19.433C105.204 18.5829 105.22 17.7282 105.007 16.8686C104.795 16.0095 104.382 15.261 103.767 14.6235C103.153 13.9859 102.421 13.5445 101.571 13.2996C100.722 13.0547 99.8671 13.0386 99.0084 13.2513C98.1493 13.4639 97.4012 13.8776 96.764 14.4918C96.1272 15.1061 95.686 15.8385 95.4408 16.6887L95.4288 16.7312C94.6121 19.5651 93.3405 21.6379 91.6124 22.951L104.869 26.7734ZM94.792 29.6458C94.405 28.9662 94.3217 28.2441 94.5419 27.479L99.9803 29.0472C99.7602 29.8123 99.3051 30.3796 98.6156 30.7485C97.9265 31.1174 97.2137 31.1962 96.4772 30.9835C95.7411 30.7713 95.1791 30.3254 94.792 29.6458Z" fill="#175DA8"/>
</g>
<g id="XMLID_34_" opacity="0.5">
<path id="XMLID_158_" d="M162.967 67.2636L163.796 69.9708L164.642 69.7116C164.783 69.6686 164.917 69.6811 165.047 69.7496C165.175 69.8181 165.261 69.9229 165.304 70.0639L165.822 71.7562C165.865 71.8972 165.853 72.0319 165.784 72.1609C165.716 72.2898 165.611 72.3758 165.47 72.4192L164.625 72.678L165.453 75.3856L166.299 75.1264C166.439 75.0834 166.575 75.096 166.703 75.1645C166.832 75.233 166.918 75.3377 166.961 75.4787L167.479 77.1706C167.522 77.3116 167.509 77.4464 167.441 77.5753C167.373 77.7042 167.268 77.7902 167.127 77.8332L166.281 78.0924L166.903 80.1231C167.075 80.6868 167.025 81.2271 166.751 81.7424C166.477 82.2582 166.058 82.6024 165.495 82.7753L151.965 86.92C151.401 87.0924 150.862 87.0422 150.347 86.7682C149.831 86.4942 149.487 86.0752 149.314 85.5111L143.929 67.9136C143.756 67.3495 143.807 66.8096 144.081 66.2939C144.355 65.7781 144.774 65.4343 145.338 65.2615L158.867 61.1167C159.431 60.9439 159.97 60.995 160.485 61.2685C161.001 61.542 161.345 61.9611 161.518 62.5252L162.139 64.5559L162.985 64.2967C163.126 64.2537 163.261 64.2663 163.389 64.3348C163.518 64.4033 163.604 64.508 163.647 64.649L164.165 66.3409C164.209 66.4819 164.195 66.6171 164.127 66.7456C164.059 66.8745 163.954 66.9609 163.813 67.0039L162.967 67.2636ZM159.488 63.1475L145.959 67.2918L151.344 84.8893L164.873 80.7445L159.488 63.1475ZM152.542 80.5668C152.311 80.4678 152.161 80.3058 152.092 80.0801L151.846 79.2765C151.639 78.5996 151.737 77.9375 152.14 77.2897C152.542 76.6419 153.138 76.1973 153.928 75.9555C154.068 75.9121 154.265 75.8987 154.516 75.9139C155.01 75.917 155.483 75.849 155.934 75.7106C156.385 75.5723 156.814 75.3641 157.222 75.0852C157.45 74.9227 157.62 74.8242 157.733 74.7897C158.522 74.548 159.265 74.5829 159.961 74.8936C160.658 75.2048 161.109 75.6986 161.316 76.3755L161.562 77.1791C161.631 77.4047 161.598 77.6232 161.462 77.8345C161.326 78.0458 161.132 78.19 160.878 78.2679L153.267 80.5995C153.014 80.6765 152.772 80.6657 152.542 80.5668ZM153.268 73.7977C152.568 73.4256 152.106 72.8736 151.882 72.1403C151.658 71.407 151.731 70.6907 152.102 69.9909C152.474 69.2907 153.026 68.8287 153.759 68.604C154.492 68.3792 155.208 68.4531 155.908 68.8251C156.608 69.1967 157.069 69.7492 157.293 70.4825C157.518 71.2158 157.445 71.9321 157.073 72.6323C156.701 73.3321 156.149 73.7945 155.416 74.0188C154.683 74.2431 153.967 74.1692 153.268 73.7977Z" fill="#175DA8"/>
</g>
<g id="XMLID_41_" opacity="0.5">
<path id="XMLID_44_" d="M37.9811 76.7763C38.3771 77.1211 38.6245 77.3136 38.7221 77.3548C38.8948 77.4721 39.0147 77.6288 39.0827 77.8262C39.1503 78.0236 39.1574 78.2175 39.1042 78.4077C39.0505 78.598 38.9556 78.7663 38.8183 78.9132C38.6813 79.0596 38.5113 79.1523 38.3091 79.1912C36.427 79.5525 34.5097 79.3354 32.5556 78.5394C31.726 78.9087 30.8772 79.1769 30.0087 79.3434C28.1557 79.6993 26.4088 79.629 24.768 79.1334C23.1271 78.6379 21.8371 77.819 20.8979 76.6783C20.4522 76.7038 20.0191 76.7119 19.5967 76.7029C18.1053 78.1606 16.4045 79.073 14.4938 79.4397C14.2911 79.4786 14.0992 79.4553 13.9175 79.3698C13.7363 79.2848 13.5855 79.1634 13.4651 79.0063C13.3447 78.8492 13.2875 78.6652 13.2915 78.4538C13.296 78.243 13.351 78.0599 13.4566 77.9045C13.5618 77.7487 13.7112 77.4725 13.9054 77.075C14.1994 76.4177 14.4383 75.7865 14.6227 75.1803C13.1098 74.1797 12.201 72.8823 11.8954 71.2894C11.6565 70.0439 11.8395 68.8078 12.4449 67.5798C13.0499 66.3527 13.9801 65.2957 15.2357 64.4088C16.4913 63.5224 17.9442 62.9202 19.5944 62.6037C21.4474 62.2478 23.201 62.3163 24.8566 62.8096C26.5122 63.3026 27.8094 64.1196 28.7486 65.2608C30.2006 65.1623 31.5752 65.3261 32.8724 65.7528C34.17 66.1794 35.2462 66.821 36.1008 67.6779C36.9555 68.5348 37.4911 69.5282 37.7077 70.6577C38.0133 72.2506 37.6486 73.7925 36.6136 75.2824C37.0087 75.7766 37.4647 76.2749 37.9811 76.7763ZM19.683 74.5688C20.4111 74.6091 21.1373 74.5598 21.8613 74.421C23.1061 74.182 24.2136 73.7365 25.1841 73.0847C26.1547 72.4328 26.8876 71.6767 27.3829 70.8158C27.8778 69.9548 28.0425 69.0899 27.8761 68.2209C27.7092 67.3519 27.2366 66.6092 26.458 65.9932C25.6795 65.3767 24.7188 64.9456 23.576 64.6994C22.4331 64.4531 21.2393 64.4495 19.9945 64.6891C18.7496 64.9281 17.6422 65.3731 16.6716 66.025C15.7011 66.6768 14.9681 67.4334 14.4728 68.2943C13.9779 69.1548 13.8137 70.0202 13.9801 70.8892C14.1748 71.9032 14.7869 72.7462 15.8161 73.4195L17.1021 74.254L16.6739 75.7775L16.443 76.4527C17.0408 76.1276 17.605 75.7041 18.1353 75.1817L18.7818 74.562L19.683 74.5688ZM35.6194 71.036C35.4225 70.0077 34.7786 69.1553 33.6881 68.4788C32.5977 67.8023 31.313 67.441 29.8332 67.3945L29.9599 67.8207C30.1823 68.9793 30.0476 70.116 29.5563 71.2317C29.065 72.3473 28.2882 73.3448 27.2263 74.2245C26.165 75.1042 24.9237 75.7552 23.5044 76.1778C24.2686 76.7217 25.1882 77.0933 26.2621 77.2925C27.336 77.4918 28.4519 77.4801 29.6095 77.2576C30.3335 77.1188 31.0257 76.8954 31.6875 76.5883L32.5225 76.2476L33.3525 76.5838C34.0385 76.8726 34.7191 77.057 35.3947 77.1376L34.9222 76.5525L34.013 75.3307L34.8551 74.0879C35.5612 73.0815 35.8163 72.0639 35.6194 71.036Z" fill="#175DA8"/>
</g>
<g id="XMLID_3_">
<path id="XMLID_1_" d="M60.2422 37.4584C62.6869 27.0045 56.198 16.5491 45.749 14.1056C35.3 11.6621 24.8476 18.1558 22.403 28.6097C19.9583 39.0635 26.4472 49.5189 36.8962 51.9624C47.3452 54.4059 57.7976 47.9123 60.2422 37.4584Z" fill="#01063D"/>
<g id="XMLID_22_">
<path id="XMLID_26_" d="M50.717 35.9285C50.7747 36.4196 50.7389 36.925 50.6087 37.4453C50.479 37.9655 50.2695 38.4275 49.9805 38.8318C49.9518 40.1028 49.5478 41.085 48.7679 41.7785C47.9307 42.5584 46.7037 42.9483 45.0866 42.9483H44.1339C42.9213 42.9483 41.8098 42.8185 40.7995 42.5584C40.2218 42.4138 39.5005 42.1684 38.6342 41.8215C38.1143 41.6191 37.7393 41.4749 37.5084 41.3881C37.133 41.2726 36.7719 41.2148 36.4255 41.2148C36.3392 41.5041 36.1732 41.7494 35.9275 41.9517C35.6818 42.1541 35.4008 42.2553 35.0827 42.2553H32.3116C31.9361 42.2553 31.6113 42.1178 31.337 41.8434C31.0627 41.569 30.9258 41.2444 30.9258 40.8688V30.4698C30.9258 30.0941 31.0632 29.7691 31.337 29.4947C31.6113 29.2202 31.9361 29.0832 32.3116 29.0832H36.5987C36.8873 28.8231 37.3782 28.2384 38.0708 27.3287C38.764 26.4186 39.2691 25.8048 39.5868 25.4874C39.7023 25.3719 39.8321 24.9528 39.9766 24.2307C40.2366 23.1907 40.4965 22.4399 40.7561 21.9775C41.2183 21.1685 41.8532 20.7646 42.6618 20.7646C43.9608 20.7646 44.9712 21.1255 45.6929 21.8476C46.4433 22.6275 46.8192 23.783 46.8192 25.3141C46.8192 25.9785 46.6894 26.6429 46.429 27.3072H47.9879C49.0274 27.3072 49.908 27.6829 50.6297 28.4336C51.3515 29.1849 51.7126 30.0516 51.7126 31.0334C51.7126 31.7846 51.5104 32.5068 51.1063 33.1998C51.309 34.152 51.1788 35.0622 50.717 35.9285ZM34.4334 38.7449C34.2312 38.543 33.986 38.4414 33.6969 38.4414C33.4079 38.4414 33.1626 38.543 32.9604 38.7449C32.7586 38.9473 32.657 39.1926 32.657 39.4818C32.657 39.7706 32.7586 40.0159 32.9604 40.2187C33.1626 40.4206 33.4079 40.5218 33.6969 40.5218C33.986 40.5218 34.2307 40.4206 34.4334 40.2187C34.6352 40.0164 34.7364 39.7706 34.7364 39.4818C34.7368 39.1926 34.6357 38.9473 34.4334 38.7449ZM49.1361 34.0437C49.1509 33.4805 48.9992 33.0256 48.6815 32.6787C48.8838 32.6787 49.0927 32.5054 49.3093 32.1584C49.5259 31.8119 49.6346 31.4363 49.6346 31.0316C49.6346 30.6273 49.4757 30.2517 49.1581 29.9052C48.8404 29.5587 48.4506 29.385 47.9888 29.385H43.4847C43.4847 29.0385 43.5572 28.6772 43.7013 28.302C43.759 28.0997 43.8887 27.7966 44.091 27.3923C44.2928 26.988 44.4378 26.6702 44.5241 26.4392C44.6687 26.0635 44.7407 25.6879 44.7407 25.3128C44.7407 24.5615 44.6539 24.0127 44.4807 23.6661C44.163 23.1173 43.5572 22.8433 42.6622 22.8433C42.5177 23.0161 42.3875 23.2619 42.2721 23.5797C42.2143 23.753 42.1423 24.0565 42.0555 24.4899C41.94 25.0674 41.8389 25.5008 41.7526 25.79C41.5794 26.252 41.3337 26.642 41.016 26.9598C40.7851 27.1908 40.3663 27.7111 39.76 28.5196C39.1246 29.3863 38.6485 29.9782 38.3308 30.296C37.7822 30.8736 37.3205 31.1623 36.945 31.1623H36.4689V39.2217C36.9598 39.2217 37.4936 39.2938 38.0708 39.4384C38.4172 39.5248 38.9371 39.6985 39.6298 39.9586C40.4961 40.2469 41.1597 40.4497 41.6219 40.5648C42.4014 40.7671 43.1665 40.8683 43.9169 40.8683H45.5193C46.3565 40.8683 46.9771 40.6516 47.3816 40.2183C47.8434 39.7558 48.0023 39.0194 47.8577 38.0085C48.2041 37.8061 48.4497 37.4524 48.5942 36.947C48.7383 36.4415 48.6954 35.9719 48.464 35.5385C48.8981 35.1052 49.1218 34.6069 49.1361 34.0437Z" fill="white"/>
</g>
</g>
<g id="XMLID_5_">
<path id="XMLID_70_" opacity="0.5" d="M172.229 34.3003C172.932 23.5863 164.822 14.3311 154.113 13.6283C143.405 12.9254 134.154 21.041 133.451 31.755C132.748 42.4689 140.858 51.7241 151.567 52.4269C162.275 53.1298 171.526 45.0142 172.229 34.3003Z" fill="#175DA8"/>
<g id="XMLID_18_">
<path id="XMLID_53_" d="M158.088 36.4459L159.314 35.2192C159.416 35.1171 159.53 35.0916 159.658 35.1427C159.786 35.1937 159.85 35.2958 159.85 35.4493V41.0061C159.85 41.5174 159.671 41.9512 159.314 42.3089C158.956 42.6666 158.522 42.8457 158.012 42.8457H144.529C144.018 42.8457 143.584 42.6666 143.227 42.3089C142.87 41.9512 142.69 41.5169 142.69 41.0061V27.5171C142.69 27.0063 142.87 26.572 143.227 26.2143C143.584 25.8566 144.019 25.6775 144.529 25.6775H155.024C155.152 25.6775 155.241 25.7415 155.292 25.8691C155.343 25.9972 155.318 26.1118 155.216 26.2143L153.99 27.4405C153.939 27.4916 153.875 27.5171 153.799 27.5171H144.529V41.0065H158.012V36.6375C158.012 36.561 158.037 36.4969 158.088 36.4459ZM164.101 28.7048L154.028 38.7837L150.581 39.167C150.07 39.218 149.636 39.0649 149.279 38.7072C148.921 38.3495 148.767 37.9148 148.819 37.404L149.202 33.9549L159.276 23.8765C159.71 23.4422 160.24 23.2246 160.865 23.2246C161.491 23.2246 162.021 23.4417 162.455 23.8765L164.102 25.5244C164.536 25.9587 164.754 26.4887 164.754 27.1151C164.753 27.7405 164.535 28.2706 164.101 28.7048ZM160.309 29.893L158.088 27.6707L150.964 34.7984L150.696 37.2893L153.185 37.0212L160.309 29.893ZM162.799 26.8272L161.152 25.1792C161.076 25.1027 160.98 25.0646 160.865 25.0646C160.75 25.0646 160.654 25.1031 160.577 25.1792L159.39 26.3674L161.611 28.5902L162.799 27.402C162.875 27.3255 162.914 27.2297 162.914 27.1146C162.914 26.9996 162.876 26.9038 162.799 26.8272Z" fill="white"/>
</g>
</g>
<g id="XMLID_23_">
<path id="XMLID_4_" d="M29.1553 144.011C39.886 144.011 48.5849 135.307 48.5849 124.571C48.5849 113.835 39.886 105.131 29.1553 105.131C18.4245 105.131 9.72559 113.835 9.72559 124.571C9.72559 135.307 18.4245 144.011 29.1553 144.011Z" fill="#175DA8"/>
<g id="XMLID_20_">
<path id="XMLID_49_" d="M35.0429 114.379C36.8475 115.441 38.2798 116.874 39.3403 118.679C40.4008 120.484 40.9315 122.448 40.9315 124.57C40.9315 126.692 40.4008 128.655 39.3403 130.461C38.2798 132.266 36.8475 133.699 35.0429 134.76C33.2387 135.821 31.2762 136.351 29.1552 136.351C27.0342 136.351 25.0717 135.821 23.2675 134.76C21.4629 133.699 20.0306 132.266 18.9701 130.461C17.9096 128.655 17.3789 126.692 17.3789 124.57C17.3789 122.448 17.9091 120.484 18.9701 118.679C20.0301 116.874 21.4629 115.441 23.2675 114.379C25.0717 113.319 27.0342 112.788 29.1552 112.788C31.2762 112.788 33.2387 113.319 35.0429 114.379ZM24.6112 116.705C23.2178 117.523 22.1117 118.629 21.2937 120.023C20.4758 121.418 20.0668 122.933 20.0668 124.57C20.0668 126.207 20.4758 127.722 21.2937 129.116C22.1117 130.51 23.2174 131.617 24.6112 132.434C26.0046 133.253 27.5188 133.662 29.1552 133.662C30.7911 133.662 32.3058 133.253 33.6992 132.434C35.0926 131.617 36.1982 130.51 37.0166 129.116C37.8342 127.722 38.2436 126.207 38.2436 124.57C38.2436 122.933 37.8342 121.418 37.0166 120.023C36.1987 118.629 35.093 117.523 33.6992 116.705C32.3058 115.886 30.7911 115.477 29.1552 115.477C27.5188 115.477 26.0046 115.886 24.6112 116.705ZM35.6984 121.796C35.6984 121.948 35.638 122.069 35.5168 122.161L27.7014 129.935C27.5801 130.056 27.4437 130.117 27.2924 130.117C27.1407 130.117 27.0199 130.055 26.9291 129.935L22.7941 125.798C22.6728 125.677 22.6124 125.54 22.6124 125.388C22.6124 125.237 22.6728 125.116 22.7941 125.025L23.8389 123.979C23.9297 123.888 24.051 123.842 24.2027 123.842C24.3544 123.842 24.4904 123.888 24.6117 123.979L27.2924 126.752L33.7448 120.342C33.8361 120.251 33.9569 120.205 34.1086 120.205C34.2598 120.205 34.3963 120.266 34.5176 120.387L35.5172 121.387C35.6376 121.509 35.6984 121.645 35.6984 121.796Z" fill="white"/>
</g>
</g>
<g id="XMLID_48_">
<path id="XMLID_46_" d="M181.637 118.229C181.637 128.966 172.938 137.669 162.207 137.669C151.476 137.669 142.777 128.966 142.777 118.229C142.777 107.493 151.476 98.7888 162.207 98.7888C172.938 98.7893 181.637 107.493 181.637 118.229Z" fill="#01063D"/>
<g id="XMLID_17_">
<path id="XMLID_58_" d="M173.762 109.728C174.208 110.174 174.431 110.715 174.431 111.352V125.109C174.431 125.746 174.208 126.287 173.762 126.733C173.317 127.179 172.776 127.402 172.139 127.402H152.278C151.641 127.402 151.101 127.179 150.655 126.733C150.209 126.287 149.986 125.746 149.986 125.109V111.352C149.986 110.715 150.209 110.174 150.655 109.728C151.101 109.282 151.641 109.059 152.278 109.059H172.139C172.776 109.059 173.317 109.282 173.762 109.728ZM152.279 111.352V113.311C153.392 114.202 155.541 115.89 158.723 118.374L159.153 118.756C159.79 119.298 160.299 119.68 160.681 119.903C161.286 120.317 161.795 120.524 162.209 120.524C162.623 120.524 163.132 120.317 163.736 119.903C164.118 119.68 164.628 119.298 165.264 118.756L165.694 118.374C168.877 115.922 171.026 114.234 172.139 113.311V111.352H152.279ZM172.14 125.109V116.225L166.601 120.619C165.806 121.288 165.153 121.765 164.644 122.052C163.785 122.562 162.973 122.816 162.209 122.816C161.445 122.816 160.618 122.562 159.726 122.052C159.249 121.765 158.597 121.288 157.769 120.619L152.279 116.225V125.109H172.14Z" fill="white"/>
</g>
</g>
<g id="XMLID_35_">
<path id="XMLID_42_" d="M74.8286 37.6637H67.9319C67.4634 37.6637 67.084 37.2841 67.084 36.8153V29.915C67.084 29.4463 67.4634 29.0667 67.9319 29.0667H74.8286C75.2971 29.0667 75.677 29.4463 75.677 29.915V36.8153C75.6766 37.2841 75.2971 37.6637 74.8286 37.6637ZM68.7799 35.9669H73.9807V30.7634H68.7799V35.9669Z" fill="#175DA8"/>
<path id="XMLID_37_" d="M78.0205 29.7565C78.0205 29.8576 77.9802 29.9391 77.8992 29.9996L72.6693 35.2022C72.5879 35.2832 72.497 35.3235 72.3955 35.3235C72.2943 35.3235 72.2129 35.2828 72.152 35.2022L69.3849 32.4332C69.3039 32.3522 69.2637 32.2609 69.2637 32.1597C69.2637 32.0581 69.3039 31.977 69.3849 31.9161L70.0843 31.2164C70.1452 31.1555 70.2262 31.1251 70.3277 31.1251C70.4289 31.1251 70.5201 31.1555 70.6011 31.2164L72.395 33.0721L76.7126 28.7827C76.7734 28.7219 76.8544 28.6914 76.956 28.6914C77.0576 28.6914 77.1484 28.7321 77.2294 28.8132L77.8983 29.4825C77.9798 29.564 78.0205 29.6548 78.0205 29.7565Z" fill="#1D262D"/>
</g>
<g id="XMLID_62_">
<path id="XMLID_64_" d="M52.023 69.2745H45.1263C44.6578 69.2745 44.2783 68.8949 44.2783 68.4257V61.5258C44.2783 61.0571 44.6578 60.677 45.1263 60.677H52.023C52.4915 60.677 52.8714 61.0571 52.8714 61.5258V68.4257C52.8709 68.8944 52.491 69.2745 52.023 69.2745ZM45.9742 67.5773H51.175V62.3742H45.9742V67.5773Z" fill="#175DA8"/>
<path id="XMLID_63_" d="M55.2123 61.3668C55.2123 61.4685 55.1716 61.549 55.0906 61.6104L49.8607 66.8126C49.7793 66.8941 49.6884 66.9343 49.5869 66.9343C49.4857 66.9343 49.4043 66.8936 49.3434 66.8126L46.5763 64.044C46.4953 63.9626 46.4551 63.8717 46.4551 63.77C46.4551 63.6689 46.4953 63.5874 46.5763 63.5265L47.2757 62.8268C47.3361 62.7659 47.4176 62.7354 47.5191 62.7354C47.6203 62.7354 47.7115 62.7659 47.7925 62.8268L49.5864 64.6824L53.904 60.3931C53.9648 60.3322 54.0458 60.3018 54.1474 60.3018C54.249 60.3018 54.3398 60.3421 54.4212 60.4235L55.0902 61.0928C55.1716 61.1743 55.2123 61.2656 55.2123 61.3668Z" fill="#1D262D"/>
</g>
<g id="XMLID_69_">
<path id="XMLID_72_" d="M141.99 99.9547H135.093C134.625 99.9547 134.245 99.5746 134.245 99.1063V92.206C134.245 91.7373 134.625 91.3577 135.093 91.3577H141.99C142.458 91.3577 142.838 91.7378 142.838 92.206V99.1063C142.838 99.5751 142.458 99.9547 141.99 99.9547ZM135.941 98.258H141.142V93.0549H135.941V98.258Z" fill="#175DA8"/>
<path id="XMLID_71_" d="M145.18 92.0465C145.18 92.1481 145.139 92.2292 145.057 92.29L139.828 97.4927C139.747 97.5737 139.655 97.614 139.555 97.614C139.453 97.614 139.372 97.5733 139.311 97.4927L136.544 94.7242C136.463 94.6431 136.422 94.5518 136.422 94.4502C136.422 94.349 136.463 94.2675 136.544 94.2066L137.243 93.5069C137.305 93.446 137.385 93.4156 137.486 93.4156C137.588 93.4156 137.679 93.446 137.76 93.5069L139.555 95.3626L143.872 91.0728C143.933 91.0119 144.014 90.9814 144.115 90.9814C144.217 90.9814 144.308 91.0222 144.389 91.1032L145.057 91.7725C145.139 91.854 145.18 91.9453 145.18 92.0465Z" fill="#1D262D"/>
</g>
<g id="XMLID_40_">
<path id="XMLID_77_" d="M117.505 53.1195C117.26 52.841 117.121 52.469 117.146 52.0692C117.188 51.3824 116.961 50.7194 116.506 50.2027C116.05 49.6861 115.421 49.3776 114.734 49.3347C113.935 49.2845 113.328 48.5964 113.378 47.7964C113.428 46.9972 114.116 46.3893 114.915 46.4394C116.375 46.5307 117.712 47.1857 118.68 48.2835C119.648 49.3817 120.131 50.7905 120.039 52.2509C119.99 53.0505 119.301 53.658 118.502 53.6079C118.102 53.5824 117.751 53.3979 117.505 53.1195Z" fill="#1D262D"/>
<path id="XMLID_76_" d="M122.167 53.4102C121.922 53.1318 121.782 52.7597 121.808 52.3595C121.928 50.4263 121.29 48.5617 120.01 47.1094C118.729 45.6571 116.96 44.7912 115.027 44.6703C114.228 44.6202 113.62 43.9317 113.671 43.1321C113.721 42.3325 114.409 41.725 115.208 41.7751C117.914 41.9443 120.391 43.1571 122.184 45.1901C123.977 47.2235 124.87 49.8336 124.701 52.5408C124.652 53.3399 123.963 53.9475 123.164 53.8973C122.764 53.8731 122.413 53.6887 122.167 53.4102Z" fill="#1D262D"/>
<path id="XMLID_75_" d="M126.827 53.7034C126.581 53.4249 126.442 53.052 126.467 52.6513C126.67 49.4767 125.62 46.4109 123.512 44.0193C121.403 41.6278 118.493 40.2032 115.32 40.0094C114.521 39.9606 113.912 39.2725 113.962 38.4729C114.01 37.6733 114.698 37.0649 115.498 37.1141C119.445 37.3559 123.064 39.127 125.685 42.1005C128.307 45.0741 129.612 48.8871 129.361 52.8367C129.31 53.6362 128.621 54.2429 127.821 54.1918C127.423 54.1659 127.072 53.981 126.827 53.7034Z" fill="#1D262D"/>
</g>
<g id="XMLID_89_" opacity="0.2">
<path id="XMLID_92_" d="M152.315 150.535C152.618 150.213 153.043 150.008 153.518 149.994C154.336 149.97 155.095 149.63 155.657 149.033C156.219 148.437 156.516 147.659 156.491 146.841C156.464 145.889 157.212 145.095 158.164 145.067C159.115 145.039 159.909 145.788 159.936 146.74C159.987 148.479 159.358 150.134 158.164 151.4C156.97 152.666 155.356 153.391 153.618 153.442C152.667 153.469 151.873 152.72 151.845 151.768C151.832 151.292 152.012 150.856 152.315 150.535Z" fill="#175DA8"/>
<path id="XMLID_91_" d="M152.477 156.086C152.78 155.765 153.206 155.559 153.681 155.545C155.982 155.478 158.119 154.519 159.697 152.845C161.276 151.171 162.108 148.98 162.041 146.679C162.013 145.727 162.762 144.933 163.713 144.905C164.665 144.877 165.458 145.626 165.486 146.578C165.58 149.801 164.414 152.867 162.204 155.211C159.993 157.556 157.002 158.898 153.78 158.992C152.83 159.02 152.036 158.271 152.009 157.319C151.995 156.843 152.175 156.407 152.477 156.086Z" fill="#175DA8"/>
<path id="XMLID_90_" d="M152.638 161.637C152.941 161.315 153.367 161.11 153.844 161.096C157.622 160.992 161.135 159.414 163.735 156.657C166.336 153.899 167.704 150.298 167.589 146.518C167.56 145.566 168.308 144.771 169.259 144.742C170.21 144.713 171.005 145.461 171.034 146.413C171.177 151.116 169.476 155.594 166.242 159.023C163.008 162.452 158.64 164.412 153.939 164.543C152.988 164.569 152.195 163.82 152.169 162.868C152.156 162.393 152.337 161.957 152.638 161.637Z" fill="#175DA8"/>
</g>
<g id="XMLID_100_" opacity="0.2">
<path id="XMLID_103_" d="M109.778 15.7923C109.646 15.4848 109.631 15.128 109.765 14.7926C109.994 14.2164 109.984 13.5856 109.739 13.0153C109.493 12.4449 109.041 12.0048 108.465 11.7756C107.795 11.5088 107.468 10.7495 107.734 10.0789C108.001 9.40822 108.76 9.08096 109.429 9.34733C110.654 9.83442 111.616 10.7697 112.138 11.9807C112.658 13.1921 112.678 14.5334 112.191 15.7583C111.924 16.4285 111.165 16.7562 110.495 16.4889C110.16 16.356 109.91 16.0994 109.778 15.7923Z" fill="#175DA8"/>
<path id="XMLID_102_" d="M113.686 17.3469C113.554 17.0398 113.539 16.6821 113.672 16.3472C114.316 14.7252 114.292 12.9505 113.603 11.3487C112.913 9.74684 111.64 8.50941 110.019 7.86473C109.349 7.59791 109.022 6.83862 109.288 6.16798C109.554 5.49733 110.314 5.17007 110.984 5.43644C113.253 6.33944 115.034 8.07202 116.001 10.3145C116.966 12.5575 117.001 15.0426 116.099 17.3133C115.832 17.9835 115.073 18.3108 114.403 18.0439C114.067 17.9105 113.818 17.654 113.686 17.3469Z" fill="#175DA8"/>
<path id="XMLID_101_" d="M117.595 18.9026C117.463 18.5951 117.448 18.2369 117.582 17.9011C118.645 15.24 118.604 12.3211 117.467 9.68283C116.331 7.04457 114.239 5.01025 111.576 3.95504C110.906 3.68911 110.578 2.92937 110.843 2.25917C111.109 1.58853 111.867 1.25992 112.538 1.52585C115.85 2.83894 118.453 5.3684 119.865 8.6491C121.278 11.9298 121.329 15.5593 120.007 18.8704C119.739 19.5406 118.98 19.867 118.31 19.5992C117.977 19.4654 117.728 19.2093 117.595 18.9026Z" fill="#175DA8"/>
</g>
<g id="XMLID_93_" opacity="0.2">
<path id="XMLID_96_" d="M26.4589 146.701C26.8889 146.799 27.2813 147.062 27.5346 147.465C27.9695 148.158 28.6483 148.64 29.4466 148.823C30.2448 149.005 31.0655 148.867 31.7582 148.431C32.5645 147.925 33.6276 148.168 34.1342 148.975C34.6403 149.782 34.3968 150.846 33.5914 151.352C32.1193 152.277 30.3742 152.573 28.6783 152.184C26.9828 151.797 25.5393 150.772 24.6153 149.298C24.1097 148.492 24.3527 147.427 25.159 146.922C25.5617 146.669 26.0293 146.602 26.4589 146.701Z" fill="#175DA8"/>
<path id="XMLID_95_" d="M21.7567 149.654C22.1863 149.752 22.5792 150.015 22.8324 150.418C24.0558 152.369 25.9655 153.726 28.2082 154.239C30.4509 154.752 32.7598 154.36 34.7094 153.135C35.5157 152.629 36.5793 152.872 37.0854 153.679C37.5915 154.485 37.3481 155.55 36.5426 156.056C33.8131 157.771 30.5807 158.319 27.4399 157.6C24.2996 156.882 21.627 154.982 19.9132 152.251C19.4075 151.445 19.6505 150.381 20.4568 149.874C20.8596 149.621 21.3267 149.556 21.7567 149.654Z" fill="#175DA8"/>
<path id="XMLID_94_" d="M17.0567 152.606C17.4871 152.705 17.88 152.968 18.1333 153.372C20.1383 156.577 23.2773 158.809 26.9715 159.654C30.6658 160.5 34.4616 159.855 37.66 157.84C38.4655 157.332 39.53 157.575 40.037 158.38C40.5439 159.186 40.3023 160.251 39.4969 160.757C35.5172 163.265 30.7969 164.066 26.2032 163.015C21.6101 161.964 17.7068 159.19 15.2118 155.201C14.7071 154.394 14.9518 153.33 15.7586 152.825C16.1609 152.573 16.6276 152.507 17.0567 152.606Z" fill="#175DA8"/>
</g>
<g id="XMLID_67_">
<path id="XMLID_79_" d="M44.4068 101.25H36.8304V99.3924L39.3796 96.8128C40.108 96.0508 40.5837 95.5301 40.8079 95.2517C41.0316 94.9728 41.1878 94.7341 41.2755 94.534C41.3632 94.3339 41.4075 94.1244 41.4075 93.9055C41.4075 93.6337 41.3193 93.4193 41.143 93.2621C40.9667 93.105 40.7193 93.0266 40.4002 93.0266C40.0718 93.0266 39.7398 93.1206 39.4042 93.3091C39.0686 93.4967 38.6887 93.7747 38.2654 94.1414L36.7158 92.3264C37.2537 91.8456 37.7061 91.5018 38.0725 91.2941C38.439 91.0872 38.8377 90.9287 39.2686 90.8191C39.6995 90.7089 40.1836 90.6543 40.7219 90.6543C41.3976 90.6543 42.0012 90.7734 42.5319 91.0116C43.0626 91.2497 43.4743 91.5891 43.7674 92.0296C44.06 92.4706 44.2068 92.9644 44.2068 93.5124C44.2068 93.922 44.1553 94.3008 44.0528 94.6482C43.9504 94.996 43.7924 95.3381 43.5781 95.6738C43.3638 96.0096 43.0792 96.3633 42.7243 96.7344C42.3699 97.106 41.6142 97.8111 40.4575 98.8493V98.921H44.4063V101.25H44.4068Z" fill="#1D262D"/>
<path id="XMLID_81_" d="M53.3111 99.2246H52.1616V101.247H49.3766V99.2246H45.2139V97.1527L49.5551 90.8008H52.1616V97.1164H53.3111V99.2246ZM49.3766 97.1168V95.9023C49.3766 95.6735 49.3851 95.365 49.4017 94.9773C49.4182 94.5887 49.4312 94.3855 49.441 94.3662H49.3623C49.2003 94.7329 49.0173 95.0758 48.8124 95.395L47.6557 97.1168H49.3766Z" fill="#1D262D"/>
<path id="XMLID_84_" d="M59.5878 101.249V96.8334C59.5878 95.7473 59.2665 95.2042 58.6235 95.2042C58.1666 95.2042 57.8297 95.3963 57.6131 95.7795C57.3965 96.1632 57.2883 96.7998 57.2883 97.6907V101.249H54.4961V90.1318H57.2883V91.7108C57.2883 92.4254 57.2502 93.2397 57.1742 94.1544H57.3026C57.5693 93.7353 57.8856 93.4398 58.2521 93.2684C58.6186 93.0969 59.0445 93.0114 59.5305 93.0114C60.4348 93.0114 61.1382 93.272 61.6403 93.7935C62.1428 94.3151 62.3933 95.0448 62.3933 95.9832V101.249H59.5878V101.249Z" fill="#1D262D"/>
</g>
<path id="XMLID_87_" d="M140.683 11.598C140.277 11.4816 140.044 11.0653 140.156 10.6596C140.267 10.254 140.688 10.0159 141.094 10.1323C141.499 10.2442 141.732 10.6646 141.621 11.0706C141.524 11.4051 141.221 11.6231 140.886 11.6231C140.819 11.6235 140.749 11.6132 140.683 11.598ZM137.753 10.7765C137.348 10.6646 137.115 10.2442 137.226 9.83813C137.337 9.43252 137.758 9.19927 138.164 9.31074C138.564 9.42267 138.802 9.8435 138.691 10.2491C138.595 10.584 138.29 10.8069 137.961 10.8069C137.89 10.8069 137.824 10.7966 137.753 10.7765ZM50.9628 10.0817C50.8966 9.67114 51.1758 9.27538 51.5911 9.20957C52.0068 9.14331 52.397 9.42267 52.4627 9.83813C52.5285 10.2487 52.2497 10.6444 51.8341 10.7107C51.7933 10.7156 51.7531 10.7205 51.7128 10.7205C51.3477 10.7205 51.0232 10.4573 50.9628 10.0817ZM53.9635 9.5901C53.8977 9.17957 54.1765 8.78873 54.5918 8.71755C55.0074 8.65174 55.3981 8.93065 55.4639 9.34656C55.5296 9.76247 55.2509 10.1529 54.8352 10.2187C54.7945 10.2285 54.7542 10.2285 54.7139 10.2285C54.3483 10.2285 54.0244 9.96482 53.9635 9.5901ZM134.823 9.9599C134.423 9.8435 134.185 9.42222 134.296 9.02153C134.408 8.61592 134.829 8.37775 135.234 8.49415V8.48923C135.64 8.60563 135.873 9.02691 135.761 9.42759C135.665 9.76739 135.361 9.98542 135.031 9.98542C134.961 9.98542 134.894 9.97512 134.823 9.9599ZM56.9642 9.10301C56.8984 8.68711 57.1772 8.29627 57.5924 8.22553C58.0081 8.15972 58.3983 8.43908 58.4645 8.85454C58.5357 9.27 58.2515 9.66084 57.8408 9.72665H57.8354C57.7951 9.73695 57.7544 9.73695 57.7141 9.73695C57.349 9.73695 57.0246 9.47326 56.9642 9.10301ZM59.9644 8.611C59.8986 8.19509 60.1774 7.8047 60.5931 7.73397C61.0088 7.66816 61.399 7.95199 61.4648 8.36253C61.5359 8.77844 61.2518 9.16882 60.8414 9.23956C60.8007 9.24493 60.7551 9.24986 60.7148 9.24986C60.3501 9.24986 60.0253 8.98124 59.9644 8.611ZM131.893 9.13838C131.493 9.02646 131.255 8.60563 131.366 8.20002C131.483 7.79441 131.899 7.55578 132.305 7.67263C132.71 7.78456 132.948 8.20539 132.832 8.611C132.74 8.94587 132.431 9.16345 132.101 9.16345C132.031 9.16345 131.965 9.15898 131.893 9.13838ZM62.9705 8.11898C62.8993 7.70308 63.1835 7.31269 63.5938 7.24688C64.0095 7.17569 64.3997 7.45998 64.4708 7.87051C64.537 8.28642 64.2578 8.67681 63.8421 8.74755C63.8014 8.75247 63.7611 8.75784 63.7155 8.75784C63.3508 8.75829 63.0309 8.49415 62.9705 8.11898ZM128.969 8.31686C128.564 8.20539 128.325 7.78456 128.437 7.3785C128.554 6.97781 128.969 6.73964 129.375 6.85112C129.78 6.96304 130.019 7.38387 129.902 7.78948C129.811 8.12436 129.506 8.34731 129.172 8.34731C129.106 8.34731 129.035 8.33701 128.969 8.31686ZM65.9707 7.62742C65.8995 7.21151 66.1837 6.82112 66.5989 6.75486C67.0093 6.68413 67.3999 6.96796 67.471 7.38387C67.5368 7.7944 67.258 8.18524 66.8424 8.25598C66.8021 8.2609 66.7614 8.26583 66.7211 8.26583C66.351 8.26583 66.032 8.00258 65.9707 7.62742ZM68.9718 7.1354C68.9007 6.71949 69.1848 6.3291 69.6005 6.26329C70.0108 6.19703 70.401 6.4764 70.4722 6.89186C70.5379 7.30776 70.2592 7.6986 69.8435 7.76441C69.8032 7.76934 69.7625 7.77471 69.7218 7.77471C69.3566 7.77426 69.0322 7.51057 68.9718 7.1354ZM126.039 7.49535C125.634 7.38387 125.396 6.96304 125.512 6.56235C125.624 6.15674 126.044 5.91812 126.45 6.03497H126.445C126.851 6.14644 127.089 6.56728 126.977 6.96796C126.881 7.30776 126.576 7.52579 126.242 7.52579C126.177 7.52579 126.105 7.51549 126.039 7.49535ZM71.972 6.64338C71.9063 6.23285 72.185 5.84201 72.6007 5.77083C73.0164 5.70502 73.4017 5.98393 73.4724 6.39984C73.5386 6.81575 73.2594 7.20614 72.8442 7.27195C72.8034 7.27732 72.7627 7.28224 72.7224 7.28224C72.3573 7.28224 72.0329 7.01855 71.972 6.64338ZM74.9727 6.15137C74.907 5.74084 75.1857 5.35 75.6014 5.27926C76.0171 5.213 76.4073 5.49237 76.4731 5.90783C76.5388 6.32373 76.2601 6.71412 75.8448 6.78038C75.8041 6.79068 75.7634 6.79068 75.7231 6.79068C75.3584 6.79068 75.0336 6.52699 74.9727 6.15137ZM123.109 6.67875C122.704 6.56728 122.471 6.14645 122.582 5.74039C122.694 5.33478 123.115 5.10153 123.521 5.213C123.925 5.32493 124.159 5.74576 124.048 6.15137C123.951 6.48625 123.647 6.70427 123.313 6.70427C123.247 6.70427 123.181 6.6989 123.109 6.67875ZM77.9734 5.66428C77.9076 5.24837 78.1864 4.85798 78.6021 4.78725C79.0173 4.72144 79.408 5.00527 79.4737 5.41626C79.5444 5.83216 79.2608 6.22255 78.8504 6.28836H78.8451C78.8043 6.29821 78.7641 6.29821 78.7238 6.29821C78.3587 6.29821 78.0343 6.03497 77.9734 5.66428ZM120.18 5.85723C119.775 5.74576 119.541 5.32493 119.653 4.91932C119.764 4.51863 120.185 4.28001 120.591 4.39193C120.996 4.50833 121.229 4.92424 121.118 5.32985C121.021 5.66473 120.717 5.88768 120.382 5.88768C120.317 5.88768 120.251 5.87738 120.18 5.85723ZM80.9741 5.17271C80.9083 4.7568 81.1871 4.36597 81.6023 4.29523C82.018 4.22942 82.4086 4.51326 82.4744 4.92424C82.5451 5.34015 82.2614 5.73054 81.8507 5.80172C81.805 5.80709 81.7647 5.81157 81.724 5.81157C81.3593 5.81157 81.0349 5.54295 80.9741 5.17271ZM83.9748 4.6807C83.9085 4.26479 84.1877 3.8744 84.603 3.80814C85.0187 3.73741 85.4089 4.02124 85.48 4.43223C85.5458 4.84813 85.2621 5.23852 84.8518 5.30926C84.8111 5.31463 84.7659 5.31911 84.7252 5.31911C84.36 5.31956 84.0356 5.05586 83.9748 4.6807ZM117.251 5.04064C116.85 4.92379 116.612 4.50834 116.724 4.10228C116.84 3.69667 117.256 3.45849 117.661 3.57489C118.067 3.68682 118.305 4.10765 118.188 4.51326C118.097 4.84813 117.793 5.06571 117.459 5.06571C117.393 5.06616 117.321 5.05586 117.251 5.04064ZM86.9804 4.18868C86.9097 3.77277 87.1934 3.38239 87.6037 3.31657C88.0194 3.24539 88.4095 3.52968 88.4807 3.94514C88.5465 4.36104 88.2673 4.75143 87.852 4.81724C87.8113 4.82217 87.7706 4.82754 87.7303 4.82754C87.3607 4.82799 87.0412 4.56385 86.9804 4.18868ZM89.981 3.69667C89.9099 3.28613 90.194 2.89037 90.6097 2.82456C91.02 2.75875 91.4107 3.03766 91.4814 3.45357C91.5471 3.86948 91.2684 4.25987 90.8527 4.32568C90.812 4.33105 90.7717 4.33597 90.7314 4.33597C90.3614 4.33597 90.0419 4.07228 89.981 3.69667ZM114.326 4.21912C113.92 4.10765 113.682 3.68682 113.794 3.28076C113.91 2.87515 114.326 2.6419 114.731 2.75382C115.137 2.8653 115.375 3.28613 115.259 3.69174C115.167 4.02662 114.859 4.24957 114.529 4.24957C114.463 4.24957 114.392 4.23927 114.326 4.21912ZM92.9817 3.2051C92.9106 2.79412 93.1947 2.40373 93.61 2.33299C94.0203 2.26718 94.4109 2.54565 94.482 2.96155C94.5478 3.37746 94.2691 3.7683 93.8534 3.83411C93.8131 3.84396 93.7724 3.84396 93.7317 3.84396C93.367 3.84396 93.0426 3.58027 92.9817 3.2051ZM111.397 3.39761C110.991 3.28568 110.753 2.8653 110.865 2.45924C110.981 2.05856 111.401 1.81993 111.802 1.93678C112.207 2.04871 112.446 2.46417 112.334 2.86978C112.238 3.20958 111.933 3.4276 111.599 3.4276C111.533 3.42805 111.462 3.41775 111.397 3.39761ZM95.9824 2.71801C95.9166 2.3021 96.1954 1.91171 96.6106 1.84053C97.0263 1.77472 97.417 2.05363 97.4823 2.46954C97.5481 2.88545 97.2693 3.27583 96.854 3.34165C96.8133 3.35149 96.7726 3.35149 96.7319 3.35149C96.3676 3.35194 96.0432 3.08825 95.9824 2.71801ZM98.9831 2.22644C98.9173 1.81053 99.1961 1.42014 99.6113 1.35389C100.027 1.2827 100.417 1.56699 100.483 1.97797C100.549 2.39388 100.27 2.78427 99.8543 2.855C99.8135 2.86038 99.7733 2.86037 99.733 2.86037C99.3683 2.86037 99.0439 2.59623 98.9831 2.22644ZM108.467 2.58101C108.061 2.46461 107.823 2.04871 107.939 1.64265C108.051 1.23704 108.471 1.00379 108.877 1.11571C109.278 1.22719 109.516 1.64802 109.404 2.05363C109.308 2.38851 109.004 2.60653 108.675 2.60653C108.603 2.60653 108.532 2.60161 108.467 2.58101ZM101.984 1.73443C101.918 1.31852 102.197 0.92813 102.612 0.862319C103.029 0.791136 103.418 1.07542 103.484 1.48595C103.55 1.90186 103.271 2.29225 102.861 2.36299H102.855C102.814 2.36791 102.774 2.37328 102.734 2.37328C102.369 2.37328 102.045 2.10959 101.984 1.73443ZM104.984 1.24286C104.919 0.82695 105.197 0.436113 105.613 0.370302C106.029 0.299119 106.419 0.583406 106.485 0.998866C106.556 1.4094 106.271 1.80516 105.861 1.87142H105.856C105.816 1.87634 105.775 1.88127 105.734 1.88127C105.369 1.88127 105.045 1.61758 104.984 1.24286Z" fill="#175DA8"/>
<path id="XMLID_88_" d="M14.8472 103.195C14.6695 102.814 14.8315 102.363 15.2172 102.185C15.5976 102.008 16.0482 102.176 16.2258 102.561C16.3981 102.941 16.2361 103.393 15.8558 103.57C15.7493 103.616 15.6428 103.641 15.5363 103.641C15.2477 103.641 14.9738 103.474 14.8472 103.195ZM13.5648 100.436C13.3925 100.055 13.5545 99.6037 13.9348 99.4265C14.3201 99.2487 14.7711 99.4161 14.9434 99.7962C15.1206 100.177 14.9586 100.628 14.5733 100.806C14.4718 100.856 14.3603 100.877 14.2538 100.877C13.9701 100.877 13.6963 100.714 13.5648 100.436ZM12.2872 97.6769C12.1096 97.2914 12.277 96.8401 12.6573 96.6678C13.0376 96.4905 13.4936 96.6525 13.6659 97.038C13.8431 97.4181 13.6811 97.8694 13.2958 98.0471C13.1943 98.0928 13.0828 98.1178 12.9763 98.1178C12.6931 98.1183 12.4143 97.9509 12.2872 97.6769ZM11.0097 94.9132C10.8326 94.5327 10.9999 94.0814 11.3798 93.9041C11.7601 93.7269 12.2112 93.8938 12.3884 94.2744C12.5656 94.6549 12.3987 95.1111 12.0183 95.2835C11.9167 95.3341 11.8053 95.3542 11.6988 95.3542C11.4156 95.3542 11.1368 95.1917 11.0097 94.9132ZM9.73269 92.1541C9.5555 91.7736 9.7224 91.3174 10.1027 91.145C10.4831 90.9673 10.9341 91.1347 11.1113 91.5153C11.289 91.8958 11.1216 92.3471 10.7413 92.5244C10.6397 92.57 10.5283 92.5951 10.4222 92.5951C10.1385 92.5955 9.85932 92.433 9.73269 92.1541ZM8.45519 89.3905C8.27799 89.01 8.4449 88.5587 8.82524 88.3814C9.20513 88.2041 9.65617 88.3711 9.83382 88.7516C10.011 89.1371 9.84411 89.5888 9.46377 89.7607C9.35727 89.8118 9.25077 89.8319 9.14473 89.8319C8.85567 89.8319 8.58227 89.6694 8.45519 89.3905ZM7.17813 86.6318C7.00094 86.2513 7.16292 85.8 7.54818 85.6227C7.92853 85.4454 8.37957 85.6124 8.55721 85.993C8.7344 86.3735 8.5675 86.8248 8.18716 87.0021C8.08066 87.0477 7.97417 87.0732 7.86812 87.0732C7.57861 87.0728 7.30477 86.9107 7.17813 86.6318ZM5.89571 83.8731C5.72344 83.4877 5.88586 83.0359 6.26576 82.8587C6.65058 82.6863 7.10206 82.8488 7.27926 83.2289H7.27434C7.45153 83.6139 7.28955 84.0656 6.90429 84.2429C6.80316 84.2886 6.69667 84.3087 6.59017 84.3087C6.30111 84.3092 6.02771 84.1471 5.89571 83.8731ZM4.61865 81.1091C4.44146 80.7285 4.60836 80.2773 4.9887 80.1C5.36905 79.9227 5.82009 80.0897 5.99773 80.4702C6.17492 80.8507 6.01294 81.3016 5.62723 81.4793C5.52611 81.5303 5.41424 81.5505 5.30819 81.5505C5.02361 81.5505 4.74529 81.3875 4.61865 81.1091ZM3.34115 78.3504C3.16396 77.9649 3.33086 77.5136 3.7112 77.3413C4.09154 77.164 4.54259 77.3261 4.71978 77.7115C4.89698 78.0921 4.73007 78.5433 4.34973 78.7206C4.24816 78.7663 4.13674 78.7918 4.03024 78.7918C3.74655 78.7918 3.46778 78.6244 3.34115 78.3504ZM2.0641 75.5863C1.88646 75.2058 2.05381 74.755 2.43415 74.5772C2.81449 74.3999 3.26553 74.5674 3.44273 74.9475C3.61992 75.3275 3.45302 75.7842 3.07268 75.9566C2.9711 76.0071 2.85924 76.0277 2.75319 76.0277C2.46413 76.0277 2.19073 75.8657 2.0641 75.5863ZM0.786596 72.8276C0.609401 72.4471 0.776751 71.9909 1.15665 71.8185C1.53699 71.6412 1.98803 71.8087 2.16522 72.1888C2.34242 72.5689 2.17507 73.0201 1.79517 73.1974C1.68868 73.2435 1.58173 73.2686 1.47569 73.2686C1.18707 73.2691 0.913227 73.1016 0.786596 72.8276ZM2.39343 70.6518C2.05918 70.3931 2.00324 69.9163 2.26188 69.5819C2.52006 69.2523 2.99661 69.1915 3.32639 69.4502C3.66064 69.709 3.71657 70.1858 3.45794 70.5202C3.31073 70.7127 3.08789 70.8094 2.85968 70.8094C2.69726 70.8094 2.53035 70.7584 2.39343 70.6518ZM4.26382 68.2535C3.92912 67.9948 3.87318 67.5131 4.13226 67.1836C4.3909 66.8541 4.86699 66.7932 5.19677 67.0515C5.52611 67.3103 5.58696 67.787 5.32833 68.1166C5.18111 68.3095 4.95336 68.4107 4.73052 68.4107C4.56764 68.4107 4.40029 68.3596 4.26382 68.2535ZM6.12884 65.8499C5.7995 65.5911 5.73865 65.1143 5.99728 64.7848C6.25547 64.4499 6.73694 64.3944 7.06672 64.6527C7.39605 64.9061 7.45735 65.3883 7.19827 65.7178C7.05105 65.9103 6.8233 66.0119 6.60046 66.0119C6.43311 66.0119 6.27068 65.9614 6.12884 65.8499ZM7.99922 63.4511C7.66989 63.1924 7.60904 62.7156 7.86767 62.3861C8.12586 62.0512 8.6024 61.9903 8.9371 62.2491C9.26644 62.5078 9.32774 62.9846 9.06866 63.3191C8.91697 63.5116 8.69369 63.6132 8.47085 63.6132C8.3035 63.6132 8.14152 63.5572 7.99922 63.4511ZM9.86961 61.0524C9.54028 60.7936 9.47898 60.3119 9.73806 59.982C9.99669 59.6525 10.4728 59.5916 10.8075 59.8503C11.1368 60.1087 11.1977 60.5854 10.939 60.9203C10.7869 61.1128 10.5641 61.2095 10.3359 61.2095C10.1739 61.2095 10.0065 61.1585 9.86961 61.0524ZM11.74 58.6483C11.4107 58.3895 11.3498 57.9132 11.6084 57.5832C11.8671 57.2537 12.3432 57.1928 12.673 57.4516C13.0077 57.7104 13.0636 58.1872 12.8045 58.5167C12.6573 58.7096 12.4345 58.8108 12.2067 58.8108C12.0438 58.8103 11.8765 58.7602 11.74 58.6483ZM13.6099 56.2495C13.2757 55.9908 13.2198 55.514 13.4784 55.1845C13.7317 54.85 14.2136 54.7941 14.5429 55.0475C14.8772 55.3062 14.9331 55.788 14.6745 56.1175C14.5272 56.3104 14.2995 56.4116 14.0766 56.4116C13.9142 56.4116 13.7469 56.3561 13.6099 56.2495ZM15.4808 53.8508C15.1461 53.592 15.0906 53.1152 15.3439 52.7808C15.6025 52.4513 16.084 52.3904 16.4133 52.6492C16.7426 52.908 16.8035 53.3847 16.5448 53.7192C16.3932 53.9121 16.1699 54.0079 15.947 54.0079C15.7797 54.0079 15.6177 53.9573 15.4808 53.8508ZM17.3458 51.4521C17.0165 51.1933 16.9556 50.7116 17.2142 50.3821C17.4729 50.0526 17.9494 49.9917 18.2837 50.25C18.613 50.5088 18.6739 50.9856 18.4157 51.3151C18.2635 51.5076 18.0403 51.6092 17.8121 51.6092C17.6501 51.6092 17.4876 51.5586 17.3458 51.4521ZM19.2162 49.0484C18.8869 48.7901 18.826 48.3133 19.0846 47.9838C19.3428 47.6489 19.8194 47.5934 20.1491 47.8522C20.4834 48.1109 20.5393 48.5877 20.2861 48.9172C20.1339 49.1097 19.9111 49.2113 19.6829 49.2113C19.52 49.2109 19.3531 49.1599 19.2162 49.0484ZM21.0861 46.6496C20.7519 46.3913 20.6959 45.9145 20.9546 45.585C21.2128 45.2502 21.6898 45.1946 22.0191 45.448C22.3533 45.7068 22.4093 46.1885 22.1506 46.518C22.0039 46.7105 21.7806 46.8122 21.5528 46.8122C21.3908 46.8122 21.2231 46.7562 21.0861 46.6496Z" fill="#175DA8"/>
<path id="XMLID_97_" d="M167.754 95.0103C167.415 94.7569 167.344 94.2801 167.597 93.9453C167.846 93.6055 168.322 93.5347 168.662 93.7881C168.996 94.0366 169.068 94.5134 168.819 94.8478C168.667 95.0511 168.439 95.1572 168.206 95.1572C168.048 95.1572 167.891 95.1066 167.754 95.0103ZM169.569 92.5659C169.229 92.3125 169.158 91.8357 169.412 91.5013C169.661 91.1664 170.136 91.0952 170.476 91.3442C170.81 91.5926 170.881 92.069 170.634 92.4092C170.481 92.612 170.253 92.7136 170.02 92.7136C169.863 92.7128 169.706 92.6671 169.569 92.5659ZM171.378 90.1215C171.044 89.873 170.973 89.3962 171.227 89.0564H171.221C171.475 88.722 171.951 88.6508 172.286 88.8993C172.625 89.1527 172.696 89.6295 172.443 89.9644C172.296 90.1672 172.068 90.2737 171.835 90.2737C171.678 90.2737 171.515 90.2231 171.378 90.1215ZM173.193 87.6771C172.859 87.4286 172.788 86.9518 173.036 86.617C173.289 86.2772 173.766 86.206 174.1 86.4594C174.44 86.7083 174.511 87.1846 174.258 87.5244V87.5195C174.111 87.7223 173.877 87.8289 173.649 87.8289C173.492 87.8293 173.33 87.7787 173.193 87.6771ZM175.008 85.2381C174.668 84.9896 174.603 84.5079 174.851 84.173C175.104 83.8381 175.576 83.7674 175.915 84.0159C176.25 84.2643 176.321 84.7411 176.072 85.0809C175.92 85.2837 175.692 85.3854 175.459 85.3854C175.302 85.3849 175.144 85.3392 175.008 85.2381ZM176.823 82.7937C176.483 82.5452 176.411 82.0684 176.665 81.729C176.914 81.3942 177.39 81.323 177.73 81.5715C178.065 81.8248 178.135 82.3016 177.887 82.6365C177.735 82.8393 177.506 82.9459 177.273 82.9459C177.117 82.9459 176.959 82.8948 176.823 82.7937ZM178.637 80.3542C178.297 80.1008 178.226 79.6235 178.48 79.2891C178.728 78.9493 179.204 78.8781 179.539 79.132C179.878 79.3804 179.949 79.8568 179.701 80.197C179.549 80.3945 179.321 80.501 179.088 80.501C178.931 80.5015 178.774 80.4509 178.637 80.3542ZM180.446 77.9098C180.112 77.6613 180.041 77.1849 180.294 76.8447H180.289C180.542 76.5103 181.019 76.4391 181.354 76.6876C181.693 76.941 181.764 77.4182 181.511 77.7526C181.364 77.9554 181.136 78.062 180.903 78.062C180.745 78.062 180.583 78.0114 180.446 77.9098ZM182.261 75.4654C181.926 75.2169 181.856 74.7401 182.104 74.4003C182.357 74.0654 182.834 73.9947 183.168 74.2432C183.508 74.4965 183.573 74.9733 183.326 75.3082C183.178 75.511 182.945 75.6171 182.717 75.6171C182.56 75.6176 182.398 75.567 182.261 75.4654ZM184.075 73.0263C183.741 72.7729 183.67 72.2961 183.918 71.9613C184.166 71.6215 184.643 71.5503 184.982 71.8041C185.317 72.0526 185.388 72.5294 185.14 72.8692C184.987 73.0671 184.76 73.1736 184.527 73.1736C184.37 73.1732 184.213 73.1279 184.075 73.0263ZM184.613 70.389C184.375 70.0442 184.461 69.5674 184.806 69.3293C185.151 69.0907 185.627 69.1775 185.865 69.5218C186.103 69.8665 186.017 70.3384 185.672 70.5765C185.541 70.6679 185.388 70.7135 185.241 70.7135C184.998 70.7135 184.765 70.6021 184.613 70.389ZM182.884 67.889H182.879C182.641 67.5389 182.727 67.0675 183.072 66.8289C183.417 66.5907 183.893 66.6713 184.131 67.0219C184.369 67.3666 184.284 67.8385 183.939 68.0762C183.807 68.1675 183.654 68.2132 183.507 68.2132C183.265 68.2136 183.032 68.1021 182.884 67.889ZM181.151 65.3842H181.145C180.907 65.0395 180.993 64.5676 181.339 64.3294C181.683 64.0859 182.159 64.1723 182.398 64.517C182.636 64.8671 182.55 65.3385 182.205 65.5772C182.073 65.6685 181.921 65.7141 181.774 65.7141C181.531 65.7137 181.298 65.5969 181.151 65.3842ZM179.417 62.8888L179.412 62.8838C179.179 62.5391 179.26 62.0677 179.605 61.8291C179.95 61.5909 180.426 61.6719 180.664 62.0216C180.903 62.3663 180.817 62.8382 180.472 63.0763C180.34 63.1677 180.187 63.2133 180.041 63.2133C179.798 63.2133 179.565 63.0969 179.417 62.8888ZM177.684 60.3835C177.441 60.0387 177.526 59.5669 177.871 59.3287C178.216 59.0856 178.693 59.1715 178.931 59.5163C179.169 59.861 179.083 60.3378 178.738 60.5764C178.606 60.6677 178.459 60.7134 178.307 60.7134C178.069 60.713 177.831 60.5966 177.684 60.3835ZM175.95 57.8835C175.707 57.5388 175.793 57.0669 176.138 56.8288C176.488 56.5857 176.959 56.6716 177.197 57.0164C177.441 57.366 177.35 57.8374 177.004 58.076C176.873 58.1674 176.726 58.213 176.574 58.213C176.336 58.213 176.097 58.0966 175.95 57.8835ZM174.217 55.3832C173.979 55.038 174.065 54.5666 174.409 54.3284C174.754 54.0849 175.226 54.1708 175.464 54.516C175.702 54.8612 175.621 55.338 175.271 55.5757C175.144 55.667 174.992 55.7127 174.84 55.7127C174.602 55.7127 174.364 55.5963 174.217 55.3832ZM172.484 52.8832C172.245 52.5385 172.331 52.0667 172.676 51.8285C173.021 51.5849 173.492 51.6713 173.731 52.0161C173.969 52.3608 173.888 52.8376 173.543 53.0762C173.411 53.1675 173.259 53.2132 173.107 53.2132C172.869 53.2128 172.63 53.0964 172.484 52.8832ZM170.75 50.3829C170.512 50.0377 170.593 49.5663 170.942 49.3281C171.287 49.0846 171.759 49.171 171.997 49.5157C172.241 49.8604 172.154 50.3372 171.809 50.5758C171.678 50.6672 171.526 50.7128 171.373 50.7128C171.135 50.7128 170.897 50.596 170.75 50.3829Z" fill="#175DA8"/>
<path id="XMLID_98_" d="M133.646 117.447C133.23 117.37 132.957 116.98 133.027 116.564C133.098 116.153 133.494 115.874 133.904 115.945C134.32 116.016 134.599 116.412 134.523 116.822C134.462 117.193 134.138 117.456 133.778 117.456C133.732 117.456 133.692 117.451 133.646 117.447ZM130.65 116.929C130.235 116.853 129.956 116.462 130.032 116.046C130.103 115.636 130.493 115.357 130.909 115.427C131.319 115.498 131.598 115.894 131.527 116.305C131.466 116.675 131.142 116.939 130.777 116.939C130.737 116.939 130.691 116.934 130.65 116.929ZM127.655 116.412C127.239 116.34 126.961 115.945 127.031 115.529C127.102 115.118 127.498 114.839 127.913 114.91C128.324 114.981 128.603 115.377 128.532 115.787C128.466 116.158 128.147 116.421 127.782 116.421C127.741 116.422 127.695 116.417 127.655 116.412ZM124.654 115.894C124.243 115.824 123.964 115.428 124.035 115.012C124.106 114.601 124.501 114.322 124.913 114.393C125.328 114.464 125.607 114.86 125.536 115.271C125.47 115.641 125.146 115.905 124.786 115.905C124.74 115.905 124.7 115.899 124.654 115.894ZM121.659 115.377C121.242 115.306 120.969 114.91 121.04 114.494C121.111 114.083 121.501 113.805 121.917 113.876C122.333 113.946 122.606 114.342 122.535 114.753C122.474 115.123 122.15 115.387 121.79 115.387C121.745 115.387 121.704 115.382 121.659 115.377ZM118.663 114.86C118.247 114.789 117.968 114.393 118.039 113.982C118.115 113.566 118.506 113.287 118.922 113.358C119.332 113.429 119.611 113.825 119.539 114.236C119.474 114.606 119.155 114.87 118.79 114.87C118.749 114.87 118.704 114.865 118.663 114.86ZM115.667 114.343C115.251 114.272 114.973 113.876 115.044 113.465C115.115 113.049 115.51 112.77 115.92 112.842C116.336 112.912 116.615 113.308 116.544 113.719C116.478 114.094 116.159 114.353 115.794 114.353C115.753 114.353 115.708 114.348 115.667 114.343ZM112.666 113.825C112.256 113.754 111.977 113.359 112.048 112.948C112.119 112.532 112.514 112.253 112.925 112.324C113.341 112.395 113.614 112.791 113.549 113.202C113.483 113.571 113.164 113.835 112.798 113.835C112.758 113.835 112.712 113.83 112.666 113.825ZM109.671 113.308C109.255 113.236 108.982 112.842 109.053 112.43C109.123 112.015 109.514 111.735 109.929 111.807C110.345 111.877 110.619 112.273 110.548 112.689C110.487 113.059 110.162 113.317 109.803 113.317C109.757 113.318 109.717 113.318 109.671 113.308ZM106.675 112.791C106.26 112.72 105.981 112.324 106.052 111.914C106.123 111.497 106.518 111.218 106.934 111.289H106.929C107.345 111.361 107.623 111.756 107.552 112.172C107.487 112.542 107.168 112.801 106.802 112.801C106.761 112.801 106.716 112.801 106.675 112.791ZM103.675 112.273C103.264 112.202 102.986 111.807 103.057 111.396C103.127 110.981 103.523 110.701 103.934 110.772C104.349 110.848 104.628 111.239 104.557 111.655C104.491 112.025 104.167 112.283 103.807 112.283C103.761 112.283 103.72 112.283 103.675 112.273ZM100.679 111.756C100.269 111.686 99.9899 111.289 100.061 110.879C100.132 110.463 100.527 110.184 100.938 110.255C101.353 110.331 101.627 110.721 101.56 111.138C101.495 111.508 101.171 111.766 100.811 111.766C100.766 111.766 100.725 111.766 100.679 111.756ZM97.6841 111.239C97.268 111.168 96.9892 110.772 97.0653 110.361C97.1364 109.945 97.5261 109.672 97.9423 109.743C98.3526 109.813 98.6314 110.204 98.5607 110.62C98.4994 110.99 98.1754 111.249 97.8107 111.249C97.77 111.249 97.7248 111.249 97.6841 111.239ZM94.6884 110.721C94.2727 110.651 93.9939 110.255 94.065 109.844C94.1357 109.428 94.5313 109.149 94.9421 109.226C95.3577 109.296 95.6365 109.687 95.5654 110.103C95.4991 110.473 95.1801 110.732 94.815 110.732C94.7743 110.732 94.7286 110.732 94.6884 110.721ZM91.6877 110.205C91.2773 110.134 90.9986 109.743 91.0693 109.327C91.1404 108.911 91.5355 108.638 91.9463 108.708C92.362 108.779 92.6408 109.17 92.5696 109.586C92.5034 109.956 92.1794 110.214 91.8192 110.214C91.7736 110.214 91.7333 110.214 91.6877 110.205ZM88.6919 109.687C88.2762 109.616 88.0024 109.226 88.0735 108.81C88.1447 108.394 88.5349 108.12 88.9501 108.191C89.3662 108.262 89.6396 108.653 89.5685 109.068C89.5076 109.439 89.1832 109.702 88.8185 109.702C88.7783 109.702 88.7376 109.697 88.6919 109.687ZM85.6962 109.17C85.2805 109.099 85.0017 108.708 85.0728 108.292C85.144 107.877 85.5391 107.603 85.9548 107.673C86.3651 107.744 86.6439 108.135 86.5727 108.551C86.5119 108.921 86.1879 109.185 85.8228 109.185C85.7825 109.185 85.7369 109.18 85.6962 109.17ZM82.6955 108.653C82.2852 108.582 82.0064 108.191 82.0771 107.775C82.1482 107.359 82.5433 107.086 82.959 107.157C83.3694 107.228 83.6486 107.623 83.577 108.034C83.5112 108.404 83.1922 108.668 82.827 108.668C82.7818 108.668 82.7411 108.662 82.6955 108.653ZM79.7002 108.135C79.2894 108.065 79.0106 107.674 79.0818 107.258C79.1525 106.842 79.548 106.569 79.9584 106.639C80.3741 106.71 80.6528 107.106 80.5821 107.517C80.5159 107.887 80.1969 108.151 79.8317 108.151C79.7861 108.151 79.7458 108.145 79.7002 108.135ZM76.7049 107.623C76.2892 107.552 76.0153 107.157 76.0865 106.74C76.1576 106.33 76.5478 106.051 76.9635 106.122C77.3743 106.192 77.6526 106.588 77.5819 106.999C77.521 107.369 77.1966 107.633 76.8369 107.633C76.7908 107.633 76.7501 107.628 76.7049 107.623ZM73.7091 107.106C73.2934 107.035 73.0147 106.639 73.0858 106.223C73.1569 105.812 73.5521 105.534 73.9678 105.605C74.3785 105.676 74.6573 106.071 74.5861 106.482C74.5204 106.852 74.2009 107.116 73.8362 107.116C73.795 107.116 73.7498 107.111 73.7091 107.106ZM70.7084 106.589C70.2981 106.517 70.0189 106.122 70.0901 105.706C70.1612 105.296 70.5563 105.016 70.9666 105.088C71.3823 105.158 71.6611 105.554 71.5899 105.965C71.5242 106.335 71.2051 106.599 70.84 106.599C70.7948 106.599 70.7541 106.594 70.7084 106.589ZM67.7127 106.071C67.2974 106 67.0236 105.605 67.0943 105.189C67.1654 104.778 67.5556 104.499 67.9713 104.57C68.387 104.641 68.6609 105.036 68.5897 105.447C68.5289 105.817 68.2045 106.081 67.8442 106.081C67.7991 106.081 67.7583 106.076 67.7127 106.071ZM64.7174 105.554C64.3017 105.483 64.0229 105.088 64.0936 104.671C64.1697 104.261 64.5599 103.981 64.9756 104.053C65.3863 104.124 65.6651 104.519 65.594 104.93C65.5282 105.305 65.2087 105.564 64.844 105.564C64.8033 105.564 64.7577 105.559 64.7174 105.554ZM61.7216 105.036C61.3059 104.966 61.0272 104.57 61.0979 104.159C61.1686 103.744 61.5641 103.465 61.9798 103.535C62.3906 103.607 62.6694 104.002 62.5982 104.413C62.5324 104.783 62.2129 105.047 61.8483 105.047C61.808 105.047 61.7619 105.042 61.7216 105.036Z" fill="white"/>
<path id="XMLID_99_" d="M142.83 77.0574C142.466 76.8542 142.334 76.3931 142.536 76.0228C142.74 75.6575 143.2 75.5259 143.571 75.7287C143.936 75.9315 144.068 76.3931 143.864 76.7633C143.728 77.0118 143.469 77.1537 143.201 77.1537C143.074 77.1537 142.947 77.1233 142.83 77.0574ZM140.175 75.5814C139.805 75.3786 139.673 74.9117 139.875 74.5468C140.083 74.1815 140.545 74.0498 140.91 74.2526C141.28 74.4554 141.412 74.917 141.209 75.2873C141.067 75.5357 140.809 75.6777 140.54 75.6777C140.418 75.6777 140.292 75.6472 140.175 75.5814ZM137.514 74.1054C137.149 73.9025 137.012 73.4361 137.22 73.0707C137.422 72.7005 137.884 72.5684 138.249 72.7766C138.619 72.9799 138.751 73.441 138.548 73.8063C138.411 74.0597 138.148 74.2016 137.884 74.2016C137.757 74.2021 137.63 74.1716 137.514 74.1054ZM134.853 72.6298V72.6248C134.487 72.422 134.356 71.9605 134.559 71.5956C134.761 71.2253 135.228 71.0933 135.593 71.2961C135.958 71.5038 136.094 71.9658 135.887 72.3307C135.75 72.5841 135.492 72.7211 135.223 72.7211C135.096 72.7211 134.974 72.6906 134.853 72.6298ZM132.197 71.1488C131.827 70.946 131.695 70.4844 131.903 70.1142C132.105 69.7493 132.567 69.6172 132.932 69.8205C133.302 70.0233 133.434 70.4844 133.231 70.8547C133.094 71.1036 132.831 71.245 132.567 71.245C132.44 71.2455 132.313 71.215 132.197 71.1488ZM129.536 69.6732C129.171 69.4699 129.039 69.0088 129.242 68.6386C129.445 68.2733 129.905 68.1416 130.276 68.3444C130.641 68.5472 130.772 69.0088 130.57 69.3791C130.433 69.6275 130.174 69.7694 129.905 69.7694C129.779 69.7699 129.652 69.739 129.536 69.6732ZM126.88 68.1976C126.51 67.9948 126.378 67.5283 126.581 67.163C126.783 66.7927 127.25 66.6611 127.615 66.8688C127.985 67.0716 128.117 67.5332 127.914 67.9035C127.772 68.1519 127.513 68.2938 127.245 68.2938C127.123 68.2938 126.997 68.2634 126.88 68.1976ZM124.219 66.722C123.854 66.5192 123.722 66.0527 123.925 65.6874C124.128 65.3171 124.589 65.1855 124.959 65.3932C125.323 65.596 125.455 66.0572 125.253 66.4225C125.115 66.6759 124.852 66.8178 124.589 66.8178C124.463 66.8182 124.336 66.7878 124.219 66.722ZM121.563 65.2459V65.241C121.193 65.0382 121.061 64.5766 121.264 64.2118C121.466 63.8415 121.928 63.7095 122.297 63.9123C122.662 64.1155 122.799 64.582 122.591 64.9469C122.454 65.2003 122.196 65.3373 121.928 65.3373C121.801 65.3373 121.674 65.3068 121.563 65.2459ZM118.902 63.765C118.537 63.5622 118.4 63.101 118.608 62.7308C118.811 62.3655 119.272 62.2334 119.637 62.4367C120.007 62.6395 120.139 63.1011 119.936 63.4713C119.794 63.7198 119.535 63.8617 119.272 63.8617C119.145 63.8617 119.018 63.8312 118.902 63.765ZM116.24 62.2894C115.876 62.0866 115.744 61.625 115.947 61.2548C116.15 60.8894 116.611 60.7578 116.981 60.9606C117.346 61.1634 117.478 61.625 117.275 61.9952C117.138 62.2437 116.879 62.3856 116.611 62.3856C116.484 62.3861 116.357 62.3556 116.24 62.2894ZM113.584 60.8138C113.215 60.611 113.083 60.1445 113.285 59.7792C113.493 59.4089 113.954 59.2773 114.32 59.485C114.69 59.6883 114.822 60.1494 114.618 60.5147C114.477 60.7681 114.218 60.91 113.95 60.91C113.828 60.91 113.701 60.8796 113.584 60.8138ZM110.923 59.3382C110.559 59.1305 110.427 58.6689 110.63 58.3036C110.832 57.9333 111.294 57.8017 111.664 58.0045C112.029 58.2122 112.16 58.6743 111.958 59.0391C111.821 59.2925 111.557 59.4349 111.294 59.4349C111.167 59.4344 111.041 59.3986 110.923 59.3382ZM108.263 57.8572C107.898 57.6544 107.766 57.1928 107.969 56.828C108.171 56.4577 108.638 56.3257 109.003 56.5289C109.373 56.7317 109.505 57.1987 109.297 57.5635C109.16 57.8124 108.902 57.9544 108.633 57.9544C108.511 57.9535 108.384 57.923 108.263 57.8572ZM105.607 56.3816C105.236 56.1784 105.11 55.7172 105.313 55.347C105.515 54.9817 105.977 54.8501 106.347 55.0529C106.712 55.2557 106.843 55.7172 106.641 56.0875C106.504 56.3359 106.241 56.4779 105.977 56.4779C105.85 56.4779 105.723 56.4474 105.607 56.3816ZM102.946 54.906C102.581 54.7032 102.449 54.2367 102.652 53.8714C102.854 53.5061 103.316 53.3745 103.686 53.5773C104.05 53.7801 104.188 54.2416 103.98 54.6119C103.842 54.8604 103.584 55.0023 103.316 55.0023C103.189 55.0018 103.062 54.9718 102.946 54.906ZM100.289 53.43C99.9193 53.2272 99.7877 52.7607 99.9904 52.3954C100.193 52.0251 100.659 51.8935 101.025 52.1012C101.395 52.3045 101.527 52.7656 101.324 53.1309C101.182 53.3843 100.923 53.5262 100.654 53.5262C100.533 53.5262 100.406 53.4958 100.289 53.43ZM97.6287 51.9544V51.949C97.2641 51.7462 97.1316 51.2846 97.3348 50.9198C97.5375 50.5495 97.9984 50.4174 98.3689 50.6203C98.7335 50.8284 98.8655 51.29 98.6628 51.6549C98.5255 51.9083 98.2673 52.0506 97.9988 52.0453C97.8717 52.0453 97.7451 52.0153 97.6287 51.9544ZM94.9677 50.4734C94.6026 50.2706 94.471 49.809 94.6737 49.4388C94.8764 49.0739 95.3427 48.9418 95.7078 49.1447C96.0778 49.3475 96.2098 49.814 96.0018 50.1793C95.8649 50.4277 95.6062 50.5697 95.3377 50.5697C95.2156 50.5697 95.089 50.5397 94.9677 50.4734ZM92.3116 48.9978C91.9469 48.7946 91.81 48.3334 92.0176 47.9632C92.2203 47.5979 92.6816 47.4662 93.0517 47.669C93.4163 47.8719 93.5483 48.3334 93.3456 48.7037C93.2038 48.9521 92.9452 49.0945 92.6816 49.0945C92.555 49.0941 92.4279 49.0636 92.3116 48.9978ZM89.6505 47.5222C89.2858 47.3194 89.1538 46.8529 89.3565 46.4876C89.5592 46.1227 90.0255 45.9907 90.3906 46.1935C90.7553 46.3963 90.8922 46.8578 90.6841 47.2281C90.5472 47.4765 90.289 47.6189 90.0201 47.6189C89.8935 47.6185 89.7668 47.588 89.6505 47.5222ZM86.9944 46.0462C86.6243 45.8434 86.4923 45.3769 86.7004 45.0115C86.9031 44.6413 87.3644 44.5097 87.7345 44.7174H87.7296C88.0996 44.9202 88.2312 45.3813 88.0289 45.7467C87.8871 46.0001 87.6284 46.142 87.3649 46.142C87.2378 46.1424 87.1112 46.1124 86.9944 46.0462ZM84.3338 44.5706V44.5652C83.9686 44.3624 83.8371 43.9008 84.0398 43.5359C84.2425 43.1657 84.7038 43.0336 85.0739 43.2364C85.4386 43.4397 85.5706 43.9062 85.3679 44.2711C85.2309 44.5245 84.9723 44.6614 84.7038 44.6614C84.5767 44.6614 84.4501 44.6315 84.3338 44.5706ZM81.6776 43.0896C81.3076 42.8868 81.176 42.4252 81.3787 42.055C81.5814 41.6897 82.0477 41.558 82.4128 41.7608C82.7829 41.9636 82.9149 42.4301 82.7068 42.7955C82.5699 43.0439 82.3112 43.1858 82.0428 43.1858C81.9206 43.1858 81.794 43.1559 81.6776 43.0896ZM79.0161 41.614C78.6515 41.4112 78.5145 40.9496 78.7226 40.5798C78.9253 40.2145 79.3862 40.0829 79.7562 40.2857C80.1214 40.4885 80.2534 40.9501 80.0502 41.3203C79.9133 41.5688 79.6497 41.7107 79.3862 41.7107C79.2596 41.7103 79.1329 41.6798 79.0161 41.614Z" fill="white"/>
<path id="XMLID_104_" d="M54.4184 55.4733C54.0994 55.1944 54.0685 54.7176 54.3424 54.3984C54.6211 54.0836 55.1026 54.0483 55.4172 54.3272C55.7313 54.6007 55.7666 55.0829 55.4879 55.4021C55.3406 55.5744 55.1277 55.6608 54.9151 55.6608C54.7375 55.6608 54.5603 55.6 54.4184 55.4733ZM56.4154 53.1811C56.1009 52.9022 56.0705 52.4254 56.3443 52.1062C56.6235 51.7914 57.0996 51.7614 57.4186 52.035C57.7332 52.3085 57.7636 52.7907 57.4898 53.1099C57.3377 53.2823 57.1296 53.3687 56.9171 53.3687C56.7399 53.3687 56.5627 53.3078 56.4154 53.1811ZM58.4178 50.8889C58.1033 50.6149 58.0679 50.1332 58.3467 49.814C58.6205 49.4992 59.102 49.4688 59.4161 49.7428C59.7352 50.0168 59.7656 50.4985 59.4917 50.8177C59.3401 50.9901 59.1271 51.0765 58.919 51.0765C58.7418 51.0765 58.5592 51.0156 58.4178 50.8889ZM60.4198 48.5967C60.1007 48.3227 60.0699 47.841 60.3437 47.5218C60.6225 47.2071 61.099 47.1766 61.4185 47.4506C61.7326 47.7246 61.768 48.2063 61.4897 48.5255C61.3424 48.6979 61.1294 48.7843 60.9165 48.7843C60.7393 48.7843 60.5616 48.7234 60.4198 48.5967ZM62.4168 46.3045C62.1027 46.031 62.0673 45.5488 62.3461 45.2296C62.6199 44.9149 63.1014 44.8844 63.4155 45.1584C63.7346 45.4373 63.765 45.9141 63.4916 46.2333C63.3395 46.4057 63.1318 46.4921 62.9188 46.4921C62.7412 46.4921 62.5636 46.4312 62.4168 46.3045ZM64.4187 44.0123C64.0997 43.7388 64.0693 43.2566 64.3476 42.9374C64.6214 42.6227 65.1029 42.5927 65.4175 42.8662C65.7365 43.1456 65.7669 43.6219 65.4935 43.9411C65.3414 44.1135 65.1284 44.1999 64.9159 44.1999C64.7382 44.1999 64.5606 44.139 64.4187 44.0123ZM66.4158 41.7201C66.1016 41.4412 66.0712 40.9644 66.3446 40.6501V40.6448C66.6238 40.33 67.0999 40.2947 67.4194 40.5736C67.7335 40.8529 67.7644 41.3293 67.4906 41.6485C67.3384 41.8209 67.1308 41.9073 66.9178 41.9073C66.7402 41.9077 66.563 41.8468 66.4158 41.7201Z" fill="white"/>
<g id="XMLID_15_">
<path id="XMLID_19_" d="M122.318 127.47C110.314 123.724 102.982 119.723 102.982 119.723L94.7848 120.491L86.5873 119.723C86.5873 119.723 79.2557 123.724 67.2512 127.47C55.2467 131.215 50.5389 146.052 52.1865 160.183C52.1865 160.183 63.6057 170.621 93.4335 171.223V171.252C93.8881 171.252 94.3378 171.249 94.7848 171.244C95.2318 171.249 95.6811 171.252 96.1361 171.252V171.223C125.964 170.621 137.383 160.183 137.383 160.183C139.03 146.052 134.323 131.215 122.318 127.47Z" fill="#01063D"/>
<g id="XMLID_14_">
<path id="XMLID_31_" d="M105.305 106.247L95.2058 105.236L85.1066 106.247C85.1066 106.247 86.79 115.846 84.0967 123.256C84.0967 123.256 87.4629 127.466 95.2058 127.466C102.948 127.466 106.315 123.256 106.315 123.256C103.622 115.846 105.305 106.247 105.305 106.247Z" fill="white"/>
<path id="XMLID_38_" d="M105.304 106.247L95.2047 105.236L85.1055 106.247C85.1055 106.247 85.6303 109.243 85.6245 113.179C86.8004 114.923 88.1285 116.456 89.5944 117.651C91.6594 119.335 95.5327 119.719 96.5515 119.719C97.5699 119.719 101.443 119.335 103.509 117.651C103.992 117.257 104.46 116.822 104.914 116.358C104.477 110.977 105.304 106.247 105.304 106.247Z" fill="white"/>
<path id="XMLID_6_" d="M94.701 69.2793C84.4756 69.2793 77.7852 77.5728 77.7852 87.8035C77.7852 95.4765 81.5488 106.536 87.7439 111.586C89.8089 113.27 93.6821 113.654 94.701 113.654C95.7194 113.654 99.5926 113.27 101.658 111.586C107.854 106.536 111.617 95.477 111.617 87.8035C111.617 77.5733 104.926 69.2793 94.701 69.2793Z" fill="white"/>
<path id="XMLID_7_" d="M106.568 74.1244C106.568 70.846 101.255 68.1885 94.7016 68.1885C88.1481 68.1885 82.835 70.8464 82.835 74.1244C82.835 77.4029 88.1477 80.0609 94.7016 80.0609C101.255 80.0609 106.568 77.4029 106.568 74.1244Z" fill="#175DA8"/>
<path id="XMLID_8_" d="M86.6209 76.0202C86.6209 76.0202 78.1522 79.7401 78.5361 94.3627C78.5361 94.3627 76.6478 89.5347 77.0268 82.5883C77.4058 75.6415 84.6708 70.9541 84.6708 70.9541L86.6209 76.0202Z" fill="#175DA8"/>
<path id="XMLID_9_" d="M102.782 76.0202C102.782 76.0202 111.251 79.7401 110.867 94.3627C110.867 94.3627 112.755 89.5347 112.376 82.5883C111.997 75.6415 104.732 70.9541 104.732 70.9541L102.782 76.0202Z" fill="#175DA8"/>
<path id="XMLID_10_" d="M81.0672 72.9862C81.0672 72.9862 80.3723 68.7478 86.4295 65.7868C95.4727 61.3663 109.478 66.671 111.676 81.0818C111.676 81.0818 96.6728 70.3336 81.0672 72.9862Z" fill="#175DA8"/>
<path id="XMLID_11_" d="M83.9701 70.9518C83.9701 70.9518 81.9002 69.2872 78.4158 72.987C74.9314 76.6867 77.0501 86.6421 77.0501 86.6421C77.0501 86.6421 81.4456 73.2265 86.6213 72.6015C91.7971 71.977 83.264 70.9522 83.264 70.9522" fill="#175DA8"/>
<path id="XMLID_12_" d="M105.222 70.9518C105.222 70.9518 107.292 69.2872 110.776 72.987C114.261 76.6867 112.142 86.6421 112.142 86.6421C112.142 86.6421 107.747 73.2265 102.571 72.6015C97.3951 71.977 105.928 70.9522 105.928 70.9522" fill="#175DA8"/>
<path id="XMLID_13_" d="M117.903 95.432C117.384 100.147 112.961 103.528 110.605 103.268C108.248 103.008 108.851 99.2056 109.37 94.4909C109.89 89.7758 110.129 85.9342 112.485 86.1938C114.842 86.4539 118.422 90.7173 117.903 95.432Z" fill="#01063D"/>
<path id="XMLID_39_" d="M111.39 94.4909C111.812 90.6605 112.05 87.4066 113.387 86.4593C113.075 86.3165 112.771 86.2252 112.485 86.1938C110.129 85.9342 109.89 89.7758 109.37 94.4909C108.851 99.2056 108.248 103.008 110.605 103.268C111.016 103.313 111.492 103.245 111.998 103.08C110.391 102.226 110.923 98.7283 111.39 94.4909Z" fill="white"/>
<path id="XMLID_16_" d="M71.668 95.432C72.1875 100.147 76.6098 103.528 78.9657 103.268C81.322 103.008 80.7197 99.2056 80.2002 94.4909C79.6807 89.7758 79.4413 85.9342 77.085 86.1938C74.7291 86.4539 71.1485 90.7173 71.668 95.432Z" fill="#01063D"/>
<path id="XMLID_36_" d="M80.201 94.4912C79.6815 89.7761 79.4421 85.9344 77.0858 86.1941C76.8003 86.2254 76.4965 86.3167 76.1846 86.4596C77.522 87.4069 77.7596 90.6607 78.1811 94.4912C78.6478 98.7281 79.1799 102.226 77.5735 103.081C78.0791 103.245 78.5548 103.313 78.9664 103.268C81.3228 103.008 80.7205 99.2058 80.201 94.4912Z" fill="white"/>
<path id="XMLID_25_" d="M114.188 89.1377L112.748 88.6685C112.792 88.5297 117.177 74.7179 111.055 66.2865C107.874 61.9058 102.372 59.6848 94.7007 59.6848C87.0272 59.6848 81.5234 61.9076 78.3433 66.291C72.218 74.7332 76.6085 88.5297 76.6537 88.6681L75.2133 89.1373C75.0196 88.5423 70.5432 74.4614 77.1177 65.4001C80.599 60.6017 86.5148 58.1689 94.7007 58.1689C102.887 58.1689 108.802 60.6017 112.284 65.4001C118.858 74.4614 114.381 88.5423 114.188 89.1377Z" fill="#01063D"/>
<path id="XMLID_21_" d="M79.5304 66.0708C78.9258 66.0708 78.3231 65.8308 77.8761 65.3562C77.0156 64.4425 77.0586 63.0036 77.9719 62.1427C81.8366 58.5003 87.4647 56.6531 94.7006 56.6531C101.79 56.6531 107.34 58.4273 111.195 61.9265C112.125 62.7699 112.195 64.2079 111.352 65.1378C110.509 66.0681 109.072 66.1379 108.142 65.2945C105.148 62.5779 100.626 61.2003 94.7006 61.2003C88.6613 61.2003 84.0815 62.6307 81.088 65.4525C80.6495 65.8657 80.0892 66.0708 79.5304 66.0708Z" fill="#175DA8"/>
<path id="XMLID_27_" d="M96.5527 110.794V109.783C103.692 109.783 108.985 107.953 111.86 104.492C113.994 101.923 114.057 99.36 114.057 99.334L115.068 99.3492C115.066 99.4687 114.996 102.297 112.636 105.138C110.494 107.718 105.965 110.794 96.5527 110.794Z" fill="#01063D"/>
<path id="XMLID_24_" d="M99.0779 110.119C99.0779 111.235 97.6085 112.14 95.7958 112.14C93.9831 112.14 92.5137 111.235 92.5137 110.119C92.5137 109.003 93.9831 108.098 95.7958 108.098C97.6085 108.098 99.0779 109.003 99.0779 110.119Z" fill="#01063D"/>
</g>
<path id="XMLID_175_" opacity="0.5" d="M129.549 154.484C128.327 156.318 129.447 147.557 128.938 142.974C128.938 142.974 128.284 155.204 125.96 166.243C126.737 165.958 127.47 165.671 128.162 165.385C129.364 161.056 131.091 154.112 131.789 147.761C131.789 147.761 130.771 152.651 129.549 154.484ZM62.0369 154.484C60.8153 152.651 59.7969 147.761 59.7969 147.761C60.545 154.564 62.4727 162.044 63.6714 166.266C64.3444 166.512 65.0496 166.756 65.7879 166.997C63.3314 155.77 62.6477 142.974 62.6477 142.974C62.1389 147.557 63.2584 156.318 62.0369 154.484Z" fill="#175DA8"/>
</g>
</g>
</svg>
