<svg width="24" height="24" viewBox="0 0 24 24" fill="none" xmlns="http://www.w3.org/2000/svg">
<path fill-rule="evenodd" clip-rule="evenodd" d="M7.45517 7.46712V6.39388C7.4553 6.00955 7.59925 5.63802 7.86086 5.34681C8.12248 5.05561 8.48438 4.86404 8.88081 4.80694L10.0481 4.63908C11.3422 4.45364 12.6578 4.45364 13.9519 4.63908L15.1192 4.80694C15.5156 4.86404 15.8775 5.05561 16.1391 5.34681C16.4007 5.63802 16.5447 6.00955 16.5448 6.39388V7.46712L18.1848 7.59371C18.795 7.64097 19.371 7.883 19.8207 8.2811C20.2705 8.67921 20.568 9.2104 20.6658 9.78974C21.1114 12.4248 21.1114 15.1114 20.6658 17.7464C20.568 18.3258 20.2705 18.857 19.8207 19.2551C19.371 19.6532 18.795 19.8952 18.1848 19.9425L16.3937 20.0801C13.4693 20.3067 10.5307 20.3067 7.60634 20.0801L5.8152 19.9425C5.20505 19.8952 4.62904 19.6532 4.17927 19.2551C3.7295 18.857 3.43196 18.3258 3.3342 17.7464C2.8886 15.1114 2.8886 12.4248 3.3342 9.78974C3.43215 9.21056 3.72978 8.67959 4.17953 8.28166C4.62928 7.88374 5.20518 7.64184 5.8152 7.59463L7.45517 7.46712ZM10.2615 5.99944C11.4141 5.83439 12.5859 5.83439 13.7385 5.99944L14.9058 6.16731C14.9625 6.17543 15.0142 6.20277 15.0516 6.24434C15.089 6.28592 15.1096 6.33898 15.1096 6.39388V7.37081C13.0382 7.25739 10.9618 7.25739 8.89038 7.37081V6.39296C8.89044 6.33806 8.91103 6.285 8.94843 6.24342C8.98583 6.20185 9.03754 6.17451 9.09418 6.16639L10.2615 5.99944ZM7.72212 8.82657C10.5696 8.60642 13.4304 8.60642 16.2779 8.82657L18.069 8.966C18.3593 8.98826 18.6334 9.10322 18.8474 9.29247C19.0615 9.48172 19.2031 9.73433 19.2497 10.0099C19.309 10.3627 19.3601 10.7168 19.4028 11.0721C17.0997 12.1589 14.567 12.7241 12 12.7241C9.43301 12.7241 6.90031 12.1589 4.59719 11.0721C4.63929 10.7174 4.69032 10.3634 4.75028 10.0099C4.79688 9.73433 4.93854 9.48172 5.15259 9.29247C5.36665 9.10322 5.64072 8.98826 5.93098 8.966L7.72212 8.82657ZM4.46898 12.5361C6.83409 13.5669 9.40199 14.1002 12 14.1002C14.598 14.1002 17.1659 13.5669 19.531 12.5361C19.6227 14.2044 19.5284 15.8772 19.2497 17.5263C19.2033 17.802 19.0617 18.0548 18.8477 18.2443C18.6336 18.4337 18.3594 18.5488 18.069 18.5711L16.2779 18.7087C13.4304 18.9288 10.5696 18.9288 7.72212 18.7087L5.93098 18.5711C5.64059 18.5488 5.3664 18.4337 5.15233 18.2443C4.93826 18.0548 4.79669 17.802 4.75028 17.5263C4.47185 15.8751 4.37712 14.202 4.46898 12.5361Z" fill="#888888"/>
</svg>
