<svg width="25" height="28" viewBox="0 0 25 28" fill="none" xmlns="http://www.w3.org/2000/svg">
<path id="Vector" d="M24.0245 25.6333L23.6852 26.8996L0.892803 20.7924L1.23209 19.5261L4.44315 17.6722L6.47889 10.0748C7.53068 6.14941 11.0274 3.38132 15.0867 3.27472L15.1851 2.90751C15.3651 2.23585 15.8045 1.66319 16.4067 1.31552C17.0089 0.967844 17.7245 0.873629 18.3962 1.0536C19.0678 1.23357 19.6405 1.67298 19.9882 2.27517C20.3358 2.87736 20.4301 3.593 20.2501 4.26466L20.1517 4.63187C23.6139 6.75385 25.2581 10.8995 24.2063 14.8248L22.1706 22.4223L24.0245 25.6333ZM14.4822 25.7908C14.3022 26.4624 13.8628 27.0351 13.2606 27.3828C12.6584 27.7304 11.9428 27.8247 11.2711 27.6447C10.5995 27.4647 10.0268 27.0253 9.67914 26.4231C9.33146 25.8209 9.23724 25.1053 9.41721 24.4336" fill="#175DA8"/>
</svg>
