<svg width="25" height="24" viewBox="0 0 25 24" fill="none" xmlns="http://www.w3.org/2000/svg">
<g id="fluent:save-24-filled">
<path id="Vector" d="M7.25 3H6.25C5.52065 3 4.82118 3.28973 4.30546 3.80546C3.78973 4.32118 3.5 5.02065 3.5 5.75V18.25C3.5 18.9793 3.78973 19.6788 4.30546 20.1945C4.82118 20.7103 5.52065 21 6.25 21H6.5V15C6.5 14.4033 6.73705 13.831 7.15901 13.409C7.58097 12.9871 8.15326 12.75 8.75 12.75H16.25C16.8467 12.75 17.419 12.9871 17.841 13.409C18.2629 13.831 18.5 14.4033 18.5 15V21H18.75C19.4793 21 20.1788 20.7103 20.6945 20.1945C21.2103 19.6788 21.5 18.9793 21.5 18.25V8.286C21.5001 7.85905 21.4161 7.43625 21.2527 7.04178C21.0894 6.64731 20.8499 6.28889 20.548 5.987L18.513 3.952C17.9121 3.351 17.0998 3.00925 16.25 3V7.5C16.25 8.09674 16.0129 8.66903 15.591 9.09099C15.169 9.51295 14.5967 9.75 14 9.75H9.5C8.90326 9.75 8.33097 9.51295 7.90901 9.09099C7.48705 8.66903 7.25 8.09674 7.25 7.5V3ZM14.75 3V7.5C14.75 7.69891 14.671 7.88968 14.5303 8.03033C14.3897 8.17098 14.1989 8.25 14 8.25H9.5C9.30109 8.25 9.11032 8.17098 8.96967 8.03033C8.82902 7.88968 8.75 7.69891 8.75 7.5V3H14.75ZM17 21V15C17 14.8011 16.921 14.6103 16.7803 14.4697C16.6397 14.329 16.4489 14.25 16.25 14.25H8.75C8.55109 14.25 8.36032 14.329 8.21967 14.4697C8.07902 14.6103 8 14.8011 8 15V21H17Z" fill="white"/>
</g>
</svg>
