<svg width="16" height="17" viewBox="0 0 16 17" fill="none" xmlns="http://www.w3.org/2000/svg">
<rect width="16" height="17" fill="#1E1E1E"/>
<path d="M-1471 -591C-1471 -592.105 -1470.1 -593 -1469 -593H7959C7960.1 -593 7961 -592.105 7961 -591V2566C7961 2567.1 7960.1 2568 7959 2568H-1469C-1470.1 2568 -1471 2567.1 -1471 2566V-591Z" fill="#888888"/>
<path d="M-1469 -592H7959V-594H-1469V-592ZM7960 -591V2566H7962V-591H7960ZM7959 2567H-1469V2569H7959V2567ZM-1470 2566V-591H-1472V2566H-1470ZM-1469 2567C-1469.55 2567 -1470 2566.55 -1470 2566H-1472C-1472 2567.66 -1470.66 2569 -1469 2569V2567ZM7960 2566C7960 2566.55 7959.55 2567 7959 2567V2569C7960.66 2569 7962 2567.66 7962 2566H7960ZM7959 -592C7959.55 -592 7960 -591.552 7960 -591H7962C7962 -592.657 7960.66 -594 7959 -594V-592ZM-1469 -594C-1470.66 -594 -1472 -592.657 -1472 -591H-1470C-1470 -591.552 -1469.55 -592 -1469 -592V-594Z" fill="white" fill-opacity="0.1"/>
<path d="M-1291 -434C-1291 -435.105 -1290.1 -436 -1289 -436H1102C1103.1 -436 1104 -435.105 1104 -434V2409C1104 2410.1 1103.1 2411 1102 2411H-1289C-1290.1 2411 -1291 2410.1 -1291 2409V-434Z" fill="#444444"/>
<path d="M-1289 -435H1102V-437H-1289V-435ZM1103 -434V2409H1105V-434H1103ZM1102 2410H-1289V2412H1102V2410ZM-1290 2409V-434H-1292V2409H-1290ZM-1289 2410C-1289.55 2410 -1290 2409.55 -1290 2409H-1292C-1292 2410.66 -1290.66 2412 -1289 2412V2410ZM1103 2409C1103 2409.55 1102.55 2410 1102 2410V2412C1103.66 2412 1105 2410.66 1105 2409H1103ZM1102 -435C1102.55 -435 1103 -434.552 1103 -434H1105C1105 -435.657 1103.66 -437 1102 -437V-435ZM-1289 -437C-1290.66 -437 -1292 -435.657 -1292 -434H-1290C-1290 -434.552 -1289.55 -435 -1289 -435V-437Z" fill="white" fill-opacity="0.1"/>
<g clip-path="url(#clip0_803_2)">
<rect width="1440" height="2637" transform="translate(-1093 -367)" fill="white"/>
<g filter="url(#filter0_d_803_2)">
<rect x="-569" y="-143" width="806" height="179" rx="16" fill="white"/>
<path fill-rule="evenodd" clip-rule="evenodd" d="M7.48255 15.2467C7.48255 15.2467 2.39453 10.9616 2.39453 6.74522C2.39453 5.25866 2.98507 3.83299 4.03622 2.78183C5.08738 1.73067 6.51306 1.14014 7.99962 1.14014C9.48618 1.14014 10.9119 1.73067 11.963 2.78183C13.0142 3.83299 13.6047 5.25866 13.6047 6.74522C13.6047 10.9616 8.51669 15.2467 8.51669 15.2467C8.23363 15.5074 7.76771 15.5046 7.48255 15.2467ZM7.99962 9.19745C8.32165 9.19745 8.64053 9.13402 8.93804 9.01078C9.23556 8.88755 9.50589 8.70692 9.7336 8.47921C9.96131 8.2515 10.1419 7.98117 10.2652 7.68365C10.3884 7.38613 10.4518 7.06725 10.4518 6.74522C10.4518 6.42319 10.3884 6.10431 10.2652 5.8068C10.1419 5.50928 9.96131 5.23895 9.7336 5.01124C9.50589 4.78353 9.23556 4.6029 8.93804 4.47966C8.64053 4.35643 8.32165 4.293 7.99962 4.293C7.34925 4.293 6.72551 4.55136 6.26563 5.01124C5.80575 5.47112 5.54739 6.09485 5.54739 6.74522C5.54739 7.39559 5.80575 8.01933 6.26563 8.47921C6.72551 8.93909 7.34925 9.19745 7.99962 9.19745Z" fill="#175DA8"/>
</g>
</g>
<defs>
<filter id="filter0_d_803_2" x="-577" y="-150" width="822" height="195" filterUnits="userSpaceOnUse" color-interpolation-filters="sRGB">
<feFlood flood-opacity="0" result="BackgroundImageFix"/>
<feColorMatrix in="SourceAlpha" type="matrix" values="0 0 0 0 0 0 0 0 0 0 0 0 0 0 0 0 0 0 127 0" result="hardAlpha"/>
<feOffset dy="1"/>
<feGaussianBlur stdDeviation="4"/>
<feColorMatrix type="matrix" values="0 0 0 0 0 0 0 0 0 0 0 0 0 0 0 0 0 0 0.15 0"/>
<feBlend mode="normal" in2="BackgroundImageFix" result="effect1_dropShadow_803_2"/>
<feBlend mode="normal" in="SourceGraphic" in2="effect1_dropShadow_803_2" result="shape"/>
</filter>
<clipPath id="clip0_803_2">
<rect width="1440" height="2637" fill="white" transform="translate(-1093 -367)"/>
</clipPath>
</defs>
</svg>
