<svg width="24" height="24" viewBox="0 0 24 24" fill="none" xmlns="http://www.w3.org/2000/svg">
<path d="M12.75 4.05882C11.3292 4.05882 9.96659 4.6166 8.96193 5.60943C7.95727 6.60227 7.39286 7.94885 7.39286 9.35294C7.39286 10.5473 8.11071 11.9407 9.11786 13.2812C10.11 14.6005 11.3111 15.78 12.1371 16.5286C12.3031 16.6828 12.5222 16.7686 12.75 16.7686C12.9778 16.7686 13.1969 16.6828 13.3629 16.5286C14.1879 15.7789 15.39 14.6015 16.3821 13.2812C17.3893 11.9407 18.1071 10.5473 18.1071 9.35294C18.1071 7.94885 17.5427 6.60227 16.5381 5.60943C15.5334 4.6166 14.1708 4.05882 12.75 4.05882ZM6.32143 9.35294C6.32143 7.66804 6.99872 6.05214 8.20431 4.86073C9.4099 3.66933 11.045 3 12.75 3C14.455 3 16.0901 3.66933 17.2957 4.86073C18.5013 6.05214 19.1786 7.66804 19.1786 9.35294C19.1786 10.9073 18.2754 12.5368 17.2425 13.9122C16.1925 15.3088 14.9368 16.5381 14.0871 17.3079C13.7236 17.6412 13.2459 17.8264 12.75 17.8264C12.2541 17.8264 11.7764 17.6412 11.4129 17.3079C10.5632 16.5381 9.30643 15.3088 8.2575 13.9122C7.22464 12.5368 6.32143 10.9073 6.32143 9.35294ZM12.75 7.76471C12.3238 7.76471 11.915 7.93204 11.6136 8.22989C11.3122 8.52774 11.1429 8.93172 11.1429 9.35294C11.1429 9.77417 11.3122 10.1781 11.6136 10.476C11.915 10.7738 12.3238 10.9412 12.75 10.9412C13.1762 10.9412 13.585 10.7738 13.8864 10.476C14.1878 10.1781 14.3571 9.77417 14.3571 9.35294C14.3571 8.93172 14.1878 8.52774 13.8864 8.22989C13.585 7.93204 13.1762 7.76471 12.75 7.76471ZM10.0714 9.35294C10.0714 8.6509 10.3536 7.97761 10.856 7.48119C11.3583 6.98477 12.0396 6.70588 12.75 6.70588C13.4604 6.70588 14.1417 6.98477 14.644 7.48119C15.1464 7.97761 15.4286 8.6509 15.4286 9.35294C15.4286 10.055 15.1464 10.7283 14.644 11.2247C14.1417 11.7211 13.4604 12 12.75 12C12.0396 12 11.3583 11.7211 10.856 11.2247C10.3536 10.7283 10.0714 10.055 10.0714 9.35294ZM17.4857 15.3226C17.2374 15.6201 16.982 15.9117 16.7196 16.1972C16.9925 16.2734 17.2468 16.3564 17.4825 16.446C18.0761 16.6715 18.5207 16.9278 18.8068 17.1851C19.0929 17.4424 19.1786 17.6584 19.1786 17.8235C19.1786 17.9887 19.0929 18.2047 18.8068 18.462C18.5207 18.7193 18.0761 18.9755 17.4825 19.2011C16.2975 19.6521 14.625 19.9422 12.75 19.9422C10.875 19.9422 9.2025 19.6521 8.0175 19.2011C7.42393 18.9755 6.97929 18.7193 6.69321 18.462C6.40714 18.2047 6.32143 17.9887 6.32143 17.8235C6.32143 17.6584 6.40714 17.4424 6.69321 17.1851C6.97929 16.9278 7.42393 16.6715 8.0175 16.446C8.26771 16.3513 8.52228 16.2683 8.78036 16.1972C8.51771 15.912 8.26228 15.6203 8.01429 15.3226C7.8862 15.3651 7.75902 15.4103 7.63286 15.4581C6.9675 15.7112 6.39107 16.0256 5.97214 16.4015C5.55429 16.7774 5.25 17.2581 5.25 17.8235C5.25 18.39 5.55429 18.8696 5.97214 19.2455C6.39 19.6214 6.9675 19.9359 7.63286 20.19C8.96893 20.6982 10.7786 21 12.75 21C14.7214 21 16.5311 20.6972 17.8671 20.19C18.5325 19.9359 19.1089 19.6214 19.5279 19.2455C19.9457 18.8696 20.25 18.39 20.25 17.8235C20.25 17.2571 19.9457 16.7774 19.5279 16.4015C19.11 16.0256 18.5325 15.7112 17.8671 15.4581C17.741 15.4103 17.6138 15.3651 17.4857 15.3226Z" fill="#888888" stroke="#888888" stroke-width="0.3"/>
</svg>
