<svg width="32" height="32" viewBox="0 0 32 32" fill="none" xmlns="http://www.w3.org/2000/svg">
<g id="basil:bag-solid">
<g id="Group 110">
<path id="Vector" d="M27.9304 16.3492C27.9278 16.3069 27.915 16.2658 27.893 16.2296C27.871 16.1933 27.8406 16.163 27.8043 16.1411C27.768 16.1192 27.727 16.1065 27.6846 16.104C27.6423 16.1015 27.6001 16.1093 27.5614 16.1267C20.2724 19.3545 11.7286 19.3545 4.43954 16.1267C4.40092 16.1093 4.35864 16.1015 4.31633 16.104C4.27402 16.1065 4.23296 16.1192 4.19666 16.1411C4.16036 16.163 4.12993 16.1933 4.10796 16.2296C4.086 16.2658 4.07317 16.3069 4.07057 16.3492C3.93805 18.8541 4.07271 21.366 4.47225 23.8423C4.5942 24.5966 4.96562 25.2882 5.52707 25.8065C6.08852 26.3248 6.80758 26.6398 7.56921 26.7012L10.0185 26.8974C14 27.2193 17.9997 27.2193 21.9825 26.8974L24.4318 26.7012C25.1934 26.6398 25.9124 26.3248 26.4739 25.8065C27.0354 25.2882 27.4068 24.5966 27.5287 23.8423C27.9291 21.3629 28.0652 18.8508 27.9304 16.3505" fill="#175DA8"/>
<path id="Subtract" fill-rule="evenodd" clip-rule="evenodd" d="M9.78572 9.55924V7.70133C9.78591 7.15314 9.98275 6.62321 10.3405 6.20785C10.6982 5.79248 11.1931 5.51925 11.7352 5.43781L13.3315 5.19837C15.101 4.93388 16.9001 4.93388 18.6697 5.19837L20.2659 5.43781C20.8083 5.51929 21.3033 5.79271 21.6611 6.20834C22.0189 6.62398 22.2156 7.15422 22.2154 7.70263V9.56055L24.4319 9.7398C25.1933 9.80108 25.9122 10.1159 26.4736 10.6339C27.0351 11.1519 27.4066 11.8433 27.5288 12.5973C27.583 12.9346 27.6323 13.2726 27.6767 13.6113C27.687 13.6931 27.6713 13.776 27.6318 13.8483C27.5924 13.9206 27.5312 13.9787 27.4569 14.0143L27.3561 14.0614C20.2542 17.424 11.7483 17.424 4.64505 14.0614L4.54431 14.0143C4.46977 13.9789 4.40828 13.9209 4.36859 13.8486C4.32889 13.7762 4.31301 13.6932 4.32319 13.6113C4.36855 13.2729 4.41827 12.9349 4.47235 12.5973C4.59457 11.8433 4.96609 11.1519 5.52753 10.6339C6.08896 10.1159 6.80787 9.80108 7.56931 9.7398L9.78572 9.55924ZM13.6232 7.13872C15.1994 6.9033 16.8018 6.9033 18.3779 7.13872L19.9742 7.37815C20.0516 7.38974 20.1223 7.42873 20.1735 7.48803C20.2246 7.54734 20.2528 7.62302 20.2529 7.70133V9.42186C17.4203 9.26009 14.5809 9.26009 11.7483 9.42186V7.70133C11.7484 7.62302 11.7766 7.54734 11.8277 7.48803C11.8788 7.42873 11.9496 7.38974 12.027 7.37815L13.6232 7.13872ZM15.9993 15.0814C16.6753 15.0814 17.2233 14.5334 17.2233 13.8574C17.2233 13.1814 16.6753 12.6334 15.9993 12.6334C15.3233 12.6334 14.7753 13.1814 14.7753 13.8574C14.7753 14.5334 15.3233 15.0814 15.9993 15.0814Z" fill="#175DA8"/>
</g>
</g>
</svg>
