<svg width="40" height="40" viewBox="0 0 40 40" fill="none" xmlns="http://www.w3.org/2000/svg">
<g id="bell">
<path id="Vector" d="M27.9744 30.0552L27.676 31.1575L7.62823 25.8411L7.92666 24.7388L10.751 23.1249L12.5416 16.5112C13.4668 13.0942 16.5424 10.6845 20.1129 10.5917L20.1995 10.272C20.3578 9.68736 20.7443 9.18886 21.274 8.8862C21.8036 8.58355 22.4331 8.50153 23.0239 8.6582C23.6146 8.81486 24.1183 9.19738 24.4241 9.72159C24.73 10.2458 24.8128 10.8688 24.6545 11.4535L24.568 11.7731C27.6132 13.6203 29.0595 17.2291 28.1343 20.6462L26.3437 27.2599L27.9744 30.0552ZM19.5812 30.1922C19.4229 30.7769 19.0364 31.2754 18.5067 31.5781C17.977 31.8807 17.3476 31.9628 16.7568 31.8061C16.166 31.6494 15.6623 31.2669 15.3565 30.7427C15.0507 30.2185 14.9678 29.5955 15.1261 29.0108" fill="#175DA8"/>
</g>
</svg>
