<svg width="24" height="24" viewBox="0 0 24 24" fill="none" xmlns="http://www.w3.org/2000/svg">
<g id="Help">
<path id="Vector" d="M12 21C11.7167 21 11.479 20.904 11.287 20.712C11.095 20.52 10.9993 20.2827 11 20C11 19.7167 11.096 19.479 11.288 19.287C11.48 19.095 11.7173 18.9993 12 19H19V11.9C19 10.9333 18.8167 10.025 18.45 9.175C18.0833 8.325 17.5833 7.58333 16.95 6.95C16.3167 6.31667 15.575 5.81667 14.725 5.45C13.875 5.08333 12.9667 4.9 12 4.9C11.0333 4.9 10.125 5.08333 9.275 5.45C8.425 5.81667 7.68333 6.31667 7.05 6.95C6.41667 7.58333 5.91667 8.325 5.55 9.175C5.18333 10.025 5 10.9333 5 11.9V17C5 17.2833 4.90433 17.521 4.713 17.713C4.52167 17.905 4.284 18.0007 4 18C3.45 18 2.979 17.804 2.587 17.412C2.195 17.02 1.99934 16.5493 2 16V14C2 13.6167 2.09167 13.2793 2.275 12.988C2.45834 12.6967 2.7 12.459 3 12.275L3.075 10.95C3.225 9.73334 3.571 8.63334 4.113 7.65C4.655 6.66667 5.33 5.83334 6.138 5.15C6.946 4.46667 7.85434 3.93734 8.863 3.562C9.87167 3.18667 10.9173 2.99934 12 3C13.1 3 14.1543 3.18767 15.163 3.563C16.1717 3.93834 17.0757 4.47167 17.875 5.163C18.675 5.85434 19.346 6.68767 19.888 7.663C20.43 8.63834 20.7757 9.72567 20.925 10.925L21 12.225C21.3 12.375 21.5417 12.596 21.725 12.888C21.9083 13.18 22 13.5007 22 13.85V16.15C22 16.5167 21.9083 16.8417 21.725 17.125C21.5417 17.4083 21.3 17.625 21 17.775V19C21 19.55 20.804 20.021 20.412 20.413C20.02 20.805 19.5493 21.0007 19 21H12Z" fill="#175DA8"/>
</g>
</svg>
