<svg width="16" height="17" viewBox="0 0 16 17" fill="none" xmlns="http://www.w3.org/2000/svg">
<rect width="16" height="17" fill="#1E1E1E"/>
<path d="M-933 -591C-933 -592.105 -932.105 -593 -931 -593H8497C8498.1 -593 8499 -592.105 8499 -591V2566C8499 2567.1 8498.1 2568 8497 2568H-931C-932.104 2568 -933 2567.1 -933 2566V-591Z" fill="#888888"/>
<path d="M-931 -592H8497V-594H-931V-592ZM8498 -591V2566H8500V-591H8498ZM8497 2567H-931V2569H8497V2567ZM-932 2566V-591H-934V2566H-932ZM-931 2567C-931.552 2567 -932 2566.55 -932 2566H-934C-934 2567.66 -932.656 2569 -931 2569V2567ZM8498 2566C8498 2566.55 8497.55 2567 8497 2567V2569C8498.66 2569 8500 2567.66 8500 2566H8498ZM8497 -592C8497.55 -592 8498 -591.552 8498 -591H8500C8500 -592.657 8498.66 -594 8497 -594V-592ZM-931 -594C-932.657 -594 -934 -592.657 -934 -591H-932C-932 -591.552 -931.552 -592 -931 -592V-594Z" fill="white" fill-opacity="0.1"/>
<path d="M-753 -434C-753 -435.105 -752.105 -436 -751 -436H1640C1641.1 -436 1642 -435.105 1642 -434V2409C1642 2410.1 1641.1 2411 1640 2411H-751C-752.105 2411 -753 2410.1 -753 2409V-434Z" fill="#444444"/>
<path d="M-751 -435H1640V-437H-751V-435ZM1641 -434V2409H1643V-434H1641ZM1640 2410H-751V2412H1640V2410ZM-752 2409V-434H-754V2409H-752ZM-751 2410C-751.552 2410 -752 2409.55 -752 2409H-754C-754 2410.66 -752.657 2412 -751 2412V2410ZM1641 2409C1641 2409.55 1640.55 2410 1640 2410V2412C1641.66 2412 1643 2410.66 1643 2409H1641ZM1640 -435C1640.55 -435 1641 -434.552 1641 -434H1643C1643 -435.657 1641.66 -437 1640 -437V-435ZM-751 -437C-752.657 -437 -754 -435.657 -754 -434H-752C-752 -434.552 -751.552 -435 -751 -435V-437Z" fill="white" fill-opacity="0.1"/>
<g clip-path="url(#clip0_803_2)">
<rect width="1440" height="2637" transform="translate(-555 -367)" fill="white"/>
<g filter="url(#filter0_d_803_2)">
<rect x="-31" y="-143" width="806" height="179" rx="16" fill="white"/>
<path d="M14.2955 14.2116H12.9026V3.06871H13.3669C13.49 3.06871 13.6081 3.01979 13.6952 2.93272C13.7823 2.84565 13.8312 2.72756 13.8312 2.60442C13.8312 2.48129 13.7823 2.36319 13.6952 2.27612C13.6081 2.18905 13.49 2.14014 13.3669 2.14014H3.15262C3.02949 2.14014 2.91139 2.18905 2.82432 2.27612C2.73725 2.36319 2.68834 2.48129 2.68834 2.60442C2.68834 2.72756 2.73725 2.84565 2.82432 2.93272C2.91139 3.01979 3.02949 3.06871 3.15262 3.06871H3.61691V14.2116H2.22405C2.10092 14.2116 1.98282 14.2605 1.89575 14.3476C1.80868 14.4346 1.75977 14.5527 1.75977 14.6759C1.75977 14.799 1.80868 14.9171 1.89575 15.0042C1.98282 15.0912 2.10092 15.1401 2.22405 15.1401H14.2955C14.4186 15.1401 14.5367 15.0912 14.6238 15.0042C14.7108 14.9171 14.7598 14.799 14.7598 14.6759C14.7598 14.5527 14.7108 14.4346 14.6238 14.3476C14.5367 14.2605 14.4186 14.2116 14.2955 14.2116ZM5.93834 4.46157H7.33119C7.45433 4.46157 7.57242 4.51048 7.65949 4.59755C7.74656 4.68462 7.79548 4.80271 7.79548 4.92585C7.79548 5.04899 7.74656 5.16708 7.65949 5.25415C7.57242 5.34122 7.45433 5.39014 7.33119 5.39014H5.93834C5.8152 5.39014 5.69711 5.34122 5.61004 5.25415C5.52297 5.16708 5.47405 5.04899 5.47405 4.92585C5.47405 4.80271 5.52297 4.68462 5.61004 4.59755C5.69711 4.51048 5.8152 4.46157 5.93834 4.46157ZM5.93834 6.78299H7.33119C7.45433 6.78299 7.57242 6.83191 7.65949 6.91898C7.74656 7.00605 7.79548 7.12414 7.79548 7.24728C7.79548 7.37042 7.74656 7.48851 7.65949 7.57558C7.57242 7.66265 7.45433 7.71157 7.33119 7.71157H5.93834C5.8152 7.71157 5.69711 7.66265 5.61004 7.57558C5.52297 7.48851 5.47405 7.37042 5.47405 7.24728C5.47405 7.12414 5.52297 7.00605 5.61004 6.91898C5.69711 6.83191 5.8152 6.78299 5.93834 6.78299ZM5.47405 9.56871C5.47405 9.44557 5.52297 9.32748 5.61004 9.24041C5.69711 9.15334 5.8152 9.10442 5.93834 9.10442H7.33119C7.45433 9.10442 7.57242 9.15334 7.65949 9.24041C7.74656 9.32748 7.79548 9.44557 7.79548 9.56871C7.79548 9.69184 7.74656 9.80994 7.65949 9.89701C7.57242 9.98408 7.45433 10.033 7.33119 10.033H5.93834C5.8152 10.033 5.69711 9.98408 5.61004 9.89701C5.52297 9.80994 5.47405 9.69184 5.47405 9.56871ZM9.65262 14.2116H6.86691V11.8901H9.65262V14.2116ZM10.5812 10.033H9.18834C9.0652 10.033 8.94711 9.98408 8.86004 9.89701C8.77297 9.80994 8.72405 9.69184 8.72405 9.56871C8.72405 9.44557 8.77297 9.32748 8.86004 9.24041C8.94711 9.15334 9.0652 9.10442 9.18834 9.10442H10.5812C10.7043 9.10442 10.8224 9.15334 10.9095 9.24041C10.9966 9.32748 11.0455 9.44557 11.0455 9.56871C11.0455 9.69184 10.9966 9.80994 10.9095 9.89701C10.8224 9.98408 10.7043 10.033 10.5812 10.033ZM10.5812 7.71157H9.18834C9.0652 7.71157 8.94711 7.66265 8.86004 7.57558C8.77297 7.48851 8.72405 7.37042 8.72405 7.24728C8.72405 7.12414 8.77297 7.00605 8.86004 6.91898C8.94711 6.83191 9.0652 6.78299 9.18834 6.78299H10.5812C10.7043 6.78299 10.8224 6.83191 10.9095 6.91898C10.9966 7.00605 11.0455 7.12414 11.0455 7.24728C11.0455 7.37042 10.9966 7.48851 10.9095 7.57558C10.8224 7.66265 10.7043 7.71157 10.5812 7.71157ZM10.5812 5.39014H9.18834C9.0652 5.39014 8.94711 5.34122 8.86004 5.25415C8.77297 5.16708 8.72405 5.04899 8.72405 4.92585C8.72405 4.80271 8.77297 4.68462 8.86004 4.59755C8.94711 4.51048 9.0652 4.46157 9.18834 4.46157H10.5812C10.7043 4.46157 10.8224 4.51048 10.9095 4.59755C10.9966 4.68462 11.0455 4.80271 11.0455 4.92585C11.0455 5.04899 10.9966 5.16708 10.9095 5.25415C10.8224 5.34122 10.7043 5.39014 10.5812 5.39014Z" fill="#175DA8"/>
</g>
</g>
<defs>
<filter id="filter0_d_803_2" x="-39" y="-150" width="822" height="195" filterUnits="userSpaceOnUse" color-interpolation-filters="sRGB">
<feFlood flood-opacity="0" result="BackgroundImageFix"/>
<feColorMatrix in="SourceAlpha" type="matrix" values="0 0 0 0 0 0 0 0 0 0 0 0 0 0 0 0 0 0 127 0" result="hardAlpha"/>
<feOffset dy="1"/>
<feGaussianBlur stdDeviation="4"/>
<feColorMatrix type="matrix" values="0 0 0 0 0 0 0 0 0 0 0 0 0 0 0 0 0 0 0.15 0"/>
<feBlend mode="normal" in2="BackgroundImageFix" result="effect1_dropShadow_803_2"/>
<feBlend mode="normal" in="SourceGraphic" in2="effect1_dropShadow_803_2" result="shape"/>
</filter>
<clipPath id="clip0_803_2">
<rect width="1440" height="2637" fill="white" transform="translate(-555 -367)"/>
</clipPath>
</defs>
</svg>
