<svg width="139" height="139" viewBox="0 0 139 139" fill="none" xmlns="http://www.w3.org/2000/svg">
<g id="emojione:party-popper">
<path id="Vector" d="M4.34375 132.484L23.0219 125.969L8.90469 119.453L4.34375 132.484Z" fill="#F7B600"/>
<path id="Vector_2" d="M58.4252 79.0545L32.1455 52.5576L27.8018 64.7201L58.4252 79.0545Z" fill="#FFDD7D"/>
<path id="Vector_3" d="M27.8035 64.7236L23.0254 78.4064L81.2316 105.555L84.0551 104.686L58.427 79.058L27.8035 64.7236Z" fill="#F7B600"/>
<path id="Vector_4" d="M18.4609 92.0866L61.8984 112.285L81.2281 105.552L23.0219 78.4038L18.4609 92.0866Z" fill="#FFDD7D"/>
<path id="Vector_5" d="M13.6846 105.771L42.3533 119.237L61.9002 112.287L18.4627 92.0884L13.6846 105.771Z" fill="#F7B600"/>
<path id="Vector_6" d="M13.6863 105.769L8.9082 119.451L23.0254 125.967L42.3551 119.234L13.6863 105.769Z" fill="#FFDD7D"/>
<path id="Vector_7" d="M69.2789 67.762C83.8305 82.0964 91.4321 98.1683 86.2196 103.381C80.7899 108.593 64.718 101.209 49.9493 86.6573C35.3977 72.323 27.7961 56.2511 33.0086 51.0386C38.4383 45.8261 54.5102 53.4277 69.2789 67.762Z" fill="#493816"/>
<path id="Vector_8" d="M51.0415 31.492C47.5665 26.4967 51.2587 24.3248 56.0368 25.1936C51.4759 19.7639 54.2993 15.8545 61.4665 17.3748C63.6384 17.8092 60.5977 21.5014 58.6431 21.5014C64.5071 25.8452 61.2493 30.6233 54.9509 29.5373C60.5977 37.1389 51.0415 35.1842 46.6977 35.6186C45.6118 41.2655 52.1274 47.7811 49.9556 47.7811C45.1774 47.7811 37.3587 29.7545 51.0415 31.492Z" fill="#42ADE2"/>
<path id="Vector_9" d="M96.6449 41.9162C93.3871 43.4365 84.2653 29.1022 95.559 28.885C89.0434 23.0209 89.9121 20.1975 98.5996 19.9803C88.609 9.98967 104.464 6.51467 105.984 11.7272C106.418 13.2475 101.206 10.424 99.4684 13.2475C97.5137 16.5053 111.631 24.9756 97.0793 24.324C102.509 29.7537 102.726 32.36 94.2559 33.2287C95.3418 34.9662 98.8168 41.0475 96.6449 41.9162Z" fill="#FF8736"/>
<path id="Vector_10" d="M100.339 75.7976L103.597 72.9741C103.597 72.9741 106.637 77.5351 108.809 79.2726C110.547 71.4538 110.112 66.8929 119.017 72.1054C114.022 58.6397 122.275 63.6351 130.311 67.3272C129.876 63.8522 130.311 64.2866 133.786 63.2007C136.826 74.7116 128.573 71.2366 122.058 67.5444C125.967 77.9694 121.84 77.3179 113.587 73.8429C113.37 78.1866 112.067 83.1819 109.461 83.6163C106.42 84.4851 100.339 75.7976 100.339 75.7976Z" fill="#ED4C5C"/>
<path id="Vector_11" d="M76.0139 43.6547C72.1045 48.8672 65.8061 51.6906 61.2451 56.2516C56.467 61.0297 53.6436 74.0609 53.6436 74.0609C53.6436 74.0609 55.3811 60.3781 59.942 55.1656C64.0686 50.3875 70.1498 46.9125 73.4076 41.4828C79.0545 31.4922 73.842 18.4609 66.4576 10.8594C67.9779 9.55625 70.1498 7.81875 71.2357 6.51562C78.4029 15.4203 84.4842 32.5781 76.0139 43.6547Z" fill="#C28FEF"/>
<path id="Vector_12" d="M82.7519 54.7311C77.1051 58.8577 72.9785 64.939 69.0691 70.5858C65.5941 75.5811 54.5176 81.8796 54.5176 81.8796C54.5176 81.8796 64.9426 74.7124 68.2004 69.4999C72.1098 62.9843 76.0191 56.2515 82.1004 51.4733C94.2629 42.1343 111.855 43.003 125.538 47.9983C124.669 49.953 123.149 54.0796 123.149 54.0796C123.149 54.0796 94.2629 46.2608 82.7519 54.7311Z" fill="#FF8736"/>
<path id="Vector_13" d="M106.858 53.6457C103.166 58.4238 101.428 64.2879 98.605 69.7176C95.9988 74.7129 92.5238 79.491 87.5285 82.0973C81.8816 84.9207 69.5019 84.0519 69.5019 84.0519C69.5019 84.0519 81.8816 83.8348 87.0941 80.3598C92.3066 76.8848 95.13 70.8035 97.0847 65.1566C100.994 54.2973 105.772 42.5691 117.066 37.791C117.718 39.7457 119.238 43.8723 119.238 43.8723C119.238 43.8723 112.939 45.6098 106.858 53.6457ZM6.97363 31.1125L13.1157 24.9683L19.2599 31.1103L13.1179 37.2567L6.97363 31.1125Z" fill="#42ADE2"/>
<path id="Vector_14" d="M15.5762 50.3813L21.7161 44.2393L27.8581 50.3813L21.7161 56.5234L15.5762 50.3813Z" fill="#FF8736"/>
<path id="Vector_15" d="M31.1865 21.3325L37.3286 15.1904L43.4706 21.3325L37.3286 27.4746L31.1865 21.3325Z" fill="#ED4C5C"/>
<path id="Vector_16" d="M98.1758 94.9025L104.318 88.7583L110.46 94.9025L104.318 101.045L98.1758 94.9025Z" fill="#C28FEF"/>
<path id="Vector_17" d="M84.4912 115.957L90.6333 109.815L96.7775 115.96L90.6333 122.102L84.4912 115.957Z" fill="#ED4C5C"/>
<path id="Vector_18" d="M111.368 120.77L117.51 114.626L123.652 120.77L117.51 126.912L111.368 120.77Z" fill="#FF8736"/>
<path id="Vector_19" d="M117.45 92.8067L123.592 86.6647L129.734 92.8067L123.592 98.951L117.45 92.8067ZM107.194 27.8503L113.336 21.7061L119.481 27.8503L113.339 33.9924L107.194 27.8503Z" fill="#42ADE2"/>
<path id="Vector_20" d="M41.3594 64.7065L47.5036 58.5645L53.6457 64.7065L47.5036 70.8507L41.3594 64.7065Z" fill="#ED4C5C"/>
</g>
</svg>
