<svg width="24" height="24" viewBox="0 0 24 24" fill="none" xmlns="http://www.w3.org/2000/svg">
<g id="Profile">
<path id="Vector" fill-rule="evenodd" clip-rule="evenodd" d="M9.52356 11.8114C6.09524 12.8698 3.60156 16.0658 3.60156 19.8396C3.60156 19.9881 3.66056 20.1306 3.76558 20.2356C3.8706 20.3406 4.01304 20.3996 4.16156 20.3996C4.31008 20.3996 4.45252 20.3406 4.55754 20.2356C4.66256 20.1306 4.72156 19.9881 4.72156 19.8396C4.72156 15.8216 7.98356 12.5596 12.0016 12.5596C16.0196 12.5596 19.2816 15.8216 19.2816 19.8396C19.2816 19.9881 19.3406 20.1306 19.4456 20.2356C19.5506 20.3406 19.693 20.3996 19.8416 20.3996C19.9901 20.3996 20.1325 20.3406 20.2375 20.2356C20.3426 20.1306 20.4016 19.9881 20.4016 19.8396C20.4016 16.0658 17.9079 12.8698 14.4796 11.8114C15.0953 11.403 15.6004 10.8484 15.9498 10.1972C16.2991 9.54607 16.4818 8.81856 16.4816 8.07961C16.4816 5.60721 14.474 3.59961 12.0016 3.59961C9.52916 3.59961 7.52156 5.60721 7.52156 8.07961C7.52134 8.81856 7.70404 9.54607 8.05337 10.1972C8.40269 10.8484 8.90778 11.403 9.52356 11.8114ZM12.0016 4.71961C13.8557 4.71961 15.3616 6.22545 15.3616 8.07961C15.3616 9.93377 13.8557 11.4396 12.0016 11.4396C10.1474 11.4396 8.64156 9.93377 8.64156 8.07961C8.64156 6.22545 10.1474 4.71961 12.0016 4.71961Z" fill="#175DA8" stroke="#175DA8" stroke-width="0.6"/>
</g>
</svg>
