<svg width="24" height="24" viewBox="0 0 24 24" fill="none" xmlns="http://www.w3.org/2000/svg">
<g id="streamline:interface-help-question-circle-circle-faq-frame-help-info-mark-more-query-question" clip-path="url(#clip0_3915_3271)">
<path id="Vector" d="M12.0005 22.5146C17.8073 22.5146 22.5146 17.8073 22.5146 12.0005C22.5146 6.19367 17.8073 1.48633 12.0005 1.48633C6.19367 1.48633 1.48633 6.19367 1.48633 12.0005C1.48633 17.8073 6.19367 22.5146 12.0005 22.5146Z" stroke="#175DA8" stroke-width="1.57749" stroke-linecap="round" stroke-linejoin="round"/>
<path id="Vector_2" d="M9.57422 9.5738C9.57422 9.09392 9.71652 8.62481 9.98313 8.2258C10.2497 7.82679 10.6287 7.5158 11.072 7.33216C11.5154 7.14851 12.0033 7.10046 12.4739 7.19408C12.9446 7.2877 13.3769 7.51879 13.7162 7.85812C14.0556 8.19745 14.2867 8.62978 14.3803 9.10045C14.4739 9.57111 14.4258 10.059 14.2422 10.5023C14.0586 10.9457 13.7476 11.3246 13.3486 11.5912C12.9496 11.8578 12.4804 12.0001 12.0006 12.0001V13.6177" stroke="#175DA8" stroke-width="1.57749" stroke-linecap="round" stroke-linejoin="round"/>
<path id="Vector_3" d="M11.9983 16.0439C11.7584 16.0439 11.5238 16.1151 11.3243 16.2484C11.1248 16.3817 10.9693 16.5712 10.8775 16.7929C10.7857 17.0145 10.7617 17.2585 10.8085 17.4938C10.8553 17.7291 10.9708 17.9453 11.1405 18.115C11.3102 18.2846 11.5263 18.4002 11.7616 18.447C11.997 18.4938 12.2409 18.4698 12.4626 18.3779C12.6843 18.2861 12.8737 18.1306 13.007 17.9311C13.1403 17.7316 13.2115 17.4971 13.2115 17.2571C13.2073 16.9367 13.0781 16.6305 12.8515 16.4039C12.6249 16.1773 12.3188 16.0481 11.9983 16.0439Z" fill="#175DA8"/>
</g>
<defs>
<clipPath id="clip0_3915_3271">
<rect width="24" height="24" fill="white"/>
</clipPath>
</defs>
</svg>
