<svg width="32" height="32" viewBox="0 0 32 32" fill="none" xmlns="http://www.w3.org/2000/svg">
<path d="M8.42079 9.05312C8.42079 6.26154 10.6818 4.00049 13.4734 4.00049C16.265 4.00049 18.5261 6.26154 18.5261 9.05312C18.5261 11.8447 16.265 14.1058 13.4734 14.1058C10.6818 14.1058 8.42079 11.8447 8.42079 9.05312ZM15.9997 21.9373C15.9997 20.7247 16.6313 19.5879 17.5155 18.83V17.2636C17.5155 17.2005 17.5408 17.1247 17.5408 17.0615C16.2903 16.7836 14.9261 16.6321 13.4734 16.6321C7.89027 16.6321 3.36816 18.8931 3.36816 21.6847V24.211H15.9997V21.9373Z" fill="#175DA8"/>
<path d="M26.2144 19.4231H21.1594V17.1594C21.1594 16.6539 21.3489 16.2116 21.7281 15.8324C22.4863 15.0742 23.6869 15.0742 24.3819 15.8324C24.6347 16.0852 24.7611 16.4011 24.8874 16.7171C24.9506 17.033 25.3298 17.2226 25.6457 17.1594C25.9616 17.0962 26.2144 16.7171 26.088 16.4011C25.9616 15.8324 25.6457 15.3269 25.2666 14.9478C24.6979 14.3159 23.8764 14 23.055 14C21.2857 14 19.8956 15.3901 19.8956 17.1594V19.4231C18.8214 19.4231 18 20.2446 18 21.3187V25.7419C18 26.8161 18.8214 27.6375 19.8956 27.6375H26.2144C27.2886 27.6375 28.11 26.8161 28.11 25.7419V21.3187C28.11 20.2446 27.2886 19.4231 26.2144 19.4231ZM23.6869 24.4781C23.6869 24.8572 23.4341 25.11 23.055 25.11C22.6759 25.11 22.4231 24.8572 22.4231 24.4781V22.5825C22.4231 22.2034 22.6759 21.9506 23.055 21.9506C23.4341 21.9506 23.6869 22.2034 23.6869 22.5825V24.4781Z" fill="#175DA8"/>
</svg>
