<svg width="16" height="16" viewBox="0 0 16 16" fill="none" xmlns="http://www.w3.org/2000/svg">
<path d="M13.9643 8.17434C13.963 8.15319 13.9566 8.13267 13.9457 8.11455C13.9347 8.09642 13.9194 8.08124 13.9013 8.0703C13.8832 8.05936 13.8626 8.05299 13.8415 8.05174C13.8203 8.05049 13.7992 8.0544 13.7799 8.06313C10.1353 9.67703 5.86344 9.67703 2.21891 8.06313C2.19961 8.0544 2.17846 8.05049 2.15731 8.05174C2.13616 8.05299 2.11562 8.05936 2.09748 8.0703C2.07933 8.08124 2.06411 8.09642 2.05313 8.11455C2.04214 8.13267 2.03573 8.15319 2.03443 8.17434C1.96817 9.42679 2.0355 10.6827 2.23527 11.9209C2.29625 12.2981 2.48195 12.6439 2.76268 12.903C3.04341 13.1622 3.40293 13.3197 3.78375 13.3503L5.00841 13.4485C6.99912 13.6094 8.999 13.6094 10.9904 13.4485L12.215 13.3503C12.5958 13.3197 12.9554 13.1622 13.2361 12.903C13.5168 12.6439 13.7025 12.2981 13.7635 11.9209C13.9637 10.6812 14.0317 9.42516 13.9643 8.17499" fill="#888888"/>
<path d="M6.66425 2.59866C7.54887 2.46649 8.44858 2.46644 9.3332 2.59866L10.131 2.71878C10.4022 2.75952 10.6494 2.8967 10.8283 3.10452C11.0071 3.31232 11.1057 3.57743 11.1057 3.85159V4.7803L12.2141 4.87014C12.5946 4.90079 12.9539 5.05766 13.2346 5.31643C13.5153 5.57544 13.7018 5.92182 13.7629 6.29885C13.79 6.46738 13.814 6.63645 13.8361 6.80569C13.8412 6.84652 13.8334 6.88772 13.8137 6.92385C13.794 6.95992 13.7638 6.98905 13.7268 7.00686L13.676 7.0303C10.125 8.71158 5.87213 8.71158 2.3205 7.0303L2.26972 7.00686C2.23266 6.98914 2.20257 6.95987 2.18281 6.92385C2.16301 6.88774 2.15432 6.84656 2.15937 6.80569C2.18204 6.63654 2.20754 6.46757 2.23456 6.29885C2.29567 5.92182 2.48119 5.57544 2.76191 5.31643C3.04251 5.05764 3.40193 4.90083 3.78242 4.87014L4.89081 4.77932V3.85061C4.8909 3.57652 4.98929 3.31122 5.16816 3.10354C5.34697 2.89598 5.59451 2.75953 5.86542 2.71878L6.66425 2.59866ZM7.99628 6.31643C7.65843 6.3166 7.38495 6.59084 7.38495 6.92874C7.38501 7.26658 7.65846 7.54088 7.99628 7.54104C8.33424 7.54104 8.60853 7.26668 8.60859 6.92874C8.60859 6.59074 8.33428 6.31643 7.99628 6.31643ZM9.18671 3.56936C8.39875 3.4517 7.59772 3.45168 6.80976 3.56936L6.01191 3.68948C5.97321 3.69527 5.93786 3.71455 5.9123 3.74417C5.88673 3.77382 5.8723 3.81146 5.87226 3.85061V4.71096C7.28843 4.63009 8.70804 4.6301 10.1242 4.71096V3.85061C10.1242 3.8116 10.1105 3.77377 10.0851 3.74417C10.0597 3.71464 10.0241 3.69536 9.98554 3.68948L9.18671 3.56936Z" fill="#888888"/>
</svg>
