<svg width="32" height="32" viewBox="0 0 32 32" fill="none" xmlns="http://www.w3.org/2000/svg">
<path fill-rule="evenodd" clip-rule="evenodd" d="M10.9468 9.19637V10.707L9.14469 10.8538C8.52558 10.9036 7.94106 11.1596 7.48458 11.5808C7.0281 12.002 6.72602 12.5641 6.62664 13.1772C6.58267 13.4516 6.54225 13.7264 6.50537 14.0016C6.49709 14.0682 6.51001 14.1357 6.54228 14.1945C6.57456 14.2533 6.62455 14.3005 6.68515 14.3293L6.76707 14.3676C12.5425 17.1016 19.4584 17.1016 25.2328 14.3676L25.3147 14.3293C25.3751 14.3003 25.4248 14.2531 25.4569 14.1943C25.489 14.1355 25.5018 14.0681 25.4934 14.0016C25.4573 13.7262 25.4172 13.4514 25.3732 13.1772C25.2738 12.5641 24.9717 12.002 24.5152 11.5808C24.0588 11.1596 23.4742 10.9036 22.8551 10.8538L21.053 10.708V9.19743C21.0531 8.75154 20.8932 8.32041 20.6023 7.98247C20.3114 7.64453 19.9089 7.42222 19.4679 7.35597L18.1701 7.16129C16.7313 6.94624 15.2685 6.94624 13.8297 7.16129L12.5319 7.35597C12.0911 7.42219 11.6887 7.64435 11.3979 7.98207C11.107 8.31979 10.9469 8.75065 10.9468 9.19637ZM17.9329 8.73893C16.6513 8.54752 15.3485 8.54752 14.067 8.73893L12.7691 8.93361C12.7061 8.94303 12.6486 8.97473 12.6071 9.02295C12.5655 9.07116 12.5426 9.1327 12.5425 9.19637V10.5953C14.8456 10.4638 17.1543 10.4638 19.4573 10.5953V9.19637C19.4572 9.1327 19.4343 9.07116 19.3928 9.02295C19.3512 8.97473 19.2937 8.94303 19.2307 8.93361L17.9329 8.73893Z" fill="#175DA8"/>
<path d="M25.7006 16.2271C25.6985 16.1927 25.688 16.1593 25.6702 16.1298C25.6523 16.1004 25.6276 16.0757 25.5981 16.0579C25.5685 16.0401 25.5352 16.0297 25.5008 16.0277C25.4664 16.0257 25.432 16.032 25.4006 16.0462C19.4741 18.6707 12.5274 18.6707 6.60085 16.0462C6.56945 16.032 6.53507 16.0257 6.50067 16.0277C6.46627 16.0297 6.43288 16.0401 6.40337 16.0579C6.37386 16.0757 6.34911 16.1004 6.33125 16.1298C6.3134 16.1593 6.30296 16.1927 6.30085 16.2271C6.19311 18.2637 6.30259 20.3061 6.62744 22.3195C6.7266 22.9328 7.02859 23.4952 7.48509 23.9166C7.94159 24.338 8.52623 24.5941 9.14549 24.644L11.137 24.8035C14.3741 25.0652 17.6262 25.0652 20.8645 24.8035L22.8559 24.644C23.4752 24.5941 24.0598 24.338 24.5163 23.9166C24.9728 23.4952 25.2748 22.9328 25.374 22.3195C25.6995 20.3036 25.8101 18.2611 25.7006 16.2281" fill="#175DA8"/>
</svg>
