<svg width="40" height="40" viewBox="0 0 40 40" fill="none" xmlns="http://www.w3.org/2000/svg">
<mask id="path-1-inside-1_5546_2294" fill="white">
<path d="M27.5117 29.1017L27.2503 30.1272L8.60129 25.4775L8.86261 24.452L11.4574 22.9177L13.0253 16.765C13.8355 13.586 16.6521 11.3109 19.9591 11.1757L20.0349 10.8783C20.1735 10.3344 20.5248 9.86715 21.0114 9.57941C21.498 9.29168 22.0801 9.20701 22.6297 9.34403C23.1793 9.48105 23.6512 9.82854 23.9418 10.31C24.2324 10.7916 24.3178 11.3677 24.1792 11.9116L24.1034 12.209C26.9505 13.8786 28.3403 17.2025 27.5302 20.3814L25.9622 26.5342L27.5117 29.1017ZM19.7366 29.3444C19.598 29.8884 19.2467 30.3556 18.7601 30.6433C18.2735 30.9311 17.6914 31.0157 17.1418 30.8787C16.5923 30.7417 16.1203 30.3942 15.8297 29.9127C15.5391 29.4312 15.4537 28.8551 15.5924 28.3112"/>
</mask>
<path d="M27.5117 29.1017L29.6463 29.634L29.8728 28.7453L29.4002 27.9622L27.5117 29.1017ZM27.2503 30.1272L26.707 32.2591L28.8417 32.7913L29.385 30.6594L27.2503 30.1272ZM8.60129 25.4775L6.46664 24.9452L5.92335 27.0771L8.05801 27.6093L8.60129 25.4775ZM8.86261 24.452L7.74585 22.5632L6.95443 23.0311L6.72796 23.9198L8.86261 24.452ZM11.4574 22.9177L12.5741 24.8066L13.3656 24.3386L13.592 23.4499L11.4574 22.9177ZM19.9591 11.1757L20.0393 13.3712L21.6871 13.3038L22.0938 11.7079L19.9591 11.1757ZM22.6297 9.34403L23.173 7.21216L22.6297 9.34403ZM24.1034 12.209L21.9687 11.6767L21.562 13.2726L22.9807 14.1045L24.1034 12.209ZM25.9622 26.5342L23.8275 26.0019L23.6011 26.8906L24.0737 27.6737L25.9622 26.5342ZM27.5117 29.1017L25.377 28.5695L25.1157 29.595L27.2503 30.1272L29.385 30.6594L29.6463 29.634L27.5117 29.1017ZM27.2503 30.1272L27.7936 27.9953L9.14457 23.3456L8.60129 25.4775L8.05801 27.6093L26.707 32.2591L27.2503 30.1272ZM8.60129 25.4775L10.7359 26.0097L10.9973 24.9842L8.86261 24.452L6.72796 23.9198L6.46664 24.9452L8.60129 25.4775ZM8.86261 24.452L9.97937 26.3409L12.5741 24.8066L11.4574 22.9177L10.3406 21.0289L7.74585 22.5632L8.86261 24.452ZM11.4574 22.9177L13.592 23.4499L15.16 17.2972L13.0253 16.765L10.8907 16.2327L9.32273 22.3855L11.4574 22.9177ZM13.0253 16.765L15.16 17.2972C15.7274 15.0708 17.7024 13.4667 20.0393 13.3712L19.9591 11.1757L19.879 8.98025C15.6017 9.15511 11.9435 12.1013 10.8907 16.2327L13.0253 16.765ZM19.9591 11.1757L22.0938 11.7079L22.1696 11.4105L20.0349 10.8783L17.9003 10.3461L17.8245 10.6435L19.9591 11.1757ZM20.0349 10.8783L22.1696 11.4105C22.1625 11.4382 22.1455 11.458 22.1282 11.4683L21.0114 9.57941L19.8946 7.69056C18.9041 8.27626 18.1846 9.23054 17.9003 10.3461L20.0349 10.8783ZM21.0114 9.57941L22.1282 11.4683C22.1117 11.478 22.0968 11.4785 22.0864 11.4759L22.6297 9.34403L23.173 7.21216C22.0634 6.93552 20.8844 7.10534 19.8946 7.69056L21.0114 9.57941ZM22.6297 9.34403L22.0864 11.4759C22.076 11.4733 22.0632 11.4659 22.0533 11.4496L23.9418 10.31L25.8303 9.17049C25.2393 8.19115 24.2825 7.48881 23.173 7.21216L22.6297 9.34403ZM23.9418 10.31L22.0533 11.4496C22.043 11.4325 22.0375 11.407 22.0445 11.3794L24.1792 11.9116L26.3138 12.4438C26.5981 11.3283 26.4218 10.1506 25.8303 9.17049L23.9418 10.31ZM24.1792 11.9116L22.0445 11.3794L21.9687 11.6767L24.1034 12.209L26.238 12.7412L26.3138 12.4438L24.1792 11.9116ZM24.1034 12.209L22.9807 14.1045C24.9925 15.2843 25.9629 17.6228 25.3955 19.8492L27.5302 20.3814L29.6648 20.9136C30.7177 16.7822 28.9084 12.4728 25.2261 10.3134L24.1034 12.209ZM27.5302 20.3814L25.3955 19.8492L23.8275 26.0019L25.9622 26.5342L28.0968 27.0664L29.6648 20.9136L27.5302 20.3814ZM25.9622 26.5342L24.0737 27.6737L25.6231 30.2413L27.5117 29.1017L29.4002 27.9622L27.8507 25.3946L25.9622 26.5342ZM19.7366 29.3444L17.6019 28.8122C17.609 28.7845 17.6261 28.7647 17.6434 28.7545L18.7601 30.6433L19.8769 32.5322C20.8674 31.9465 21.587 30.9922 21.8712 29.8767L19.7366 29.3444ZM18.7601 30.6433L17.6434 28.7545C17.6598 28.7447 17.6747 28.7443 17.6851 28.7469L17.1418 30.8787L16.5985 33.0106C17.7081 33.2872 18.8872 33.1174 19.8769 32.5322L18.7601 30.6433ZM17.1418 30.8787L17.6851 28.7469C17.6955 28.7495 17.7084 28.7568 17.7182 28.7731L15.8297 29.9127L13.9412 31.0523C14.5322 32.0316 15.489 32.7339 16.5985 33.0106L17.1418 30.8787ZM15.8297 29.9127L17.7182 28.7731C17.7285 28.7903 17.7341 28.8157 17.727 28.8434L15.5924 28.3112L13.4577 27.7789C13.1734 28.8945 13.3497 30.0721 13.9412 31.0523L15.8297 29.9127Z" fill="#175DA8" mask="url(#path-1-inside-1_5546_2294)"/>
</svg>
