<svg width="20" height="20" viewBox="0 0 20 20" fill="none" xmlns="http://www.w3.org/2000/svg">
<path d="M9.85657 1.96582L9.88293 1.99316L14.2579 6.36816L14.3234 6.43262L14.2579 6.49707L13.3741 7.38281L13.3097 7.44727L10.0929 4.23047V6.3418H8.6593V4.22949L5.50793 7.38281L5.44348 7.44727L5.37903 7.38281L4.49524 6.49707L4.42981 6.43262L4.49524 6.36816L8.87024 1.99316L8.89661 1.96582H9.85657Z" fill="white" stroke="white" stroke-width="0.183333"/>
<path d="M2.5918 17.4084H16.1582V12.592H13.3838C13.0672 13.238 12.6016 13.7976 12.0244 14.2229L11.7637 14.4016C11.0491 14.8538 10.2206 15.094 9.375 15.094C8.63505 15.094 7.90859 14.9097 7.25977 14.5608L6.98633 14.4016C6.28858 13.96 5.72929 13.3328 5.36621 12.592H2.5918V17.4084ZM10.0918 9.90845V11.342H8.6582V9.90845H10.0918ZM10.0918 7.40845V8.84204H8.6582V7.40845H10.0918ZM17.5918 18.1633L17.5645 18.1897L16.9395 18.8147L16.9131 18.842H1.83691L1.81055 18.8147L1.18555 18.1897L1.1582 18.1633V11.8372L1.18555 11.8108L1.81055 11.1858L1.83691 11.1584H6.3877L6.40234 11.2317C6.54156 11.9173 6.91346 12.534 7.45508 12.9768C7.99684 13.4196 8.6753 13.6614 9.375 13.6614C10.0747 13.6614 10.7532 13.4196 11.2949 12.9768L11.4893 12.803C11.9254 12.3789 12.2258 11.8318 12.3477 11.2317L12.3623 11.1584H16.9131L16.9395 11.1858L17.5645 11.8108L17.5918 11.8372V18.1633Z" fill="white" stroke="white" stroke-width="0.183333"/>
</svg>
