<svg width="24" height="24" viewBox="0 0 24 24" fill="none" xmlns="http://www.w3.org/2000/svg">
<path d="M12.3889 2.7998L12.4475 2.8584L16.6418 7.05176L16.7825 7.19336L16.6418 7.33496L15.7942 8.18359L15.6526 8.3252L15.511 8.18359L12.6809 5.35254V7.21875H11.0833V5.35352L8.25415 8.18359L8.11255 8.3252L7.97095 8.18359L7.12427 7.33496L6.98267 7.19336L11.3762 2.7998H12.3889Z" fill="#175DA8" stroke="#175DA8" stroke-width="0.4"/>
<path d="M5.39844 18.6013H18.1777V14.2087H15.6992C15.3415 14.91 14.8042 15.5047 14.1377 15.9265C13.4349 16.3713 12.6198 16.6071 11.7881 16.6072C10.9563 16.6072 10.1413 16.3713 9.43848 15.9265C8.77191 15.5047 8.23469 14.91 7.87695 14.2087H5.39844V18.6013ZM12.5869 11.4128V13.0105H10.9893V11.4128H12.5869ZM12.5869 8.46558V10.0642H10.9893V8.46558H12.5869ZM19.7754 19.4832L19.7168 19.5417L19.1182 20.1414L19.0596 20.2H4.5166L3.7998 19.4832V13.3269L3.8584 13.2683L4.45801 12.6697L4.5166 12.6111H9.01562L9.04883 12.7712C9.17715 13.4029 9.5196 13.9707 10.0186 14.3787C10.5178 14.7867 11.1433 15.0105 11.7881 15.0105C12.4328 15.0105 13.0574 14.7867 13.5566 14.3787C14.0558 13.9706 14.399 13.4031 14.5273 12.7712L14.5596 12.6111H19.0596L19.7754 13.3269V19.4832Z" fill="#175DA8" stroke="#175DA8" stroke-width="0.4"/>
</svg>
