<svg width="32" height="32" viewBox="0 0 32 32" fill="none" xmlns="http://www.w3.org/2000/svg">
<path d="M28.0005 10.6663C28.0005 12.0263 26.4192 13.2263 24.0005 13.9489C22.4885 14.4023 20.6499 14.6663 18.6672 14.6663C16.6845 14.6663 14.8459 14.4009 13.3339 13.9489C10.9165 13.2263 9.33386 12.0263 9.33386 10.6663C9.33386 8.45693 13.5125 6.66626 18.6672 6.66626C23.8219 6.66626 28.0005 8.45693 28.0005 10.6663Z" fill="#175DA8"/>
<path d="M28.0005 10.6663C28.0005 8.45693 23.8219 6.66626 18.6672 6.66626C13.5125 6.66626 9.33386 8.45693 9.33386 10.6663M28.0005 10.6663V15.9996C28.0005 17.3596 26.4192 18.5596 24.0005 19.2823C22.4885 19.7356 20.6499 19.9996 18.6672 19.9996C16.6845 19.9996 14.8459 19.7343 13.3339 19.2823C10.9165 18.5596 9.33386 17.3596 9.33386 15.9996V10.6663M28.0005 10.6663C28.0005 12.0263 26.4192 13.2263 24.0005 13.9489C22.4885 14.4023 20.6499 14.6663 18.6672 14.6663C16.6845 14.6663 14.8459 14.4009 13.3339 13.9489C10.9165 13.2263 9.33386 12.0263 9.33386 10.6663" stroke="#175DA8" stroke-width="2.66667" stroke-linecap="round" stroke-linejoin="round"/>
<path d="M4 15.9994V21.3328C4 22.6928 5.58267 23.8928 8 24.6154C9.512 25.0688 11.3507 25.3328 13.3333 25.3328C15.316 25.3328 17.1547 25.0674 18.6667 24.6154C21.084 23.8928 22.6667 22.6928 22.6667 21.3328V19.9994M4 15.9994C4 14.4034 6.18 13.0261 9.33333 12.3848M4 15.9994C4 17.3594 5.58267 18.5594 8 19.2821C9.512 19.7354 11.3507 19.9994 13.3333 19.9994C14.26 19.9994 15.1547 19.9421 16 19.8341" stroke="#175DA8" stroke-width="2.66667" stroke-linecap="round" stroke-linejoin="round"/>
</svg>
