<svg width="139" height="139" viewBox="0 0 139 139" fill="none" xmlns="http://www.w3.org/2000/svg">
<g id="emojione:party-popper">
<path id="Vector" d="M4.34375 132.484L23.0219 125.969L8.90469 119.453L4.34375 132.484Z" fill="#F7B600"/>
<path id="Vector_2" d="M58.4242 79.0546L32.1445 52.5577L27.8008 64.7202L58.4242 79.0546Z" fill="#FFDD7D"/>
<path id="Vector_3" d="M27.8035 64.7236L23.0254 78.4064L81.2316 105.555L84.0551 104.686L58.427 79.058L27.8035 64.7236Z" fill="#F7B600"/>
<path id="Vector_4" d="M18.4609 92.0866L61.8984 112.285L81.2281 105.552L23.0219 78.4038L18.4609 92.0866Z" fill="#FFDD7D"/>
<path id="Vector_5" d="M13.6836 105.771L42.3523 119.237L61.8992 112.287L18.4617 92.0884L13.6836 105.771Z" fill="#F7B600"/>
<path id="Vector_6" d="M13.6863 105.769L8.9082 119.451L23.0254 125.967L42.3551 119.234L13.6863 105.769Z" fill="#FFDD7D"/>
<path id="Vector_7" d="M69.2789 67.7622C83.8305 82.0965 91.4321 98.1684 86.2196 103.381C80.7899 108.593 64.718 101.209 49.9493 86.6575C35.3977 72.3231 27.7961 56.2512 33.0086 51.0387C38.4383 45.8262 54.5102 53.4278 69.2789 67.7622Z" fill="#493816"/>
<path id="Vector_8" d="M51.0415 31.4922C47.5665 26.4969 51.2587 24.325 56.0368 25.1938C51.4759 19.7641 54.2993 15.8547 61.4665 17.375C63.6384 17.8094 60.5977 21.5016 58.6431 21.5016C64.5071 25.8453 61.2493 30.6235 54.9509 29.5375C60.5977 37.1391 51.0415 35.1844 46.6977 35.6188C45.6118 41.2656 52.1274 47.7813 49.9556 47.7813C45.1774 47.7813 37.3587 29.7547 51.0415 31.4922Z" fill="#42ADE2"/>
<path id="Vector_9" d="M96.6459 41.9165C93.3881 43.4368 84.2662 29.1024 95.56 28.8852C89.0444 23.0212 89.9131 20.1977 98.6006 19.9805C88.61 9.98992 104.465 6.51492 105.985 11.7274C106.419 13.2477 101.207 10.4243 99.4694 13.2477C97.5147 16.5055 111.632 24.9759 97.0803 24.3243C102.51 29.754 102.727 32.3602 94.2569 33.229C95.3428 34.9665 98.8178 41.0477 96.6459 41.9165Z" fill="#FF8736"/>
<path id="Vector_10" d="M100.34 75.7976L103.598 72.9741C103.598 72.9741 106.638 77.5351 108.81 79.2726C110.548 71.4538 110.113 66.8929 119.018 72.1054C114.023 58.6397 122.276 63.6351 130.312 67.3272C129.877 63.8522 130.312 64.2866 133.787 63.2007C136.827 74.7116 128.574 71.2366 122.059 67.5444C125.968 77.9694 121.841 77.3179 113.588 73.8429C113.371 78.1866 112.068 83.1819 109.462 83.6163C106.421 84.4851 100.34 75.7976 100.34 75.7976Z" fill="#ED4C5C"/>
<path id="Vector_11" d="M76.0148 43.6547C72.1055 48.8672 65.807 51.6906 61.2461 56.2516C56.468 61.0297 53.6445 74.0609 53.6445 74.0609C53.6445 74.0609 55.382 60.3781 59.943 55.1656C64.0695 50.3875 70.1508 46.9125 73.4086 41.4828C79.0555 31.4922 73.843 18.4609 66.4586 10.8594C67.9789 9.55625 70.1508 7.81875 71.2367 6.51562C78.4039 15.4203 84.4852 32.5781 76.0148 43.6547Z" fill="#C28FEF"/>
<path id="Vector_12" d="M82.7519 54.7313C77.1051 58.8578 72.9785 64.9391 69.0691 70.586C65.5941 75.5813 54.5176 81.8797 54.5176 81.8797C54.5176 81.8797 64.9426 74.7125 68.2004 69.5C72.1098 62.9844 76.0191 56.2516 82.1004 51.4735C94.2629 42.1344 111.855 43.0031 125.538 47.9985C124.669 49.9531 123.149 54.0797 123.149 54.0797C123.149 54.0797 94.2629 46.261 82.7519 54.7313Z" fill="#FF8736"/>
<path id="Vector_13" d="M106.859 53.6455C103.167 58.4236 101.429 64.2877 98.606 69.7174C95.9998 74.7127 92.5248 79.4908 87.5295 82.0971C81.8826 84.9205 69.5029 84.0518 69.5029 84.0518C69.5029 84.0518 81.8826 83.8346 87.0951 80.3596C92.3076 76.8846 95.131 70.8033 97.0857 65.1565C100.995 54.2971 105.773 42.569 117.067 37.7908C117.719 39.7455 119.239 43.8721 119.239 43.8721C119.239 43.8721 112.94 45.6096 106.859 53.6455ZM6.97461 31.1123L13.1167 24.9681L19.2609 31.1101L13.1188 37.2565L6.97461 31.1123Z" fill="#42ADE2"/>
<path id="Vector_14" d="M15.5762 50.3813L21.7161 44.2393L27.8581 50.3813L21.7161 56.5234L15.5762 50.3813Z" fill="#FF8736"/>
<path id="Vector_15" d="M31.1875 21.3325L37.3296 15.1904L43.4716 21.3325L37.3296 27.4746L31.1875 21.3325Z" fill="#ED4C5C"/>
<path id="Vector_16" d="M98.1758 94.9027L104.318 88.7584L110.46 94.9027L104.318 101.045L98.1758 94.9027Z" fill="#C28FEF"/>
<path id="Vector_17" d="M84.4902 115.957L90.6323 109.815L96.7765 115.96L90.6323 122.102L84.4902 115.957Z" fill="#ED4C5C"/>
<path id="Vector_18" d="M111.367 120.77L117.509 114.626L123.651 120.77L117.509 126.912L111.367 120.77Z" fill="#FF8736"/>
<path id="Vector_19" d="M117.449 92.8067L123.591 86.6647L129.733 92.8067L123.591 98.951L117.449 92.8067ZM107.193 27.8503L113.335 21.7061L119.48 27.8503L113.338 33.9924L107.193 27.8503Z" fill="#42ADE2"/>
<path id="Vector_20" d="M41.3594 64.7063L47.5036 58.5643L53.6457 64.7063L47.5036 70.8506L41.3594 64.7063Z" fill="#ED4C5C"/>
</g>
</svg>
