<svg width="28" height="29" viewBox="0 0 28 29" fill="none" xmlns="http://www.w3.org/2000/svg">
<circle cx="14.0013" cy="14.4998" r="9.33333" fill="white"/>
<path d="M14.0005 1.06006C6.57775 1.06006 0.560547 7.07726 0.560547 14.5001C0.560547 21.9229 6.57775 27.9401 14.0005 27.9401C21.4233 27.9401 27.4405 21.9229 27.4405 14.5001C27.4405 7.07726 21.4233 1.06006 14.0005 1.06006ZM10.7105 20.0707H7.98895V11.3123H10.7105V20.0707ZM9.33295 10.2371C8.47335 10.2371 7.91755 9.62806 7.91755 8.87486C7.91755 8.10626 8.49015 7.51546 9.36795 7.51546C10.2457 7.51546 10.7833 8.10626 10.8001 8.87486C10.8001 9.62806 10.2457 10.2371 9.33295 10.2371ZM20.6505 20.0707H17.9289V15.2169C17.9289 14.0871 17.5341 13.3199 16.5499 13.3199C15.7981 13.3199 15.3515 13.8393 15.1541 14.3391C15.0813 14.5169 15.0631 14.7689 15.0631 15.0195V20.0693H12.3401V14.1053C12.3401 13.0119 12.3051 12.0977 12.2687 11.3109H14.6333L14.7579 12.5275H14.8125C15.1709 11.9563 16.0487 11.1135 17.5173 11.1135C19.3079 11.1135 20.6505 12.3133 20.6505 14.8921V20.0707Z" fill="#175DA8"/>
</svg>
