<svg width="20" height="20" viewBox="0 0 20 20" fill="none" xmlns="http://www.w3.org/2000/svg">
<path d="M9.99965 1.25C12.3205 1.25 14.5462 2.17194 16.1873 3.813C17.8283 5.45406 18.7503 7.67981 18.7503 10.0006C18.7503 12.3214 17.8283 14.5472 16.1873 16.1883C14.5462 17.8293 12.3205 18.7513 9.99965 18.7513C7.67884 18.7513 5.45308 17.8293 3.81202 16.1883C2.17096 14.5472 1.24902 12.3214 1.24902 10.0006C1.24902 7.67981 2.17096 5.45406 3.81202 3.813C5.45308 2.17194 7.67884 1.25 9.99965 1.25ZM11.3121 6.6225C11.9621 6.6225 12.4896 6.17125 12.4896 5.5025C12.4896 4.83375 11.9609 4.3825 11.3121 4.3825C10.6621 4.3825 10.1371 4.83375 10.1371 5.5025C10.1371 6.17125 10.6621 6.6225 11.3121 6.6225ZM11.5409 13.6562C11.5409 13.5225 11.5871 13.175 11.5609 12.9775L10.5334 14.16C10.3209 14.3837 10.0546 14.5387 9.92965 14.4975C9.87294 14.4766 9.82553 14.4362 9.79597 14.3835C9.76641 14.3308 9.75663 14.2693 9.7684 14.21L11.4809 8.8C11.6209 8.11375 11.2359 7.4875 10.4196 7.4075C9.5584 7.4075 8.2909 8.28125 7.51965 9.39C7.51965 9.5225 7.49465 9.8525 7.5209 10.05L8.54715 8.86625C8.75965 8.645 9.00715 8.48875 9.13215 8.53125C9.19373 8.55335 9.2442 8.59872 9.27271 8.65762C9.30122 8.71651 9.30551 8.78423 9.28465 8.84625L7.58715 14.23C7.3909 14.86 7.76215 15.4775 8.66215 15.6175C9.98715 15.6175 10.7696 14.765 11.5421 13.6562H11.5409Z" fill="#C0C0C0"/>
</svg>
