<svg width="18" height="18" viewBox="0 0 18 18" fill="none" xmlns="http://www.w3.org/2000/svg">
<path d="M8.99965 0.25C11.3205 0.25 13.5462 1.17194 15.1873 2.813C16.8283 4.45406 17.7503 6.67981 17.7503 9.00062C17.7503 11.3214 16.8283 13.5472 15.1873 15.1883C13.5462 16.8293 11.3205 17.7513 8.99965 17.7513C6.67884 17.7513 4.45308 16.8293 2.81202 15.1883C1.17096 13.5472 0.249023 11.3214 0.249023 9.00062C0.249023 6.67981 1.17096 4.45406 2.81202 2.813C4.45308 1.17194 6.67884 0.25 8.99965 0.25ZM10.3121 5.6225C10.9621 5.6225 11.4896 5.17125 11.4896 4.5025C11.4896 3.83375 10.9609 3.3825 10.3121 3.3825C9.66215 3.3825 9.13715 3.83375 9.13715 4.5025C9.13715 5.17125 9.66215 5.6225 10.3121 5.6225ZM10.5409 12.6562C10.5409 12.5225 10.5871 12.175 10.5609 11.9775L9.5334 13.16C9.3209 13.3837 9.05465 13.5387 8.92965 13.4975C8.87294 13.4766 8.82553 13.4362 8.79597 13.3835C8.76641 13.3308 8.75663 13.2693 8.7684 13.21L10.4809 7.8C10.6209 7.11375 10.2359 6.4875 9.41965 6.4075C8.5584 6.4075 7.2909 7.28125 6.51965 8.39C6.51965 8.5225 6.49465 8.8525 6.5209 9.05L7.54715 7.86625C7.75965 7.645 8.00715 7.48875 8.13215 7.53125C8.19373 7.55335 8.2442 7.59872 8.27271 7.65762C8.30122 7.71651 8.30551 7.78423 8.28465 7.84625L6.58715 13.23C6.3909 13.86 6.76215 14.4775 7.66215 14.6175C8.98715 14.6175 9.76965 13.765 10.5421 12.6562H10.5409Z" fill="#175DA8"/>
</svg>
