<svg width="28" height="22" viewBox="0 0 28 22" fill="none" xmlns="http://www.w3.org/2000/svg">
<path d="M13.7505 11C14.6787 11 15.569 10.6313 16.2254 9.97487C16.8817 9.3185 17.2505 8.42826 17.2505 7.5C17.2505 6.57174 16.8817 5.6815 16.2254 5.02513C15.569 4.36875 14.6787 4 13.7505 4C12.8222 4 11.932 4.36875 11.2756 5.02513C10.6192 5.6815 10.2505 6.57174 10.2505 7.5C10.2505 8.42826 10.6192 9.3185 11.2756 9.97487C11.932 10.6313 12.8222 11 13.7505 11ZM7.84971 15.375C7.70205 15.7852 7.62549 16.2281 7.62549 16.6875C7.62549 17.4148 8.21065 18 8.93799 18H18.563C19.2903 18 19.8755 17.4148 19.8755 16.6875C19.8755 16.2281 19.7989 15.7852 19.6513 15.375C19.6239 15.2984 19.5966 15.2273 19.5638 15.1563C19.0497 13.9367 17.9341 13.0289 16.5942 12.8047C16.381 12.7664 16.1622 12.75 15.938 12.75H11.563C11.3388 12.75 11.12 12.7664 10.9067 12.8047C10.863 12.8102 10.8138 12.8211 10.77 12.832C9.4083 13.1109 8.30361 14.0898 7.84971 15.375ZM5.86455 9.25C6.20927 9.25 6.55062 9.1821 6.8691 9.05018C7.18757 8.91827 7.47695 8.72491 7.72071 8.48116C7.96446 8.2374 8.15782 7.94802 8.28974 7.62954C8.42165 7.31106 8.48955 6.96972 8.48955 6.625C8.48955 6.28028 8.42165 5.93894 8.28974 5.62046C8.15782 5.30198 7.96446 5.0126 7.72071 4.76884C7.47695 4.52509 7.18757 4.33173 6.8691 4.19982C6.55062 4.0679 6.20927 4 5.86455 4C5.51983 4 5.17849 4.0679 4.86001 4.19982C4.54153 4.33173 4.25215 4.52509 4.0084 4.76884C3.76464 5.0126 3.57129 5.30198 3.43937 5.62046C3.30745 5.93894 3.23955 6.28028 3.23955 6.625C3.23955 6.96972 3.30745 7.31106 3.43937 7.62954C3.57129 7.94802 3.76464 8.2374 4.0084 8.48116C4.25215 8.72491 4.54153 8.91827 4.86001 9.05018C5.17849 9.1821 5.51983 9.25 5.86455 9.25ZM4.41533 11C2.80752 11 1.50049 12.307 1.50049 13.9148C1.50049 14.7188 2.15127 15.375 2.96064 15.375H6.02861C6.46611 13.5102 7.82236 12.0008 9.59424 11.35C9.18408 11.1258 8.7083 11 8.21064 11H4.4208H4.41533ZM24.5403 15.375C25.3442 15.375 26.0005 14.7242 26.0005 13.9148C26.0005 12.3016 24.6935 11 23.0856 11H19.2958C18.7927 11 18.3224 11.1258 17.9122 11.35C19.6841 12.0008 21.0403 13.5102 21.4778 15.375H24.5458H24.5403ZM21.6255 9.25C21.9702 9.25 22.3116 9.1821 22.63 9.05018C22.9485 8.91827 23.2379 8.72491 23.4816 8.48116C23.7254 8.2374 23.9188 7.94802 24.0507 7.62954C24.1826 7.31106 24.2505 6.96972 24.2505 6.625C24.2505 6.28028 24.1826 5.93894 24.0507 5.62046C23.9188 5.30198 23.7254 5.0126 23.4816 4.76884C23.2379 4.52509 22.9485 4.33173 22.63 4.19982C22.3116 4.0679 21.9702 4 21.6255 4C21.2808 4 20.9394 4.0679 20.6209 4.19982C20.3025 4.33173 20.0131 4.52509 19.7693 4.76884C19.5256 5.0126 19.3322 5.30198 19.2003 5.62046C19.0684 5.93894 19.0005 6.28028 19.0005 6.625C19.0005 6.96972 19.0684 7.31106 19.2003 7.62954C19.3322 7.94802 19.5256 8.2374 19.7693 8.48116C20.0131 8.72491 20.3025 8.91827 20.6209 9.05018C20.9394 9.1821 21.2808 9.25 21.6255 9.25Z" fill="#175DA8"/>
</svg>
