<svg width="32" height="32" viewBox="0 0 32 32" fill="none" xmlns="http://www.w3.org/2000/svg">
<path d="M27.6541 14.1511L16.8522 3.35484C16.7406 3.2424 16.6078 3.15316 16.4616 3.09226C16.3153 3.03136 16.1584 3 16 3C15.8416 3 15.6847 3.03136 15.5384 3.09226C15.3922 3.15316 15.2594 3.2424 15.1478 3.35484L4.34589 14.1511C4.17935 14.3198 4.06653 14.534 4.02167 14.7667C3.97682 14.9995 4.00193 15.2402 4.09384 15.4587C4.18388 15.6778 4.33679 15.8653 4.53329 15.9976C4.72979 16.13 4.96109 16.2012 5.19804 16.2024H6.39826V24.9594C6.42014 25.5205 6.66353 26.0502 7.07517 26.4323C7.4868 26.8145 8.03315 27.0182 8.59466 26.9987H11.7992C12.1176 26.9987 12.4228 26.8723 12.6479 26.6474C12.873 26.4224 12.9995 26.1173 12.9995 25.7991V19.9212C12.9995 19.603 13.1259 19.2979 13.351 19.0729C13.5761 18.8479 13.8814 18.7216 14.1997 18.7216H17.8003C18.1186 18.7216 18.4239 18.8479 18.649 19.0729C18.8741 19.2979 19.0005 19.603 19.0005 19.9212V25.7991C19.0005 26.1173 19.127 26.4224 19.3521 26.6474C19.5772 26.8723 19.8824 26.9987 20.2008 26.9987H23.4053C23.9668 27.0182 24.5132 26.8145 24.9248 26.4323C25.3365 26.0502 25.5799 25.5205 25.6017 24.9594V16.2024H26.802C27.0389 16.2012 27.2702 16.13 27.4667 15.9976C27.6632 15.8653 27.8161 15.6778 27.9062 15.4587C27.9981 15.2402 28.0232 14.9995 27.9783 14.7667C27.9335 14.534 27.8207 14.3198 27.6541 14.1511Z" fill="#175DA8"/>
</svg>
