<svg width="16" height="16" viewBox="0 0 16 16" fill="none" xmlns="http://www.w3.org/2000/svg">
<g clip-path="url(#clip0_4871_8485)">
<path d="M7.99967 14.6663C4.31767 14.6663 1.33301 11.6817 1.33301 7.99967C1.33301 4.31767 4.31767 1.33301 7.99967 1.33301C10.985 1.33301 13.4837 3.29501 14.333 5.99967H12.6663" stroke="#888888" stroke-width="1.2" stroke-linecap="round" stroke-linejoin="round"/>
<path d="M8 5.33301V7.99967L9.33333 9.33301M14.6367 8.66634C14.6567 8.44634 14.6667 8.22412 14.6667 7.99967M10 14.6663C10.2267 14.5912 10.4493 14.504 10.6667 14.405M13.86 11.333C13.9893 11.085 14.1038 10.8286 14.2033 10.5637M12.128 13.4857C12.3582 13.2955 12.5753 13.0906 12.7793 12.871" stroke="#888888" stroke-width="1.2" stroke-linecap="round" stroke-linejoin="round"/>
</g>
<defs>
<clipPath id="clip0_4871_8485">
<rect width="16" height="16" fill="white"/>
</clipPath>
</defs>
</svg>
