<svg width="21" height="20" viewBox="0 0 21 20" fill="none" xmlns="http://www.w3.org/2000/svg">
<g id="ic:baseline-phone-in-talk">
<path id="Vector" d="M17.1667 12.9167C16.125 12.9167 15.125 12.75 14.1917 12.4417C14.0451 12.395 13.8887 12.389 13.739 12.4242C13.5893 12.4594 13.452 12.5346 13.3417 12.6417L11.5083 14.475C9.14283 13.2716 7.22005 11.3488 6.01667 8.98333L7.85 7.14167C7.96037 7.03695 8.0386 6.90293 8.0755 6.75533C8.1124 6.60773 8.10644 6.45267 8.05833 6.30833C7.74277 5.34824 7.58242 4.34395 7.58333 3.33333C7.58333 2.875 7.20833 2.5 6.75 2.5H3.83333C3.375 2.5 3 2.875 3 3.33333C3 11.1583 9.34167 17.5 17.1667 17.5C17.625 17.5 18 17.125 18 16.6667V13.75C18 13.2917 17.625 12.9167 17.1667 12.9167ZM16.3333 10H18C18 8.01088 17.2098 6.10322 15.8033 4.6967C14.3968 3.29018 12.4891 2.5 10.5 2.5V4.16667C13.725 4.16667 16.3333 6.775 16.3333 10ZM13 10H14.6667C14.6667 7.7 12.8 5.83333 10.5 5.83333V7.5C11.8833 7.5 13 8.61667 13 10Z" fill="#175DA8"/>
</g>
</svg>
