<svg width="20" height="20" viewBox="0 0 20 20" fill="none" xmlns="http://www.w3.org/2000/svg">
<path d="M16.6667 12.9167C15.625 12.9167 14.625 12.75 13.6917 12.4417C13.5451 12.395 13.3887 12.389 13.239 12.4242C13.0893 12.4594 12.952 12.5346 12.8417 12.6417L11.0083 14.475C8.64283 13.2716 6.72005 11.3488 5.51667 8.98333L7.35 7.14167C7.46037 7.03695 7.5386 6.90293 7.5755 6.75533C7.6124 6.60773 7.60644 6.45267 7.55833 6.30833C7.24277 5.34824 7.08242 4.34395 7.08333 3.33333C7.08333 2.875 6.70833 2.5 6.25 2.5H3.33333C2.875 2.5 2.5 2.875 2.5 3.33333C2.5 11.1583 8.84167 17.5 16.6667 17.5C17.125 17.5 17.5 17.125 17.5 16.6667V13.75C17.5 13.2917 17.125 12.9167 16.6667 12.9167ZM15.8333 10H17.5C17.5 8.01088 16.7098 6.10322 15.3033 4.6967C13.8968 3.29018 11.9891 2.5 10 2.5V4.16667C13.225 4.16667 15.8333 6.775 15.8333 10ZM12.5 10H14.1667C14.1667 7.7 12.3 5.83333 10 5.83333V7.5C11.3833 7.5 12.5 8.61667 12.5 10Z" fill="#888888"/>
</svg>
