<svg width="16" height="16" viewBox="0 0 16 16" fill="none" xmlns="http://www.w3.org/2000/svg">
<g clip-path="url(#clip0_4871_8410)">
<path d="M11.4879 0.5V1.66636H13.5658L11.5976 3.65268C10.8941 3.12138 10.0368 2.83356 9.15523 2.83272C8.06468 2.83272 7.04644 3.26428 6.27548 4.03583C5.89439 4.41232 5.59184 4.86071 5.38536 5.35502C5.17888 5.84933 5.07259 6.37971 5.07264 6.9154C5.0727 7.4511 5.1791 7.98146 5.38567 8.47572C5.59225 8.96999 5.8949 9.41833 6.27606 9.79474C6.78343 10.3021 7.3876 10.6666 8.06176 10.8515C8.12824 10.8007 8.20289 10.7477 8.26238 10.6882C8.50682 10.4396 8.68246 10.1317 8.77208 9.79474C8.1371 9.71662 7.5467 9.42769 7.09543 8.9742C6.54491 8.42426 6.23932 7.69412 6.23932 6.91499C6.23932 6.13586 6.54549 5.40689 7.0966 4.85636C7.64595 4.30409 8.3761 3.99909 9.15523 3.99909C9.93436 3.99909 10.6639 4.30526 11.2139 4.85636C11.4859 5.12571 11.7017 5.44636 11.8489 5.79974C11.996 6.15312 12.0716 6.5322 12.0711 6.91499C12.0711 7.41944 11.9283 7.8889 11.6886 8.31812C11.7445 8.61905 11.7795 8.93513 11.7795 9.24771C11.7795 9.53892 11.7552 9.82468 11.7066 10.105C11.8233 10.0099 11.9271 9.90204 12.035 9.79474C12.8059 9.02261 13.2375 8.00554 13.2375 6.91499C13.2375 6.02272 12.9436 5.17478 12.4175 4.47263L14.4039 2.50498V4.58227H15.5702V0.5H11.4879ZM7.91597 5.31124C7.84948 5.36198 7.77484 5.41505 7.71535 5.47453C7.46342 5.72763 7.29896 6.03439 7.20565 6.36855C7.84132 6.4502 8.42158 6.72779 8.8823 7.1885C9.4334 7.73844 9.73957 8.46859 9.73957 9.24713C9.73957 10.0257 9.4334 10.7552 8.8823 11.3058C8.33177 11.8586 7.60163 12.1636 6.8225 12.1636C6.04337 12.1636 5.31381 11.8575 4.76387 11.3063C4.49161 11.0372 4.2756 10.7166 4.12842 10.3632C3.98125 10.0097 3.90584 9.63056 3.9066 9.24771C3.9066 8.74326 4.04948 8.2738 4.28916 7.84458C4.23127 7.53804 4.20083 7.22694 4.19819 6.91499C4.19819 6.62418 4.22249 6.33842 4.27108 6.05771C4.15445 6.15277 4.05123 6.26066 3.94275 6.36855C3.17295 7.13893 2.74023 8.15717 2.74023 9.24771C2.74023 10.14 3.03416 10.9879 3.56019 11.6901L2.57694 12.6739L1.41058 11.5075L0.570801 12.3275L1.73716 13.4939L0.570801 14.6602L1.41058 15.5L2.57694 14.3336L3.74331 15.5L4.56267 14.6602L3.39631 13.4939L4.38072 12.5106C5.08351 13.0427 5.941 13.3305 6.8225 13.33C7.91305 13.33 8.93128 12.8984 9.70225 12.1269C10.4732 11.3565 10.9048 10.3383 10.9048 9.24771C10.9048 8.15717 10.4732 7.1401 9.70167 6.36797C9.1943 5.8606 8.59012 5.49611 7.91597 5.31124Z" fill="#888888"/>
</g>
<defs>
<clipPath id="clip0_4871_8410">
<rect width="16" height="16" fill="white"/>
</clipPath>
</defs>
</svg>
