<svg width="16" height="16" viewBox="0 0 16 16" fill="none" xmlns="http://www.w3.org/2000/svg">
<path d="M1.75977 3.6665H14.7598V12.3332H1.75977V3.6665ZM8.25977 5.83317C8.8344 5.83317 9.3855 6.06144 9.79183 6.46777C10.1982 6.8741 10.4264 7.4252 10.4264 7.99984C10.4264 8.57447 10.1982 9.12557 9.79183 9.5319C9.3855 9.93823 8.8344 10.1665 8.25977 10.1665C7.68513 10.1665 7.13403 9.93823 6.7277 9.5319C6.32137 9.12557 6.0931 8.57447 6.0931 7.99984C6.0931 7.4252 6.32137 6.8741 6.7277 6.46777C7.13403 6.06144 7.68513 5.83317 8.25977 5.83317ZM4.64865 5.11095C4.64865 5.49404 4.49647 5.86144 4.22559 6.13232C3.9547 6.40321 3.5873 6.55539 3.20421 6.55539V9.44428C3.5873 9.44428 3.9547 9.59646 4.22559 9.86735C4.49647 10.1382 4.64865 10.5056 4.64865 10.8887H11.8709C11.8709 10.5056 12.0231 10.1382 12.2939 9.86735C12.5648 9.59646 12.9322 9.44428 13.3153 9.44428V6.55539C12.9322 6.55539 12.5648 6.40321 12.2939 6.13232C12.0231 5.86144 11.8709 5.49404 11.8709 5.11095H4.64865Z" fill="#888888"/>
</svg>
