<svg width="16" height="16" viewBox="0 0 16 16" fill="none" xmlns="http://www.w3.org/2000/svg">
<path d="M8.00067 2C7.52835 1.9993 7.07103 2.16578 6.70969 2.46995C6.34835 2.77412 6.10633 3.19636 6.02648 3.66188C5.94663 4.12741 6.03411 4.60616 6.27343 5.01337C6.51274 5.42057 6.88845 5.72993 7.334 5.88667V7.33334H5.334C4.80357 7.33334 4.29486 7.54405 3.91979 7.91912C3.54472 8.29419 3.334 8.8029 3.334 9.33334V10.1133C2.88901 10.2706 2.51394 10.5801 2.2751 10.9872C2.03625 11.3943 1.94901 11.8727 2.0288 12.3379C2.10858 12.803 2.35025 13.225 2.71109 13.5293C3.07193 13.8335 3.5287 14.0003 4.00067 14.0003C4.47264 14.0003 4.92941 13.8335 5.29025 13.5293C5.65109 13.225 5.89276 12.803 5.97255 12.3379C6.05233 11.8727 5.96509 11.3943 5.72624 10.9872C5.4874 10.5801 5.11233 10.2706 4.66734 10.1133V9.33334C4.66734 9.15652 4.73758 8.98696 4.8626 8.86193C4.98762 8.73691 5.15719 8.66667 5.334 8.66667H10.6673C10.8441 8.66667 11.0137 8.73691 11.1387 8.86193C11.2638 8.98696 11.334 9.15652 11.334 9.33334V10.1133C10.889 10.2706 10.5139 10.5801 10.2751 10.9872C10.0363 11.3943 9.94901 11.8727 10.0288 12.3379C10.1086 12.803 10.3503 13.225 10.7111 13.5293C11.0719 13.8335 11.5287 14.0003 12.0007 14.0003C12.4726 14.0003 12.9294 13.8335 13.2903 13.5293C13.6511 13.225 13.8928 12.803 13.9725 12.3379C14.0523 11.8727 13.9651 11.3943 13.7262 10.9872C13.4874 10.5801 13.1123 10.2706 12.6673 10.1133V9.33334C12.6673 8.8029 12.4566 8.29419 12.0816 7.91912C11.7065 7.54405 11.1978 7.33334 10.6673 7.33334H8.66734V5.88667C9.1121 5.72924 9.48692 5.41968 9.72558 5.01269C9.96424 4.6057 10.0514 4.12746 9.97162 3.66244C9.89186 3.19743 9.65032 2.77556 9.28967 2.47137C8.92903 2.16717 8.47248 2.00022 8.00067 2Z" fill="#888888"/>
</svg>
