<svg width="20" height="21" viewBox="0 0 20 21" fill="none" xmlns="http://www.w3.org/2000/svg">
<path fill-rule="evenodd" clip-rule="evenodd" d="M14.5 4.5H12C12 3.39688 11.1031 2.5 10 2.5C8.89687 2.5 8 3.39688 8 4.5H5.5C4.67188 4.5 4 5.17188 4 6V17C4 17.8281 4.67188 18.5 5.5 18.5H14.5C15.3281 18.5 16 17.8281 16 17V6C16 5.17188 15.3281 4.5 14.5 4.5ZM10 3.75C10.4156 3.75 10.75 4.08438 10.75 4.5C10.75 4.91563 10.4156 5.25 10 5.25C9.58437 5.25 9.25 4.91563 9.25 4.5C9.25 4.08438 9.58437 3.75 10 3.75ZM13 7.25C13 7.3875 12.8875 7.5 12.75 7.5H7.25C7.1125 7.5 7 7.3875 7 7.25V6.75C7 6.6125 7.1125 6.5 7.25 6.5H12.75C12.8875 6.5 13 6.6125 13 6.75V7.25ZM9.91222 12.5325C10.772 12.5325 11.469 11.8355 11.469 10.9757C11.469 10.1159 10.772 9.41895 9.91222 9.41895C9.05245 9.41895 8.35547 10.1159 8.35547 10.9757C8.35547 11.8355 9.05245 12.5325 9.91222 12.5325ZM12.6379 14.6729C12.6379 15.5326 11.4182 16.2296 9.91356 16.2296C8.40896 16.2296 7.18924 15.5326 7.18924 14.6729C7.18924 13.8131 8.40896 13.1161 9.91356 13.1161C11.4182 13.1161 12.6379 13.8131 12.6379 14.6729Z" fill="#888888"/>
</svg>
