<svg width="16" height="16" viewBox="0 0 16 16" fill="none" xmlns="http://www.w3.org/2000/svg">
<path d="M13.7561 12.9941H12.4875V2.8457H12.9104C13.0225 2.8457 13.1301 2.80115 13.2094 2.72185C13.2887 2.64255 13.3333 2.535 13.3333 2.42285C13.3333 2.3107 13.2887 2.20315 13.2094 2.12385C13.1301 2.04455 13.0225 2 12.9104 2H3.60767C3.49552 2 3.38796 2.04455 3.30866 2.12385C3.22936 2.20315 3.18481 2.3107 3.18481 2.42285C3.18481 2.535 3.22936 2.64255 3.30866 2.72185C3.38796 2.80115 3.49552 2.8457 3.60767 2.8457H4.03052V12.9941H2.76196C2.64982 12.9941 2.54226 13.0387 2.46296 13.118C2.38366 13.1973 2.33911 13.3048 2.33911 13.417C2.33911 13.5291 2.38366 13.6367 2.46296 13.716C2.54226 13.7953 2.64982 13.8398 2.76196 13.8398H13.7561C13.8683 13.8398 13.9758 13.7953 14.0551 13.716C14.1344 13.6367 14.179 13.5291 14.179 13.417C14.179 13.3048 14.1344 13.1973 14.0551 13.118C13.9758 13.0387 13.8683 12.9941 13.7561 12.9941ZM6.14478 4.11426H7.41333C7.52548 4.11426 7.63303 4.15881 7.71233 4.23811C7.79163 4.31741 7.83618 4.42496 7.83618 4.53711C7.83618 4.64926 7.79163 4.75681 7.71233 4.83611C7.63303 4.91541 7.52548 4.95996 7.41333 4.95996H6.14478C6.03263 4.95996 5.92507 4.91541 5.84577 4.83611C5.76647 4.75681 5.72192 4.64926 5.72192 4.53711C5.72192 4.42496 5.76647 4.31741 5.84577 4.23811C5.92507 4.15881 6.03263 4.11426 6.14478 4.11426ZM6.14478 6.22852H7.41333C7.52548 6.22852 7.63303 6.27307 7.71233 6.35237C7.79163 6.43167 7.83618 6.53922 7.83618 6.65137C7.83618 6.76351 7.79163 6.87107 7.71233 6.95037C7.63303 7.02967 7.52548 7.07422 7.41333 7.07422H6.14478C6.03263 7.07422 5.92507 7.02967 5.84577 6.95037C5.76647 6.87107 5.72192 6.76351 5.72192 6.65137C5.72192 6.53922 5.76647 6.43167 5.84577 6.35237C5.92507 6.27307 6.03263 6.22852 6.14478 6.22852ZM5.72192 8.76562C5.72192 8.65348 5.76647 8.54592 5.84577 8.46662C5.92507 8.38732 6.03263 8.34277 6.14478 8.34277H7.41333C7.52548 8.34277 7.63303 8.38732 7.71233 8.46662C7.79163 8.54592 7.83618 8.65348 7.83618 8.76562C7.83618 8.87777 7.79163 8.98533 7.71233 9.06463C7.63303 9.14393 7.52548 9.18848 7.41333 9.18848H6.14478C6.03263 9.18848 5.92507 9.14393 5.84577 9.06463C5.76647 8.98533 5.72192 8.87777 5.72192 8.76562ZM9.52759 12.9941H6.99048V10.8799H9.52759V12.9941ZM10.3733 9.18848H9.10474C8.99259 9.18848 8.88504 9.14393 8.80573 9.06463C8.72643 8.98533 8.68188 8.87777 8.68188 8.76562C8.68188 8.65348 8.72643 8.54592 8.80573 8.46662C8.88504 8.38732 8.99259 8.34277 9.10474 8.34277H10.3733C10.4854 8.34277 10.593 8.38732 10.6723 8.46662C10.7516 8.54592 10.7961 8.65348 10.7961 8.76562C10.7961 8.87777 10.7516 8.98533 10.6723 9.06463C10.593 9.14393 10.4854 9.18848 10.3733 9.18848ZM10.3733 7.07422H9.10474C8.99259 7.07422 8.88504 7.02967 8.80573 6.95037C8.72643 6.87107 8.68188 6.76351 8.68188 6.65137C8.68188 6.53922 8.72643 6.43167 8.80573 6.35237C8.88504 6.27307 8.99259 6.22852 9.10474 6.22852H10.3733C10.4854 6.22852 10.593 6.27307 10.6723 6.35237C10.7516 6.43167 10.7961 6.53922 10.7961 6.65137C10.7961 6.76351 10.7516 6.87107 10.6723 6.95037C10.593 7.02967 10.4854 7.07422 10.3733 7.07422ZM10.3733 4.95996H9.10474C8.99259 4.95996 8.88504 4.91541 8.80573 4.83611C8.72643 4.75681 8.68188 4.64926 8.68188 4.53711C8.68188 4.42496 8.72643 4.31741 8.80573 4.23811C8.88504 4.15881 8.99259 4.11426 9.10474 4.11426H10.3733C10.4854 4.11426 10.593 4.15881 10.6723 4.23811C10.7516 4.31741 10.7961 4.42496 10.7961 4.53711C10.7961 4.64926 10.7516 4.75681 10.6723 4.83611C10.593 4.91541 10.4854 4.95996 10.3733 4.95996Z" fill="#888888"/>
</svg>
