<svg width="73" height="72" viewBox="0 0 73 72" fill="none" xmlns="http://www.w3.org/2000/svg">
<rect x="0.5" width="72" height="72" rx="36" fill="white"/>
<path d="M45.9167 36.9297C45.9167 34.1672 44.9548 31.824 43.0309 29.9002C41.1071 27.9764 38.7634 27.014 36 27.013V24.1797C37.7708 24.1797 39.4298 24.5164 40.9767 25.1898C42.5238 25.8632 43.8696 26.7722 45.0143 27.9169C46.1589 29.0615 47.0679 30.4074 47.7413 31.9544C48.4147 33.5014 48.7509 35.1598 48.75 36.9297H45.9167ZM40.25 36.9297C40.25 35.7491 39.8368 34.7457 39.0104 33.9193C38.184 33.0929 37.1806 32.6797 36 32.6797V29.8464C37.9597 29.8464 39.6304 30.5372 41.0122 31.9189C42.3939 33.3007 43.0843 34.9709 43.0833 36.9297H40.25ZM47.2625 49.7505C44.3111 49.7505 41.3951 49.1074 38.5146 47.821C35.634 46.5347 33.0132 44.7105 30.6521 42.3484C28.291 39.9864 26.4673 37.3655 25.1809 34.4859C23.8946 31.6063 23.2509 28.6904 23.25 25.738C23.25 25.313 23.3917 24.9589 23.675 24.6755C23.9583 24.3922 24.3125 24.2505 24.7375 24.2505H30.475C30.8056 24.2505 31.1007 24.3629 31.3604 24.5877C31.6201 24.8125 31.7736 25.0779 31.8208 25.3839L32.7417 30.3422C32.7889 30.72 32.7771 31.0387 32.7063 31.2984C32.6354 31.5582 32.5056 31.7825 32.3167 31.9714L28.8813 35.4422C29.3535 36.3158 29.914 37.1597 30.5628 37.9738C31.2117 38.7879 31.9261 39.5732 32.7063 40.3297C33.4382 41.0616 34.2056 41.7407 35.0083 42.3669C35.8111 42.993 36.6611 43.5654 37.5583 44.0839L40.8875 40.7547C41.1 40.5422 41.3777 40.383 41.7205 40.2773C42.0633 40.1715 42.3996 40.1417 42.7292 40.188L47.6167 41.1797C47.9472 41.2741 48.2188 41.4455 48.4313 41.6939C48.6438 41.9423 48.75 42.2195 48.75 42.5255V48.263C48.75 48.688 48.6083 49.0422 48.325 49.3255C48.0417 49.6089 47.6875 49.7505 47.2625 49.7505Z" fill="#175DA8"/>
</svg>
