<svg width="16" height="16" viewBox="0 0 16 16" fill="none" xmlns="http://www.w3.org/2000/svg">
<path d="M8.00098 14.9468C11.9518 14.9468 15.1543 11.7442 15.1543 7.79346C15.1543 3.84268 11.9518 0.640137 8.00098 0.640137C4.0502 0.640137 0.847656 3.84268 0.847656 7.79346C0.847656 11.7442 4.0502 14.9468 8.00098 14.9468ZM9.07397 4.93213C9.3086 5.24401 9.47671 5.60883 9.55682 6.00513H10.8623V7.07812H9.55682C9.43314 7.68403 9.10392 8.22859 8.62487 8.61965C8.14582 9.01071 7.54638 9.22425 6.92798 9.22412H6.79207L9.4531 11.8852L8.69485 12.6434L5.13965 9.08821V8.15112H6.92798C7.2609 8.15122 7.58565 8.04808 7.85751 7.85592C8.12937 7.66375 8.33494 7.392 8.44591 7.07812H5.13965V6.00513H8.44591C8.33494 5.69125 8.12937 5.41951 7.85751 5.22734C7.58565 5.03517 7.2609 4.93203 6.92798 4.93213H5.13965V3.85913H10.8623V4.93213H9.07397Z" fill="#888888"/>
</svg>
