<svg width="28" height="29" viewBox="0 0 28 29" fill="none" xmlns="http://www.w3.org/2000/svg">
<g clip-path="url(#clip0_2162_6641)">
<path d="M21.4375 0.5H6.5625C2.93813 0.5 0 3.43813 0 7.0625V21.9375C0 25.5619 2.93813 28.5 6.5625 28.5H21.4375C25.0619 28.5 28 25.5619 28 21.9375V7.0625C28 3.43813 25.0619 0.5 21.4375 0.5Z" fill="#175DA8"/>
<path d="M21.4375 0.5H6.5625C2.93813 0.5 0 3.43813 0 7.0625V21.9375C0 25.5619 2.93813 28.5 6.5625 28.5H21.4375C25.0619 28.5 28 25.5619 28 21.9375V7.0625C28 3.43813 25.0619 0.5 21.4375 0.5Z" fill="#175DA8"/>
<path d="M13.9994 6.3335C11.7815 6.3335 11.5031 6.34321 10.6321 6.38282C9.76265 6.42268 9.16918 6.56028 8.64994 6.76224C8.11274 6.97082 7.65712 7.24987 7.20321 7.70393C6.7489 8.15791 6.46985 8.61352 6.26062 9.15048C6.05808 9.66987 5.92031 10.2636 5.88119 11.1326C5.84224 12.0037 5.83203 12.2822 5.83203 14.5002C5.83203 16.7181 5.84183 16.9956 5.88136 17.8667C5.92137 18.7361 6.05898 19.3296 6.26078 19.8488C6.46952 20.386 6.74858 20.8416 7.20264 21.2955C7.65646 21.7498 8.11208 22.0295 8.64888 22.2381C9.16852 22.44 9.76208 22.5777 10.6313 22.6175C11.5025 22.6571 11.7806 22.6668 13.9985 22.6668C16.2166 22.6668 16.4941 22.6571 17.3652 22.6175C18.2346 22.5777 18.8287 22.44 19.3484 22.2381C19.8853 22.0295 20.3403 21.7498 20.794 21.2955C21.2483 20.8416 21.5273 20.386 21.7366 19.849C21.9374 19.3296 22.0752 18.7359 22.116 17.8668C22.1552 16.9958 22.1654 16.7181 22.1654 14.5002C22.1654 12.2822 22.1552 12.0039 22.116 11.1328C22.0752 10.2633 21.9374 9.66995 21.7366 9.15072C21.5273 8.61353 21.2483 8.15791 20.794 7.70393C20.3398 7.24971 19.8855 6.97065 19.3479 6.76232C18.8272 6.56028 18.2334 6.42259 17.364 6.38282C16.4929 6.34321 16.2155 6.3335 13.9969 6.3335H13.9994ZM13.2668 7.8052C13.4843 7.80487 13.7269 7.8052 13.9994 7.8052C16.18 7.8052 16.4384 7.81304 17.2995 7.85215C18.0958 7.88858 18.5279 8.02161 18.8158 8.13341C19.1969 8.28139 19.4687 8.45836 19.7543 8.74427C20.0402 9.0301 20.217 9.30229 20.3654 9.68343C20.4772 9.97089 20.6104 10.4031 20.6467 11.1993C20.6858 12.0602 20.6943 12.3188 20.6943 14.4983C20.6943 16.6778 20.6858 16.9364 20.6467 17.7973C20.6103 18.5935 20.4772 19.0257 20.3654 19.3132C20.2175 19.6944 20.0402 19.9657 19.7543 20.2514C19.4685 20.5372 19.1971 20.7141 18.8158 20.8622C18.5283 20.9745 18.0958 21.1072 17.2995 21.1436C16.4386 21.1827 16.18 21.1912 13.9994 21.1912C11.8188 21.1912 11.5603 21.1827 10.6994 21.1436C9.9032 21.1068 9.47102 20.9738 9.1829 20.862C8.80184 20.714 8.52956 20.5371 8.24373 20.2512C7.9579 19.9654 7.78101 19.6939 7.63262 19.3126C7.52082 19.025 7.38762 18.5928 7.35136 17.7966C7.31224 16.9357 7.3044 16.6771 7.3044 14.4962C7.3044 12.3154 7.31224 12.0582 7.35136 11.1973C7.38778 10.401 7.52082 9.96885 7.63262 9.68098C7.78068 9.29984 7.9579 9.02765 8.24381 8.74182C8.52973 8.45599 8.80184 8.27902 9.18298 8.13072C9.47085 8.01843 9.9032 7.88572 10.6994 7.84913C11.4528 7.81508 11.7448 7.80487 13.2668 7.80315V7.8052ZM18.3588 9.16118C17.8178 9.16118 17.3788 9.59972 17.3788 10.1408C17.3788 10.6819 17.8178 11.1208 18.3588 11.1208C18.8998 11.1208 19.3388 10.6819 19.3388 10.1408C19.3388 9.5998 18.8998 9.16085 18.3588 9.16085V9.16118ZM13.9994 10.3062C11.6834 10.3062 9.80552 12.184 9.80552 14.5002C9.80552 16.8163 11.6834 18.6932 13.9994 18.6932C16.3156 18.6932 18.1928 16.8163 18.1928 14.5002C18.1928 12.1841 16.3154 10.3062 13.9993 10.3062H13.9994ZM13.9994 11.7779C15.5028 11.7779 16.7217 12.9966 16.7217 14.5002C16.7217 16.0036 15.5028 17.2224 13.9994 17.2224C12.496 17.2224 11.2772 16.0036 11.2772 14.5002C11.2772 12.9966 12.496 11.7779 13.9994 11.7779Z" fill="white"/>
</g>
<defs>
<clipPath id="clip0_2162_6641">
<rect y="0.5" width="28" height="28" rx="14" fill="white"/>
</clipPath>
</defs>
</svg>
