<svg width="28" height="28" viewBox="0 0 28 28" fill="none" xmlns="http://www.w3.org/2000/svg">
<path d="M7.62067 5.5415H15.7127C16.2458 5.5415 16.709 5.5415 17.0718 5.5765C17.43 5.60917 17.871 5.68734 18.2303 5.9825C18.6935 6.36284 18.9548 6.93217 18.9583 7.52484C18.9607 7.97984 18.7577 8.37184 18.5617 8.68217C18.3657 8.99717 18.0822 9.3705 17.7508 9.80684L14.7222 13.7992C14.4282 14.1865 14.3547 14.2892 14.3033 14.3942C14.2499 14.5041 14.211 14.6206 14.1878 14.7407C14.1645 14.8573 14.161 14.988 14.161 15.4803V20.4305C14.161 20.6732 14.161 20.9112 14.1447 21.1048C14.1272 21.2962 14.084 21.603 13.8833 21.8783C13.6383 22.2132 13.2568 22.4302 12.8333 22.4558C12.481 22.478 12.1952 22.3357 12.0283 22.2423C11.8384 22.1293 11.6531 22.0087 11.473 21.8807L10.3192 21.0838L10.2632 21.0453C10.0403 20.8925 9.793 20.7233 9.6075 20.4888C9.44629 20.2866 9.32621 20.0547 9.254 19.8063C9.17117 19.5217 9.17234 19.223 9.17234 18.9453V15.4803C9.17234 14.988 9.16767 14.8573 9.1455 14.7407C9.12193 14.6206 9.08271 14.5041 9.02884 14.3942C8.97867 14.2892 8.90517 14.1865 8.61117 13.7992L5.5825 9.80684C5.25117 9.3705 4.96767 8.99717 4.77051 8.68217C4.57567 8.37184 4.37384 7.97984 4.37501 7.52484C4.37562 7.23007 4.44117 6.93905 4.56699 6.67248C4.69282 6.40591 4.87583 6.17033 5.10301 5.9825C5.46234 5.68734 5.90334 5.60917 6.26151 5.57534C6.62434 5.5415 7.08634 5.5415 7.62067 5.5415ZM6.19267 7.35567C6.1534 7.39872 6.12995 7.45386 6.12617 7.512C6.13317 7.53417 6.16117 7.6065 6.25451 7.7535C6.40384 7.99267 6.6395 8.30417 7.00117 8.78134L10.0053 12.741L10.0462 12.7947C10.2807 13.1027 10.4673 13.3488 10.6038 13.6288C10.7236 13.8754 10.8099 14.134 10.8628 14.4047C10.9223 14.7092 10.9212 15.0195 10.9212 15.4127V18.8753C10.9212 19.0597 10.9223 19.1635 10.927 19.2417L10.934 19.314C10.942 19.345 10.9563 19.374 10.976 19.3992L11.0238 19.4388C11.0822 19.4855 11.1638 19.5415 11.3132 19.6442L12.411 20.4025V15.4115C12.411 15.0183 12.411 14.708 12.4705 14.4035C12.5234 14.1336 12.6097 13.875 12.7295 13.6277C12.866 13.3477 13.0527 13.1027 13.2872 12.7935L13.328 12.7398L16.3322 8.78017C16.6938 8.30184 16.9295 7.9915 17.0788 7.75234C17.1722 7.60534 17.2002 7.533 17.2072 7.51084C17.2034 7.45269 17.1799 7.39756 17.1407 7.3545C17.0644 7.33419 16.9862 7.32169 16.9073 7.31717C16.6367 7.2915 16.2587 7.29034 15.6707 7.29034H7.66267C7.07467 7.29034 6.69667 7.29034 6.426 7.31717C6.34716 7.32169 6.26899 7.33536 6.19267 7.35567ZM18.375 12.2498C18.375 12.0178 18.4672 11.7952 18.6313 11.6311C18.7954 11.467 19.0179 11.3748 19.25 11.3748H22.75C22.9821 11.3748 23.2046 11.467 23.3687 11.6311C23.5328 11.7952 23.625 12.0178 23.625 12.2498C23.625 12.4819 23.5328 12.7045 23.3687 12.8686C23.2046 13.0326 22.9821 13.1248 22.75 13.1248H19.25C19.0179 13.1248 18.7954 13.0326 18.6313 12.8686C18.4672 12.7045 18.375 12.4819 18.375 12.2498ZM16.625 15.1665C16.625 14.9344 16.7172 14.7119 16.8813 14.5478C17.0454 14.3837 17.2679 14.2915 17.5 14.2915H22.75C22.9821 14.2915 23.2046 14.3837 23.3687 14.5478C23.5328 14.7119 23.625 14.9344 23.625 15.1665C23.625 15.3986 23.5328 15.6211 23.3687 15.7852C23.2046 15.9493 22.9821 16.0415 22.75 16.0415H17.5C17.2679 16.0415 17.0454 15.9493 16.8813 15.7852C16.7172 15.6211 16.625 15.3986 16.625 15.1665ZM16.0417 18.0832C16.0417 17.8511 16.1339 17.6285 16.298 17.4645C16.462 17.3004 16.6846 17.2082 16.9167 17.2082H22.75C22.9821 17.2082 23.2046 17.3004 23.3687 17.4645C23.5328 17.6285 23.625 17.8511 23.625 18.0832C23.625 18.3152 23.5328 18.5378 23.3687 18.7019C23.2046 18.866 22.9821 18.9582 22.75 18.9582H16.9167C16.6846 18.9582 16.462 18.866 16.298 18.7019C16.1339 18.5378 16.0417 18.3152 16.0417 18.0832ZM16.0417 20.9998C16.0417 20.7678 16.1339 20.5452 16.298 20.3811C16.462 20.217 16.6846 20.1248 16.9167 20.1248H19.8333C20.0654 20.1248 20.288 20.217 20.4521 20.3811C20.6162 20.5452 20.7083 20.7678 20.7083 20.9998C20.7083 21.2319 20.6162 21.4545 20.4521 21.6186C20.288 21.7827 20.0654 21.8748 19.8333 21.8748H16.9167C16.6846 21.8748 16.462 21.7827 16.298 21.6186C16.1339 21.4545 16.0417 21.2319 16.0417 20.9998Z" fill="#175DA8"/>
</svg>
