<svg width="21" height="20" viewBox="0 0 21 20" fill="none" xmlns="http://www.w3.org/2000/svg">
<path d="M9.32097 8.82227C9.00845 9.13489 8.83293 9.55885 8.83301 10.0009C8.83309 10.4429 9.00876 10.8668 9.32138 11.1793C9.63401 11.4919 10.058 11.6674 10.5 11.6673C10.9421 11.6672 11.366 11.4916 11.6785 11.1789" stroke="#175DA8" stroke-width="2" stroke-linecap="round" stroke-linejoin="round"/>
<path d="M14.4008 13.8942C13.2322 14.6263 11.879 15.0099 10.5 15C7.5 15 5 13.3333 3 10C4.06 8.23333 5.26 6.935 6.6 6.105M8.98333 5.15C9.48248 5.04863 9.99066 4.99837 10.5 5C13.5 5 16 6.66667 18 10C17.4444 10.925 16.8506 11.7222 16.2183 12.3917M3 2.5L18 17.5" stroke="#175DA8" stroke-width="1.5" stroke-linecap="round" stroke-linejoin="round"/>
</svg>
