<svg width="17" height="17" viewBox="0 0 17 17" fill="none" xmlns="http://www.w3.org/2000/svg">
<path d="M13.7109 7.5394C13.5124 7.5394 13.3512 7.68702 13.3512 7.86914V11.89C13.3512 12.5264 12.7864 13.0441 12.0923 13.0441H4.20491C3.51086 13.0441 2.94599 12.5264 2.94599 11.89V4.65994C2.94599 4.0236 3.51086 3.50591 4.20491 3.50591H10.0923C10.291 3.50591 10.452 3.35826 10.452 3.17617C10.452 2.99406 10.2911 2.84644 10.0923 2.84644H4.20491C3.11425 2.84646 2.22656 3.65998 2.22656 4.65992V11.89C2.22656 12.89 3.11425 13.7035 4.20491 13.7035H12.0923C13.1833 13.7035 14.0707 12.89 14.0707 11.89V7.86911C14.0706 7.68705 13.9097 7.5394 13.7109 7.5394Z" fill="#175DA8" stroke="#175DA8" stroke-width="0.8"/>
<path d="M15.0416 2.5966C14.9012 2.4678 14.6731 2.4678 14.5331 2.5966L7.3053 9.22171L5.49876 7.56588C5.35828 7.43711 5.1306 7.43711 4.99012 7.56588C4.84965 7.69468 4.84965 7.90341 4.99012 8.03213L7.05134 9.9211C7.12162 9.98555 7.21366 10.0177 7.30567 10.0177C7.3977 10.0177 7.48977 9.98555 7.56 9.9211C7.56 9.92093 7.56 9.92076 7.56036 9.92059L15.0416 3.06282C15.1821 2.93413 15.1821 2.72529 15.0416 2.5966Z" fill="#175DA8" stroke="#175DA8" stroke-width="0.8"/>
</svg>
