<svg width="21" height="20" viewBox="0 0 21 20" fill="none" xmlns="http://www.w3.org/2000/svg">
<path d="M10.5001 2C8.91787 2 7.37116 2.46919 6.05556 3.34824C4.73997 4.22729 3.71459 5.47672 3.10909 6.93853C2.50359 8.40034 2.34516 10.0089 2.65384 11.5607C2.96253 13.1126 3.72445 14.538 4.84327 15.6569C5.96209 16.7757 7.38755 17.5376 8.9394 17.8463C10.4913 18.155 12.0998 17.9965 13.5616 17.391C15.0234 16.7855 16.2728 15.7602 17.1519 14.4446C18.0309 13.129 18.5001 11.5822 18.5001 10C18.4976 7.87904 17.654 5.84566 16.1542 4.34591C14.6545 2.84616 12.6211 2.0025 10.5001 2ZM10.5001 16.5455C9.20556 16.5455 7.94006 16.1616 6.86367 15.4423C5.78727 14.7231 4.94832 13.7009 4.45291 12.5048C3.9575 11.3088 3.82788 9.99274 4.08044 8.72304C4.333 7.45335 4.95639 6.28706 5.87179 5.37166C6.78719 4.45627 7.95348 3.83287 9.22317 3.58031C10.4929 3.32776 11.8089 3.45738 13.005 3.95279C14.201 4.4482 15.2232 5.28715 15.9425 6.36354C16.6617 7.43993 17.0456 8.70543 17.0456 10C17.0435 11.7353 16.3532 13.3989 15.1261 14.626C13.8991 15.853 12.2354 16.5433 10.5001 16.5455ZM14.6725 7.69018C14.7371 7.76057 14.7871 7.84298 14.8198 7.93272C14.8526 8.02246 14.8673 8.11776 14.8632 8.21319C14.859 8.30861 14.8362 8.4023 14.7958 8.48888C14.7555 8.57547 14.6985 8.65326 14.6281 8.71782L10.2645 12.7178C10.1263 12.8445 9.9446 12.9129 9.7572 12.9089C9.5698 12.9048 9.3912 12.8286 9.25867 12.696L7.07685 10.5142C6.94048 10.3777 6.86391 10.1927 6.86398 9.99974C6.86405 9.80682 6.94075 9.62182 7.07722 9.48545C7.21368 9.34908 7.39873 9.27251 7.59165 9.27258C7.78458 9.27265 7.96957 9.34935 8.10594 9.48582L9.7954 11.1753L13.6456 7.64582C13.7877 7.51564 13.9757 7.44719 14.1682 7.45551C14.3608 7.46383 14.5421 7.54823 14.6725 7.69018Z" fill="white"/>
</svg>
