<svg width="16" height="16" viewBox="0 0 16 16" fill="none" xmlns="http://www.w3.org/2000/svg">
<path d="M2.42773 11.9546C2.42773 12.9021 3.15227 13.6266 4.09973 13.6266H11.9024C12.8498 13.6266 13.5744 12.9021 13.5744 11.9546V7.49597H2.42773V11.9546ZM11.9024 3.59464H10.7877V3.03731C10.7877 2.70291 10.5648 2.47998 10.2304 2.47998C9.89598 2.47998 9.67305 2.70291 9.67305 3.03731V3.59464H6.32906V3.03731C6.32906 2.70291 6.10612 2.47998 5.77173 2.47998C5.43733 2.47998 5.21439 2.70291 5.21439 3.03731V3.59464H4.09973C3.15227 3.59464 2.42773 4.31918 2.42773 5.26664V6.3813H13.5744V5.26664C13.5744 4.31918 12.8498 3.59464 11.9024 3.59464Z" fill="#888888"/>
</svg>
