<svg width="72" height="72" viewBox="0 0 72 72" fill="none" xmlns="http://www.w3.org/2000/svg">
<rect width="72" height="72" rx="36" fill="#25D366"/>
<path d="M48.0499 24.8016C46.537 23.2739 44.7351 22.0625 42.7493 21.2382C40.7635 20.4138 38.6335 19.993 36.4835 20.0001C27.4745 20.0001 20.132 27.3426 20.132 36.3515C20.132 39.239 20.891 42.044 22.31 44.519L20 53L28.6625 50.723C31.055 52.0265 33.7445 52.7195 36.4835 52.7195C45.4924 52.7195 52.8349 45.377 52.8349 36.368C52.8349 31.9956 51.1354 27.8871 48.0499 24.8016ZM36.4835 49.9475C34.0415 49.9475 31.649 49.2875 29.5535 48.05L29.0585 47.753L23.9105 49.106L25.28 44.09L24.95 43.5785C23.5929 41.4122 22.8725 38.9078 22.871 36.3515C22.871 28.8606 28.976 22.7556 36.467 22.7556C40.0969 22.7556 43.5124 24.1746 46.0699 26.7486C47.3365 28.0089 48.3402 29.5083 49.0228 31.1596C49.7054 32.8108 50.0533 34.5812 50.0464 36.368C50.0794 43.859 43.9744 49.9475 36.4835 49.9475ZM43.9414 39.7835C43.5289 39.5855 41.5159 38.5955 41.1529 38.447C40.7734 38.315 40.5094 38.249 40.2289 38.645C39.9484 39.0575 39.1729 39.9815 38.9419 40.2455C38.7109 40.526 38.4634 40.559 38.0509 40.3445C37.6385 40.1465 36.3185 39.701 34.7675 38.315C33.5465 37.226 32.738 35.8895 32.4905 35.477C32.2595 35.0645 32.4575 34.85 32.672 34.6356C32.8535 34.4541 33.0845 34.1571 33.2825 33.9261C33.4805 33.6951 33.563 33.5136 33.695 33.2496C33.827 32.9691 33.761 32.7381 33.662 32.5401C33.563 32.3421 32.738 30.3291 32.408 29.5041C32.078 28.7121 31.7315 28.8111 31.484 28.7946H30.692C30.4115 28.7946 29.9825 28.8936 29.603 29.3061C29.24 29.7186 28.184 30.7086 28.184 32.7216C28.184 34.7345 29.6525 36.6815 29.8505 36.9455C30.0485 37.226 32.738 41.351 36.83 43.1165C37.8035 43.5455 38.5624 43.793 39.1564 43.9745C40.1299 44.288 41.0209 44.2385 41.7304 44.1395C42.5224 44.024 44.1559 43.1495 44.4859 42.1925C44.8324 41.2355 44.8324 40.427 44.7169 40.2455C44.6014 40.064 44.3539 39.9815 43.9414 39.7835Z" fill="white"/>
</svg>
