<svg width="16" height="16" viewBox="0 0 16 16" fill="none" xmlns="http://www.w3.org/2000/svg">
<path fill-rule="evenodd" clip-rule="evenodd" d="M7.50735 14.7559C7.50735 14.7559 2.66602 10.6786 2.66602 6.66659C2.66602 5.2521 3.22792 3.89554 4.22811 2.89535C5.22831 1.89516 6.58486 1.33325 7.99935 1.33325C9.41384 1.33325 10.7704 1.89516 11.7706 2.89535C12.7708 3.89554 13.3327 5.2521 13.3327 6.66659C13.3327 10.6786 8.49135 14.7559 8.49135 14.7559C8.22202 15.0039 7.77868 15.0013 7.50735 14.7559ZM7.99935 8.99992C8.30577 8.99992 8.60918 8.93957 8.89228 8.8223C9.17537 8.70504 9.43259 8.53317 9.64926 8.3165C9.86593 8.09983 10.0378 7.84261 10.1551 7.55951C10.2723 7.27642 10.3327 6.973 10.3327 6.66659C10.3327 6.36017 10.2723 6.05675 10.1551 5.77366C10.0378 5.49056 9.86593 5.23334 9.64926 5.01667C9.43259 4.8 9.17537 4.62813 8.89228 4.51087C8.60918 4.39361 8.30577 4.33325 7.99935 4.33325C7.38051 4.33325 6.78702 4.57908 6.34943 5.01667C5.91185 5.45425 5.66602 6.04775 5.66602 6.66659C5.66602 7.28542 5.91185 7.87892 6.34943 8.3165C6.78702 8.75409 7.38051 8.99992 7.99935 8.99992Z" fill="#888888"/>
</svg>
